%FSLAX45Y45*%
G04 Gerber Fmt 4.5, Leading zero omitted, Abs format (unit mm)*
G04 Created by KiCad (PCBNEW 4.0.6) date Thu Apr 29 15:33:18 2021*
%MOMM*%
%LPD*%
G01*
G04 APERTURE LIST*
%ADD10C,0.127000*%
%ADD11C,0.200000*%
%ADD12C,0.300000*%
G04 APERTURE END LIST*
D10*
D11*
X8278500Y-14247500D02*
X8358500Y-14327500D01*
X8358500Y-14247500D02*
X8278500Y-14327500D01*
X8278500Y-14501500D02*
X8358500Y-14581500D01*
X8358500Y-14501500D02*
X8278500Y-14581500D01*
X8278500Y-14755500D02*
X8358500Y-14835500D01*
X8358500Y-14755500D02*
X8278500Y-14835500D01*
X8278500Y-15009500D02*
X8358500Y-15089500D01*
X8358500Y-15009500D02*
X8278500Y-15089500D01*
X9040500Y-14247500D02*
X9120500Y-14327500D01*
X9120500Y-14247500D02*
X9040500Y-14327500D01*
X9040500Y-14501500D02*
X9120500Y-14581500D01*
X9120500Y-14501500D02*
X9040500Y-14581500D01*
X9040500Y-14755500D02*
X9120500Y-14835500D01*
X9120500Y-14755500D02*
X9040500Y-14835500D01*
X9040500Y-15009500D02*
X9120500Y-15089500D01*
X9120500Y-15009500D02*
X9040500Y-15089500D01*
X7797000Y-15375000D02*
G75*
G03X7797000Y-15375000I-50000J0D01*
G01*
X7797000Y-15875000D02*
G75*
G03X7797000Y-15875000I-50000J0D01*
G01*
X7828750Y-11215750D02*
G75*
G03X7828750Y-11215750I-50000J0D01*
G01*
X7828750Y-11715750D02*
G75*
G03X7828750Y-11715750I-50000J0D01*
G01*
X8400250Y-11715750D02*
G75*
G03X8400250Y-11715750I-50000J0D01*
G01*
X8630500Y-13779500D02*
G75*
G03X8630500Y-13779500I-50000J0D01*
G01*
X8654250Y-11715750D02*
G75*
G03X8654250Y-11715750I-50000J0D01*
G01*
X8908250Y-11715750D02*
G75*
G03X8908250Y-11715750I-50000J0D01*
G01*
X9130500Y-13779500D02*
G75*
G03X9130500Y-13779500I-50000J0D01*
G01*
X9479750Y-11215750D02*
G75*
G03X9479750Y-11215750I-50000J0D01*
G01*
X9479750Y-11715750D02*
G75*
G03X9479750Y-11715750I-50000J0D01*
G01*
X11353000Y-13970000D02*
G75*
G03X11353000Y-13970000I-50000J0D01*
G01*
X11353000Y-14470000D02*
G75*
G03X11353000Y-14470000I-50000J0D01*
G01*
X11416500Y-16446500D02*
G75*
G03X11416500Y-16446500I-50000J0D01*
G01*
X11670500Y-16446500D02*
G75*
G03X11670500Y-16446500I-50000J0D01*
G01*
X11924500Y-14224000D02*
G75*
G03X11924500Y-14224000I-50000J0D01*
G01*
X11924500Y-14478000D02*
G75*
G03X11924500Y-14478000I-50000J0D01*
G01*
X11924500Y-14732000D02*
G75*
G03X11924500Y-14732000I-50000J0D01*
G01*
X11924500Y-16446500D02*
G75*
G03X11924500Y-16446500I-50000J0D01*
G01*
X12559500Y-14224000D02*
G75*
G03X12559500Y-14224000I-50000J0D01*
G01*
X12559500Y-14724000D02*
G75*
G03X12559500Y-14724000I-50000J0D01*
G01*
X7556500Y-12640000D02*
X7556500Y-12760000D01*
X7496500Y-12700000D02*
X7616500Y-12700000D01*
X7556500Y-14164000D02*
X7556500Y-14284000D01*
X7496500Y-14224000D02*
X7616500Y-14224000D01*
X7874000Y-12195500D02*
X7874000Y-12315500D01*
X7814000Y-12255500D02*
X7934000Y-12255500D01*
X8001000Y-12703500D02*
X8001000Y-12823500D01*
X7941000Y-12763500D02*
X8061000Y-12763500D01*
X8001000Y-13275000D02*
X8001000Y-13395000D01*
X7941000Y-13335000D02*
X8061000Y-13335000D01*
X8128000Y-15815000D02*
X8128000Y-15935000D01*
X8068000Y-15875000D02*
X8188000Y-15875000D01*
X8128000Y-16450000D02*
X8128000Y-16570000D01*
X8068000Y-16510000D02*
X8188000Y-16510000D01*
X8382000Y-10290500D02*
X8382000Y-10410500D01*
X8322000Y-10350500D02*
X8442000Y-10350500D01*
X8882000Y-10290500D02*
X8882000Y-10410500D01*
X8822000Y-10350500D02*
X8942000Y-10350500D01*
X9144000Y-12195500D02*
X9144000Y-12315500D01*
X9084000Y-12255500D02*
X9204000Y-12255500D01*
X9525000Y-12703500D02*
X9525000Y-12823500D01*
X9465000Y-12763500D02*
X9585000Y-12763500D01*
X9525000Y-13275000D02*
X9525000Y-13395000D01*
X9465000Y-13335000D02*
X9585000Y-13335000D01*
X9652000Y-13719500D02*
X9652000Y-13839500D01*
X9592000Y-13779500D02*
X9712000Y-13779500D01*
X9652000Y-15243500D02*
X9652000Y-15363500D01*
X9592000Y-15303500D02*
X9712000Y-15303500D01*
X9652000Y-15815000D02*
X9652000Y-15935000D01*
X9592000Y-15875000D02*
X9712000Y-15875000D01*
X9652000Y-16450000D02*
X9652000Y-16570000D01*
X9592000Y-16510000D02*
X9712000Y-16510000D01*
X10223500Y-9973000D02*
X10223500Y-10093000D01*
X10163500Y-10033000D02*
X10283500Y-10033000D01*
X10223500Y-11243000D02*
X10223500Y-11363000D01*
X10163500Y-11303000D02*
X10283500Y-11303000D01*
X10223500Y-11687500D02*
X10223500Y-11807500D01*
X10163500Y-11747500D02*
X10283500Y-11747500D01*
X10223500Y-12957500D02*
X10223500Y-13077500D01*
X10163500Y-13017500D02*
X10283500Y-13017500D01*
X10414000Y-17148500D02*
X10414000Y-17268500D01*
X10354000Y-17208500D02*
X10474000Y-17208500D01*
X10795000Y-9973000D02*
X10795000Y-10093000D01*
X10735000Y-10033000D02*
X10855000Y-10033000D01*
X10795000Y-11243000D02*
X10795000Y-11363000D01*
X10735000Y-11303000D02*
X10855000Y-11303000D01*
X10795000Y-11687500D02*
X10795000Y-11807500D01*
X10735000Y-11747500D02*
X10855000Y-11747500D01*
X10795000Y-12957500D02*
X10795000Y-13077500D01*
X10735000Y-13017500D02*
X10855000Y-13017500D01*
X10795000Y-13402000D02*
X10795000Y-13522000D01*
X10735000Y-13462000D02*
X10855000Y-13462000D01*
X10795000Y-14672000D02*
X10795000Y-14792000D01*
X10735000Y-14732000D02*
X10855000Y-14732000D01*
X10795000Y-15180000D02*
X10795000Y-15300000D01*
X10735000Y-15240000D02*
X10855000Y-15240000D01*
X10795000Y-16450000D02*
X10795000Y-16570000D01*
X10735000Y-16510000D02*
X10855000Y-16510000D01*
X11565000Y-12957500D02*
X11565000Y-13077500D01*
X11505000Y-13017500D02*
X11625000Y-13017500D01*
X11938000Y-17148500D02*
X11938000Y-17268500D01*
X11878000Y-17208500D02*
X11998000Y-17208500D01*
X12065000Y-12957500D02*
X12065000Y-13077500D01*
X12005000Y-13017500D02*
X12125000Y-13017500D01*
X12382500Y-15878500D02*
X12382500Y-15998500D01*
X12322500Y-15938500D02*
X12442500Y-15938500D01*
X12382500Y-17148500D02*
X12382500Y-17268500D01*
X12322500Y-17208500D02*
X12442500Y-17208500D01*
X13826169Y-9913170D02*
X13826169Y-9819831D01*
X13732830Y-9819831D01*
X13732830Y-9913170D01*
X13826169Y-9913170D01*
X13826169Y-10413170D02*
X13826169Y-10319831D01*
X13732830Y-10319831D01*
X13732830Y-10413170D01*
X13826169Y-10413170D01*
X13826169Y-10913170D02*
X13826169Y-10819831D01*
X13732830Y-10819831D01*
X13732830Y-10913170D01*
X13826169Y-10913170D01*
X13826169Y-11413169D02*
X13826169Y-11319830D01*
X13732830Y-11319830D01*
X13732830Y-11413169D01*
X13826169Y-11413169D01*
X13826169Y-13786669D02*
X13826169Y-13693330D01*
X13732830Y-13693330D01*
X13732830Y-13786669D01*
X13826169Y-13786669D01*
X13826169Y-14286669D02*
X13826169Y-14193330D01*
X13732830Y-14193330D01*
X13732830Y-14286669D01*
X13826169Y-14286669D01*
X13826169Y-14786669D02*
X13826169Y-14693330D01*
X13732830Y-14693330D01*
X13732830Y-14786669D01*
X13826169Y-14786669D01*
X13826169Y-15286669D02*
X13826169Y-15193330D01*
X13732830Y-15193330D01*
X13732830Y-15286669D01*
X13826169Y-15286669D01*
X13826169Y-16374169D02*
X13826169Y-16280830D01*
X13732830Y-16280830D01*
X13732830Y-16374169D01*
X13826169Y-16374169D01*
X13826169Y-16874170D02*
X13826169Y-16780831D01*
X13732830Y-16780831D01*
X13732830Y-16874170D01*
X13826169Y-16874170D01*
X11303000Y-10156000D02*
X11370500Y-10088500D01*
X11303000Y-10021000D01*
X11235500Y-10088500D01*
X11303000Y-10156000D01*
X11303000Y-11688000D02*
X11370500Y-11620500D01*
X11303000Y-11553000D01*
X11235500Y-11620500D01*
X11303000Y-11688000D01*
X11557000Y-9902000D02*
X11624500Y-9834500D01*
X11557000Y-9767000D01*
X11489500Y-9834500D01*
X11557000Y-9902000D01*
X11557000Y-10410000D02*
X11624500Y-10342500D01*
X11557000Y-10275000D01*
X11489500Y-10342500D01*
X11557000Y-10410000D01*
X11557000Y-11434000D02*
X11624500Y-11366500D01*
X11557000Y-11299000D01*
X11489500Y-11366500D01*
X11557000Y-11434000D01*
X11557000Y-11942000D02*
X11624500Y-11874500D01*
X11557000Y-11807000D01*
X11489500Y-11874500D01*
X11557000Y-11942000D01*
X11811000Y-10156000D02*
X11878500Y-10088500D01*
X11811000Y-10021000D01*
X11743500Y-10088500D01*
X11811000Y-10156000D01*
X11811000Y-11688000D02*
X11878500Y-11620500D01*
X11811000Y-11553000D01*
X11743500Y-11620500D01*
X11811000Y-11688000D01*
X12319000Y-10156000D02*
X12386500Y-10088500D01*
X12319000Y-10021000D01*
X12251500Y-10088500D01*
X12319000Y-10156000D01*
X12319000Y-11688000D02*
X12386500Y-11620500D01*
X12319000Y-11553000D01*
X12251500Y-11620500D01*
X12319000Y-11688000D01*
X12573000Y-9902000D02*
X12640500Y-9834500D01*
X12573000Y-9767000D01*
X12505500Y-9834500D01*
X12573000Y-9902000D01*
X12573000Y-10410000D02*
X12640500Y-10342500D01*
X12573000Y-10275000D01*
X12505500Y-10342500D01*
X12573000Y-10410000D01*
X12573000Y-11434000D02*
X12640500Y-11366500D01*
X12573000Y-11299000D01*
X12505500Y-11366500D01*
X12573000Y-11434000D01*
X12573000Y-11942000D02*
X12640500Y-11874500D01*
X12573000Y-11807000D01*
X12505500Y-11874500D01*
X12573000Y-11942000D01*
X12827000Y-10156000D02*
X12894500Y-10088500D01*
X12827000Y-10021000D01*
X12759500Y-10088500D01*
X12827000Y-10156000D01*
X12827000Y-11688000D02*
X12894500Y-11620500D01*
X12827000Y-11553000D01*
X12759500Y-11620500D01*
X12827000Y-11688000D01*
D12*
X271429Y-465714D02*
X271429Y-165714D01*
X342857Y-165714D01*
X385714Y-180000D01*
X414286Y-208571D01*
X428571Y-237143D01*
X442857Y-294286D01*
X442857Y-337143D01*
X428571Y-394286D01*
X414286Y-422857D01*
X385714Y-451429D01*
X342857Y-465714D01*
X271429Y-465714D01*
X571429Y-465714D02*
X571429Y-265714D01*
X571429Y-322857D02*
X585714Y-294286D01*
X600000Y-280000D01*
X628571Y-265714D01*
X657143Y-265714D01*
X757143Y-465714D02*
X757143Y-265714D01*
X757143Y-165714D02*
X742857Y-180000D01*
X757143Y-194286D01*
X771429Y-180000D01*
X757143Y-165714D01*
X757143Y-194286D01*
X942857Y-465714D02*
X914286Y-451429D01*
X900000Y-422857D01*
X900000Y-165714D01*
X1100000Y-465714D02*
X1071429Y-451429D01*
X1057143Y-422857D01*
X1057143Y-165714D01*
X1442857Y-465714D02*
X1442857Y-165714D01*
X1542857Y-380000D01*
X1642857Y-165714D01*
X1642857Y-465714D01*
X1914286Y-465714D02*
X1914286Y-308571D01*
X1900000Y-280000D01*
X1871429Y-265714D01*
X1814286Y-265714D01*
X1785714Y-280000D01*
X1914286Y-451429D02*
X1885714Y-465714D01*
X1814286Y-465714D01*
X1785714Y-451429D01*
X1771429Y-422857D01*
X1771429Y-394286D01*
X1785714Y-365714D01*
X1814286Y-351429D01*
X1885714Y-351429D01*
X1914286Y-337143D01*
X2057143Y-265714D02*
X2057143Y-565714D01*
X2057143Y-280000D02*
X2085714Y-265714D01*
X2142857Y-265714D01*
X2171429Y-280000D01*
X2185714Y-294286D01*
X2200000Y-322857D01*
X2200000Y-408571D01*
X2185714Y-437143D01*
X2171429Y-451429D01*
X2142857Y-465714D01*
X2085714Y-465714D01*
X2057143Y-451429D01*
X2328572Y-437143D02*
X2342857Y-451429D01*
X2328572Y-465714D01*
X2314286Y-451429D01*
X2328572Y-437143D01*
X2328572Y-465714D01*
X2328572Y-280000D02*
X2342857Y-294286D01*
X2328572Y-308571D01*
X2314286Y-294286D01*
X2328572Y-280000D01*
X2328572Y-308571D01*
X-80000Y-920000D02*
X0Y-1000000D01*
X0Y-920000D02*
X-80000Y-1000000D01*
X328571Y-795714D02*
X357143Y-795714D01*
X385714Y-810000D01*
X400000Y-824286D01*
X414286Y-852857D01*
X428571Y-910000D01*
X428571Y-981429D01*
X414286Y-1038571D01*
X400000Y-1067143D01*
X385714Y-1081429D01*
X357143Y-1095714D01*
X328571Y-1095714D01*
X300000Y-1081429D01*
X285714Y-1067143D01*
X271429Y-1038571D01*
X257143Y-981429D01*
X257143Y-910000D01*
X271429Y-852857D01*
X285714Y-824286D01*
X300000Y-810000D01*
X328571Y-795714D01*
X557143Y-1067143D02*
X571429Y-1081429D01*
X557143Y-1095714D01*
X542857Y-1081429D01*
X557143Y-1067143D01*
X557143Y-1095714D01*
X742857Y-924286D02*
X714286Y-910000D01*
X700000Y-895714D01*
X685714Y-867143D01*
X685714Y-852857D01*
X700000Y-824286D01*
X714286Y-810000D01*
X742857Y-795714D01*
X800000Y-795714D01*
X828571Y-810000D01*
X842857Y-824286D01*
X857143Y-852857D01*
X857143Y-867143D01*
X842857Y-895714D01*
X828571Y-910000D01*
X800000Y-924286D01*
X742857Y-924286D01*
X714286Y-938571D01*
X700000Y-952857D01*
X685714Y-981429D01*
X685714Y-1038571D01*
X700000Y-1067143D01*
X714286Y-1081429D01*
X742857Y-1095714D01*
X800000Y-1095714D01*
X828571Y-1081429D01*
X842857Y-1067143D01*
X857143Y-1038571D01*
X857143Y-981429D01*
X842857Y-952857D01*
X828571Y-938571D01*
X800000Y-924286D01*
X1042857Y-795714D02*
X1071429Y-795714D01*
X1100000Y-810000D01*
X1114286Y-824286D01*
X1128571Y-852857D01*
X1142857Y-910000D01*
X1142857Y-981429D01*
X1128571Y-1038571D01*
X1114286Y-1067143D01*
X1100000Y-1081429D01*
X1071429Y-1095714D01*
X1042857Y-1095714D01*
X1014286Y-1081429D01*
X1000000Y-1067143D01*
X985714Y-1038571D01*
X971429Y-981429D01*
X971429Y-910000D01*
X985714Y-852857D01*
X1000000Y-824286D01*
X1014286Y-810000D01*
X1042857Y-795714D01*
X1271429Y-1095714D02*
X1271429Y-895714D01*
X1271429Y-924286D02*
X1285714Y-910000D01*
X1314286Y-895714D01*
X1357143Y-895714D01*
X1385714Y-910000D01*
X1400000Y-938571D01*
X1400000Y-1095714D01*
X1400000Y-938571D02*
X1414286Y-910000D01*
X1442857Y-895714D01*
X1485714Y-895714D01*
X1514286Y-910000D01*
X1528571Y-938571D01*
X1528571Y-1095714D01*
X1671429Y-1095714D02*
X1671429Y-895714D01*
X1671429Y-924286D02*
X1685714Y-910000D01*
X1714286Y-895714D01*
X1757143Y-895714D01*
X1785714Y-910000D01*
X1800000Y-938571D01*
X1800000Y-1095714D01*
X1800000Y-938571D02*
X1814286Y-910000D01*
X1842857Y-895714D01*
X1885714Y-895714D01*
X1914286Y-910000D01*
X1928571Y-938571D01*
X1928571Y-1095714D01*
X2514286Y-781429D02*
X2257143Y-1167143D01*
X2900000Y-795714D02*
X2928571Y-795714D01*
X2957143Y-810000D01*
X2971428Y-824286D01*
X2985714Y-852857D01*
X3000000Y-910000D01*
X3000000Y-981429D01*
X2985714Y-1038571D01*
X2971428Y-1067143D01*
X2957143Y-1081429D01*
X2928571Y-1095714D01*
X2900000Y-1095714D01*
X2871428Y-1081429D01*
X2857143Y-1067143D01*
X2842857Y-1038571D01*
X2828571Y-981429D01*
X2828571Y-910000D01*
X2842857Y-852857D01*
X2857143Y-824286D01*
X2871428Y-810000D01*
X2900000Y-795714D01*
X3128571Y-1067143D02*
X3142857Y-1081429D01*
X3128571Y-1095714D01*
X3114286Y-1081429D01*
X3128571Y-1067143D01*
X3128571Y-1095714D01*
X3328571Y-795714D02*
X3357143Y-795714D01*
X3385714Y-810000D01*
X3400000Y-824286D01*
X3414286Y-852857D01*
X3428571Y-910000D01*
X3428571Y-981429D01*
X3414286Y-1038571D01*
X3400000Y-1067143D01*
X3385714Y-1081429D01*
X3357143Y-1095714D01*
X3328571Y-1095714D01*
X3300000Y-1081429D01*
X3285714Y-1067143D01*
X3271428Y-1038571D01*
X3257143Y-981429D01*
X3257143Y-910000D01*
X3271428Y-852857D01*
X3285714Y-824286D01*
X3300000Y-810000D01*
X3328571Y-795714D01*
X3528571Y-795714D02*
X3714286Y-795714D01*
X3614286Y-910000D01*
X3657143Y-910000D01*
X3685714Y-924286D01*
X3700000Y-938571D01*
X3714286Y-967143D01*
X3714286Y-1038571D01*
X3700000Y-1067143D01*
X3685714Y-1081429D01*
X3657143Y-1095714D01*
X3571428Y-1095714D01*
X3542857Y-1081429D01*
X3528571Y-1067143D01*
X4000000Y-1095714D02*
X3828571Y-1095714D01*
X3914286Y-1095714D02*
X3914286Y-795714D01*
X3885714Y-838571D01*
X3857143Y-867143D01*
X3828571Y-881429D01*
X4114286Y-795714D02*
X4114286Y-852857D01*
X4228571Y-795714D02*
X4228571Y-852857D01*
X4671429Y-1210000D02*
X4657143Y-1195714D01*
X4628571Y-1152857D01*
X4614286Y-1124286D01*
X4600000Y-1081429D01*
X4585714Y-1010000D01*
X4585714Y-952857D01*
X4600000Y-881429D01*
X4614286Y-838571D01*
X4628571Y-810000D01*
X4657143Y-767143D01*
X4671429Y-752857D01*
X4828571Y-924286D02*
X4800000Y-910000D01*
X4785714Y-895714D01*
X4771429Y-867143D01*
X4771429Y-852857D01*
X4785714Y-824286D01*
X4800000Y-810000D01*
X4828571Y-795714D01*
X4885714Y-795714D01*
X4914286Y-810000D01*
X4928571Y-824286D01*
X4942857Y-852857D01*
X4942857Y-867143D01*
X4928571Y-895714D01*
X4914286Y-910000D01*
X4885714Y-924286D01*
X4828571Y-924286D01*
X4800000Y-938571D01*
X4785714Y-952857D01*
X4771429Y-981429D01*
X4771429Y-1038571D01*
X4785714Y-1067143D01*
X4800000Y-1081429D01*
X4828571Y-1095714D01*
X4885714Y-1095714D01*
X4914286Y-1081429D01*
X4928571Y-1067143D01*
X4942857Y-1038571D01*
X4942857Y-981429D01*
X4928571Y-952857D01*
X4914286Y-938571D01*
X4885714Y-924286D01*
X5300000Y-1095714D02*
X5300000Y-795714D01*
X5428571Y-1095714D02*
X5428571Y-938571D01*
X5414286Y-910000D01*
X5385714Y-895714D01*
X5342857Y-895714D01*
X5314286Y-910000D01*
X5300000Y-924286D01*
X5614286Y-1095714D02*
X5585714Y-1081429D01*
X5571429Y-1067143D01*
X5557143Y-1038571D01*
X5557143Y-952857D01*
X5571429Y-924286D01*
X5585714Y-910000D01*
X5614286Y-895714D01*
X5657143Y-895714D01*
X5685714Y-910000D01*
X5700000Y-924286D01*
X5714286Y-952857D01*
X5714286Y-1038571D01*
X5700000Y-1067143D01*
X5685714Y-1081429D01*
X5657143Y-1095714D01*
X5614286Y-1095714D01*
X5885714Y-1095714D02*
X5857143Y-1081429D01*
X5842857Y-1052857D01*
X5842857Y-795714D01*
X6114286Y-1081429D02*
X6085714Y-1095714D01*
X6028571Y-1095714D01*
X6000000Y-1081429D01*
X5985714Y-1052857D01*
X5985714Y-938571D01*
X6000000Y-910000D01*
X6028571Y-895714D01*
X6085714Y-895714D01*
X6114286Y-910000D01*
X6128571Y-938571D01*
X6128571Y-967143D01*
X5985714Y-995714D01*
X6242857Y-1081429D02*
X6271429Y-1095714D01*
X6328571Y-1095714D01*
X6357143Y-1081429D01*
X6371429Y-1052857D01*
X6371429Y-1038571D01*
X6357143Y-1010000D01*
X6328571Y-995714D01*
X6285714Y-995714D01*
X6257143Y-981429D01*
X6242857Y-952857D01*
X6242857Y-938571D01*
X6257143Y-910000D01*
X6285714Y-895714D01*
X6328571Y-895714D01*
X6357143Y-910000D01*
X6471428Y-1210000D02*
X6485714Y-1195714D01*
X6514286Y-1152857D01*
X6528571Y-1124286D01*
X6542857Y-1081429D01*
X6557143Y-1010000D01*
X6557143Y-952857D01*
X6542857Y-881429D01*
X6528571Y-838571D01*
X6514286Y-810000D01*
X6485714Y-767143D01*
X6471428Y-752857D01*
X0Y-1356000D02*
G75*
G03X0Y-1356000I-50000J0D01*
G01*
X428571Y-1491714D02*
X257143Y-1491714D01*
X342857Y-1491714D02*
X342857Y-1191714D01*
X314286Y-1234571D01*
X285714Y-1263143D01*
X257143Y-1277429D01*
X557143Y-1463143D02*
X571429Y-1477429D01*
X557143Y-1491714D01*
X542857Y-1477429D01*
X557143Y-1463143D01*
X557143Y-1491714D01*
X757143Y-1191714D02*
X785714Y-1191714D01*
X814286Y-1206000D01*
X828571Y-1220286D01*
X842857Y-1248857D01*
X857143Y-1306000D01*
X857143Y-1377429D01*
X842857Y-1434571D01*
X828571Y-1463143D01*
X814286Y-1477429D01*
X785714Y-1491714D01*
X757143Y-1491714D01*
X728571Y-1477429D01*
X714286Y-1463143D01*
X700000Y-1434571D01*
X685714Y-1377429D01*
X685714Y-1306000D01*
X700000Y-1248857D01*
X714286Y-1220286D01*
X728571Y-1206000D01*
X757143Y-1191714D01*
X1042857Y-1191714D02*
X1071429Y-1191714D01*
X1100000Y-1206000D01*
X1114286Y-1220286D01*
X1128571Y-1248857D01*
X1142857Y-1306000D01*
X1142857Y-1377429D01*
X1128571Y-1434571D01*
X1114286Y-1463143D01*
X1100000Y-1477429D01*
X1071429Y-1491714D01*
X1042857Y-1491714D01*
X1014286Y-1477429D01*
X1000000Y-1463143D01*
X985714Y-1434571D01*
X971429Y-1377429D01*
X971429Y-1306000D01*
X985714Y-1248857D01*
X1000000Y-1220286D01*
X1014286Y-1206000D01*
X1042857Y-1191714D01*
X1271429Y-1491714D02*
X1271429Y-1291714D01*
X1271429Y-1320286D02*
X1285714Y-1306000D01*
X1314286Y-1291714D01*
X1357143Y-1291714D01*
X1385714Y-1306000D01*
X1400000Y-1334571D01*
X1400000Y-1491714D01*
X1400000Y-1334571D02*
X1414286Y-1306000D01*
X1442857Y-1291714D01*
X1485714Y-1291714D01*
X1514286Y-1306000D01*
X1528571Y-1334571D01*
X1528571Y-1491714D01*
X1671429Y-1491714D02*
X1671429Y-1291714D01*
X1671429Y-1320286D02*
X1685714Y-1306000D01*
X1714286Y-1291714D01*
X1757143Y-1291714D01*
X1785714Y-1306000D01*
X1800000Y-1334571D01*
X1800000Y-1491714D01*
X1800000Y-1334571D02*
X1814286Y-1306000D01*
X1842857Y-1291714D01*
X1885714Y-1291714D01*
X1914286Y-1306000D01*
X1928571Y-1334571D01*
X1928571Y-1491714D01*
X2514286Y-1177429D02*
X2257143Y-1563143D01*
X2900000Y-1191714D02*
X2928571Y-1191714D01*
X2957143Y-1206000D01*
X2971428Y-1220286D01*
X2985714Y-1248857D01*
X3000000Y-1306000D01*
X3000000Y-1377429D01*
X2985714Y-1434571D01*
X2971428Y-1463143D01*
X2957143Y-1477429D01*
X2928571Y-1491714D01*
X2900000Y-1491714D01*
X2871428Y-1477429D01*
X2857143Y-1463143D01*
X2842857Y-1434571D01*
X2828571Y-1377429D01*
X2828571Y-1306000D01*
X2842857Y-1248857D01*
X2857143Y-1220286D01*
X2871428Y-1206000D01*
X2900000Y-1191714D01*
X3128571Y-1463143D02*
X3142857Y-1477429D01*
X3128571Y-1491714D01*
X3114286Y-1477429D01*
X3128571Y-1463143D01*
X3128571Y-1491714D01*
X3328571Y-1191714D02*
X3357143Y-1191714D01*
X3385714Y-1206000D01*
X3400000Y-1220286D01*
X3414286Y-1248857D01*
X3428571Y-1306000D01*
X3428571Y-1377429D01*
X3414286Y-1434571D01*
X3400000Y-1463143D01*
X3385714Y-1477429D01*
X3357143Y-1491714D01*
X3328571Y-1491714D01*
X3300000Y-1477429D01*
X3285714Y-1463143D01*
X3271428Y-1434571D01*
X3257143Y-1377429D01*
X3257143Y-1306000D01*
X3271428Y-1248857D01*
X3285714Y-1220286D01*
X3300000Y-1206000D01*
X3328571Y-1191714D01*
X3528571Y-1191714D02*
X3714286Y-1191714D01*
X3614286Y-1306000D01*
X3657143Y-1306000D01*
X3685714Y-1320286D01*
X3700000Y-1334571D01*
X3714286Y-1363143D01*
X3714286Y-1434571D01*
X3700000Y-1463143D01*
X3685714Y-1477429D01*
X3657143Y-1491714D01*
X3571428Y-1491714D01*
X3542857Y-1477429D01*
X3528571Y-1463143D01*
X3857143Y-1491714D02*
X3914286Y-1491714D01*
X3942857Y-1477429D01*
X3957143Y-1463143D01*
X3985714Y-1420286D01*
X4000000Y-1363143D01*
X4000000Y-1248857D01*
X3985714Y-1220286D01*
X3971428Y-1206000D01*
X3942857Y-1191714D01*
X3885714Y-1191714D01*
X3857143Y-1206000D01*
X3842857Y-1220286D01*
X3828571Y-1248857D01*
X3828571Y-1320286D01*
X3842857Y-1348857D01*
X3857143Y-1363143D01*
X3885714Y-1377429D01*
X3942857Y-1377429D01*
X3971428Y-1363143D01*
X3985714Y-1348857D01*
X4000000Y-1320286D01*
X4114286Y-1191714D02*
X4114286Y-1248857D01*
X4228571Y-1191714D02*
X4228571Y-1248857D01*
X4671429Y-1606000D02*
X4657143Y-1591714D01*
X4628571Y-1548857D01*
X4614286Y-1520286D01*
X4600000Y-1477429D01*
X4585714Y-1406000D01*
X4585714Y-1348857D01*
X4600000Y-1277429D01*
X4614286Y-1234571D01*
X4628571Y-1206000D01*
X4657143Y-1163143D01*
X4671429Y-1148857D01*
X4771429Y-1220286D02*
X4785714Y-1206000D01*
X4814286Y-1191714D01*
X4885714Y-1191714D01*
X4914286Y-1206000D01*
X4928571Y-1220286D01*
X4942857Y-1248857D01*
X4942857Y-1277429D01*
X4928571Y-1320286D01*
X4757143Y-1491714D01*
X4942857Y-1491714D01*
X5228571Y-1491714D02*
X5057143Y-1491714D01*
X5142857Y-1491714D02*
X5142857Y-1191714D01*
X5114286Y-1234571D01*
X5085714Y-1263143D01*
X5057143Y-1277429D01*
X5585714Y-1491714D02*
X5585714Y-1191714D01*
X5714286Y-1491714D02*
X5714286Y-1334571D01*
X5700000Y-1306000D01*
X5671428Y-1291714D01*
X5628571Y-1291714D01*
X5600000Y-1306000D01*
X5585714Y-1320286D01*
X5900000Y-1491714D02*
X5871428Y-1477429D01*
X5857143Y-1463143D01*
X5842857Y-1434571D01*
X5842857Y-1348857D01*
X5857143Y-1320286D01*
X5871428Y-1306000D01*
X5900000Y-1291714D01*
X5942857Y-1291714D01*
X5971428Y-1306000D01*
X5985714Y-1320286D01*
X6000000Y-1348857D01*
X6000000Y-1434571D01*
X5985714Y-1463143D01*
X5971428Y-1477429D01*
X5942857Y-1491714D01*
X5900000Y-1491714D01*
X6171428Y-1491714D02*
X6142857Y-1477429D01*
X6128571Y-1448857D01*
X6128571Y-1191714D01*
X6400000Y-1477429D02*
X6371429Y-1491714D01*
X6314286Y-1491714D01*
X6285714Y-1477429D01*
X6271429Y-1448857D01*
X6271429Y-1334571D01*
X6285714Y-1306000D01*
X6314286Y-1291714D01*
X6371429Y-1291714D01*
X6400000Y-1306000D01*
X6414286Y-1334571D01*
X6414286Y-1363143D01*
X6271429Y-1391714D01*
X6528571Y-1477429D02*
X6557143Y-1491714D01*
X6614286Y-1491714D01*
X6642857Y-1477429D01*
X6657143Y-1448857D01*
X6657143Y-1434571D01*
X6642857Y-1406000D01*
X6614286Y-1391714D01*
X6571429Y-1391714D01*
X6542857Y-1377429D01*
X6528571Y-1348857D01*
X6528571Y-1334571D01*
X6542857Y-1306000D01*
X6571429Y-1291714D01*
X6614286Y-1291714D01*
X6642857Y-1306000D01*
X6757143Y-1606000D02*
X6771429Y-1591714D01*
X6800000Y-1548857D01*
X6814286Y-1520286D01*
X6828571Y-1477429D01*
X6842857Y-1406000D01*
X6842857Y-1348857D01*
X6828571Y-1277429D01*
X6814286Y-1234571D01*
X6800000Y-1206000D01*
X6771429Y-1163143D01*
X6757143Y-1148857D01*
X-60000Y-1692000D02*
X-60000Y-1812000D01*
X-120000Y-1752000D02*
X0Y-1752000D01*
X428571Y-1887714D02*
X257143Y-1887714D01*
X342857Y-1887714D02*
X342857Y-1587714D01*
X314286Y-1630571D01*
X285714Y-1659143D01*
X257143Y-1673429D01*
X557143Y-1859143D02*
X571429Y-1873429D01*
X557143Y-1887714D01*
X542857Y-1873429D01*
X557143Y-1859143D01*
X557143Y-1887714D01*
X685714Y-1616286D02*
X700000Y-1602000D01*
X728571Y-1587714D01*
X800000Y-1587714D01*
X828571Y-1602000D01*
X842857Y-1616286D01*
X857143Y-1644857D01*
X857143Y-1673429D01*
X842857Y-1716286D01*
X671429Y-1887714D01*
X857143Y-1887714D01*
X1042857Y-1587714D02*
X1071429Y-1587714D01*
X1100000Y-1602000D01*
X1114286Y-1616286D01*
X1128571Y-1644857D01*
X1142857Y-1702000D01*
X1142857Y-1773429D01*
X1128571Y-1830571D01*
X1114286Y-1859143D01*
X1100000Y-1873429D01*
X1071429Y-1887714D01*
X1042857Y-1887714D01*
X1014286Y-1873429D01*
X1000000Y-1859143D01*
X985714Y-1830571D01*
X971429Y-1773429D01*
X971429Y-1702000D01*
X985714Y-1644857D01*
X1000000Y-1616286D01*
X1014286Y-1602000D01*
X1042857Y-1587714D01*
X1271429Y-1887714D02*
X1271429Y-1687714D01*
X1271429Y-1716286D02*
X1285714Y-1702000D01*
X1314286Y-1687714D01*
X1357143Y-1687714D01*
X1385714Y-1702000D01*
X1400000Y-1730571D01*
X1400000Y-1887714D01*
X1400000Y-1730571D02*
X1414286Y-1702000D01*
X1442857Y-1687714D01*
X1485714Y-1687714D01*
X1514286Y-1702000D01*
X1528571Y-1730571D01*
X1528571Y-1887714D01*
X1671429Y-1887714D02*
X1671429Y-1687714D01*
X1671429Y-1716286D02*
X1685714Y-1702000D01*
X1714286Y-1687714D01*
X1757143Y-1687714D01*
X1785714Y-1702000D01*
X1800000Y-1730571D01*
X1800000Y-1887714D01*
X1800000Y-1730571D02*
X1814286Y-1702000D01*
X1842857Y-1687714D01*
X1885714Y-1687714D01*
X1914286Y-1702000D01*
X1928571Y-1730571D01*
X1928571Y-1887714D01*
X2514286Y-1573429D02*
X2257143Y-1959143D01*
X2900000Y-1587714D02*
X2928571Y-1587714D01*
X2957143Y-1602000D01*
X2971428Y-1616286D01*
X2985714Y-1644857D01*
X3000000Y-1702000D01*
X3000000Y-1773429D01*
X2985714Y-1830571D01*
X2971428Y-1859143D01*
X2957143Y-1873429D01*
X2928571Y-1887714D01*
X2900000Y-1887714D01*
X2871428Y-1873429D01*
X2857143Y-1859143D01*
X2842857Y-1830571D01*
X2828571Y-1773429D01*
X2828571Y-1702000D01*
X2842857Y-1644857D01*
X2857143Y-1616286D01*
X2871428Y-1602000D01*
X2900000Y-1587714D01*
X3128571Y-1859143D02*
X3142857Y-1873429D01*
X3128571Y-1887714D01*
X3114286Y-1873429D01*
X3128571Y-1859143D01*
X3128571Y-1887714D01*
X3328571Y-1587714D02*
X3357143Y-1587714D01*
X3385714Y-1602000D01*
X3400000Y-1616286D01*
X3414286Y-1644857D01*
X3428571Y-1702000D01*
X3428571Y-1773429D01*
X3414286Y-1830571D01*
X3400000Y-1859143D01*
X3385714Y-1873429D01*
X3357143Y-1887714D01*
X3328571Y-1887714D01*
X3300000Y-1873429D01*
X3285714Y-1859143D01*
X3271428Y-1830571D01*
X3257143Y-1773429D01*
X3257143Y-1702000D01*
X3271428Y-1644857D01*
X3285714Y-1616286D01*
X3300000Y-1602000D01*
X3328571Y-1587714D01*
X3685714Y-1687714D02*
X3685714Y-1887714D01*
X3614286Y-1573429D02*
X3542857Y-1787714D01*
X3728571Y-1787714D01*
X3814286Y-1587714D02*
X4014286Y-1587714D01*
X3885714Y-1887714D01*
X4114286Y-1587714D02*
X4114286Y-1644857D01*
X4228571Y-1587714D02*
X4228571Y-1644857D01*
X4671429Y-2002000D02*
X4657143Y-1987714D01*
X4628571Y-1944857D01*
X4614286Y-1916286D01*
X4600000Y-1873429D01*
X4585714Y-1802000D01*
X4585714Y-1744857D01*
X4600000Y-1673429D01*
X4614286Y-1630571D01*
X4628571Y-1602000D01*
X4657143Y-1559143D01*
X4671429Y-1544857D01*
X4757143Y-1587714D02*
X4942857Y-1587714D01*
X4842857Y-1702000D01*
X4885714Y-1702000D01*
X4914286Y-1716286D01*
X4928571Y-1730571D01*
X4942857Y-1759143D01*
X4942857Y-1830571D01*
X4928571Y-1859143D01*
X4914286Y-1873429D01*
X4885714Y-1887714D01*
X4800000Y-1887714D01*
X4771429Y-1873429D01*
X4757143Y-1859143D01*
X5200000Y-1687714D02*
X5200000Y-1887714D01*
X5128571Y-1573429D02*
X5057143Y-1787714D01*
X5242857Y-1787714D01*
X5585714Y-1887714D02*
X5585714Y-1587714D01*
X5714286Y-1887714D02*
X5714286Y-1730571D01*
X5700000Y-1702000D01*
X5671428Y-1687714D01*
X5628571Y-1687714D01*
X5600000Y-1702000D01*
X5585714Y-1716286D01*
X5900000Y-1887714D02*
X5871428Y-1873429D01*
X5857143Y-1859143D01*
X5842857Y-1830571D01*
X5842857Y-1744857D01*
X5857143Y-1716286D01*
X5871428Y-1702000D01*
X5900000Y-1687714D01*
X5942857Y-1687714D01*
X5971428Y-1702000D01*
X5985714Y-1716286D01*
X6000000Y-1744857D01*
X6000000Y-1830571D01*
X5985714Y-1859143D01*
X5971428Y-1873429D01*
X5942857Y-1887714D01*
X5900000Y-1887714D01*
X6171428Y-1887714D02*
X6142857Y-1873429D01*
X6128571Y-1844857D01*
X6128571Y-1587714D01*
X6400000Y-1873429D02*
X6371429Y-1887714D01*
X6314286Y-1887714D01*
X6285714Y-1873429D01*
X6271429Y-1844857D01*
X6271429Y-1730571D01*
X6285714Y-1702000D01*
X6314286Y-1687714D01*
X6371429Y-1687714D01*
X6400000Y-1702000D01*
X6414286Y-1730571D01*
X6414286Y-1759143D01*
X6271429Y-1787714D01*
X6528571Y-1873429D02*
X6557143Y-1887714D01*
X6614286Y-1887714D01*
X6642857Y-1873429D01*
X6657143Y-1844857D01*
X6657143Y-1830571D01*
X6642857Y-1802000D01*
X6614286Y-1787714D01*
X6571429Y-1787714D01*
X6542857Y-1773429D01*
X6528571Y-1744857D01*
X6528571Y-1730571D01*
X6542857Y-1702000D01*
X6571429Y-1687714D01*
X6614286Y-1687714D01*
X6642857Y-1702000D01*
X6757143Y-2002000D02*
X6771429Y-1987714D01*
X6800000Y-1944857D01*
X6814286Y-1916286D01*
X6828571Y-1873429D01*
X6842857Y-1802000D01*
X6842857Y-1744857D01*
X6828571Y-1673429D01*
X6814286Y-1630571D01*
X6800000Y-1602000D01*
X6771429Y-1559143D01*
X6757143Y-1544857D01*
X-19331Y-2194670D02*
X-19331Y-2101331D01*
X-112669Y-2101331D01*
X-112669Y-2194670D01*
X-19331Y-2194670D01*
X428571Y-2283714D02*
X257143Y-2283714D01*
X342857Y-2283714D02*
X342857Y-1983714D01*
X314286Y-2026571D01*
X285714Y-2055143D01*
X257143Y-2069429D01*
X557143Y-2255143D02*
X571429Y-2269429D01*
X557143Y-2283714D01*
X542857Y-2269429D01*
X557143Y-2255143D01*
X557143Y-2283714D01*
X671429Y-1983714D02*
X857143Y-1983714D01*
X757143Y-2098000D01*
X800000Y-2098000D01*
X828571Y-2112286D01*
X842857Y-2126571D01*
X857143Y-2155143D01*
X857143Y-2226571D01*
X842857Y-2255143D01*
X828571Y-2269429D01*
X800000Y-2283714D01*
X714286Y-2283714D01*
X685714Y-2269429D01*
X671429Y-2255143D01*
X971429Y-2012286D02*
X985714Y-1998000D01*
X1014286Y-1983714D01*
X1085714Y-1983714D01*
X1114286Y-1998000D01*
X1128571Y-2012286D01*
X1142857Y-2040857D01*
X1142857Y-2069429D01*
X1128571Y-2112286D01*
X957143Y-2283714D01*
X1142857Y-2283714D01*
X1271429Y-2283714D02*
X1271429Y-2083714D01*
X1271429Y-2112286D02*
X1285714Y-2098000D01*
X1314286Y-2083714D01*
X1357143Y-2083714D01*
X1385714Y-2098000D01*
X1400000Y-2126571D01*
X1400000Y-2283714D01*
X1400000Y-2126571D02*
X1414286Y-2098000D01*
X1442857Y-2083714D01*
X1485714Y-2083714D01*
X1514286Y-2098000D01*
X1528571Y-2126571D01*
X1528571Y-2283714D01*
X1671429Y-2283714D02*
X1671429Y-2083714D01*
X1671429Y-2112286D02*
X1685714Y-2098000D01*
X1714286Y-2083714D01*
X1757143Y-2083714D01*
X1785714Y-2098000D01*
X1800000Y-2126571D01*
X1800000Y-2283714D01*
X1800000Y-2126571D02*
X1814286Y-2098000D01*
X1842857Y-2083714D01*
X1885714Y-2083714D01*
X1914286Y-2098000D01*
X1928571Y-2126571D01*
X1928571Y-2283714D01*
X2514286Y-1969429D02*
X2257143Y-2355143D01*
X2900000Y-1983714D02*
X2928571Y-1983714D01*
X2957143Y-1998000D01*
X2971428Y-2012286D01*
X2985714Y-2040857D01*
X3000000Y-2098000D01*
X3000000Y-2169429D01*
X2985714Y-2226571D01*
X2971428Y-2255143D01*
X2957143Y-2269429D01*
X2928571Y-2283714D01*
X2900000Y-2283714D01*
X2871428Y-2269429D01*
X2857143Y-2255143D01*
X2842857Y-2226571D01*
X2828571Y-2169429D01*
X2828571Y-2098000D01*
X2842857Y-2040857D01*
X2857143Y-2012286D01*
X2871428Y-1998000D01*
X2900000Y-1983714D01*
X3128571Y-2255143D02*
X3142857Y-2269429D01*
X3128571Y-2283714D01*
X3114286Y-2269429D01*
X3128571Y-2255143D01*
X3128571Y-2283714D01*
X3328571Y-1983714D02*
X3357143Y-1983714D01*
X3385714Y-1998000D01*
X3400000Y-2012286D01*
X3414286Y-2040857D01*
X3428571Y-2098000D01*
X3428571Y-2169429D01*
X3414286Y-2226571D01*
X3400000Y-2255143D01*
X3385714Y-2269429D01*
X3357143Y-2283714D01*
X3328571Y-2283714D01*
X3300000Y-2269429D01*
X3285714Y-2255143D01*
X3271428Y-2226571D01*
X3257143Y-2169429D01*
X3257143Y-2098000D01*
X3271428Y-2040857D01*
X3285714Y-2012286D01*
X3300000Y-1998000D01*
X3328571Y-1983714D01*
X3700000Y-1983714D02*
X3557143Y-1983714D01*
X3542857Y-2126571D01*
X3557143Y-2112286D01*
X3585714Y-2098000D01*
X3657143Y-2098000D01*
X3685714Y-2112286D01*
X3700000Y-2126571D01*
X3714286Y-2155143D01*
X3714286Y-2226571D01*
X3700000Y-2255143D01*
X3685714Y-2269429D01*
X3657143Y-2283714D01*
X3585714Y-2283714D01*
X3557143Y-2269429D01*
X3542857Y-2255143D01*
X3828571Y-2012286D02*
X3842857Y-1998000D01*
X3871428Y-1983714D01*
X3942857Y-1983714D01*
X3971428Y-1998000D01*
X3985714Y-2012286D01*
X4000000Y-2040857D01*
X4000000Y-2069429D01*
X3985714Y-2112286D01*
X3814286Y-2283714D01*
X4000000Y-2283714D01*
X4114286Y-1983714D02*
X4114286Y-2040857D01*
X4228571Y-1983714D02*
X4228571Y-2040857D01*
X4671429Y-2398000D02*
X4657143Y-2383714D01*
X4628571Y-2340857D01*
X4614286Y-2312286D01*
X4600000Y-2269429D01*
X4585714Y-2198000D01*
X4585714Y-2140857D01*
X4600000Y-2069429D01*
X4614286Y-2026571D01*
X4628571Y-1998000D01*
X4657143Y-1955143D01*
X4671429Y-1940857D01*
X4942857Y-2283714D02*
X4771429Y-2283714D01*
X4857143Y-2283714D02*
X4857143Y-1983714D01*
X4828571Y-2026571D01*
X4800000Y-2055143D01*
X4771429Y-2069429D01*
X5128571Y-1983714D02*
X5157143Y-1983714D01*
X5185714Y-1998000D01*
X5200000Y-2012286D01*
X5214286Y-2040857D01*
X5228571Y-2098000D01*
X5228571Y-2169429D01*
X5214286Y-2226571D01*
X5200000Y-2255143D01*
X5185714Y-2269429D01*
X5157143Y-2283714D01*
X5128571Y-2283714D01*
X5100000Y-2269429D01*
X5085714Y-2255143D01*
X5071429Y-2226571D01*
X5057143Y-2169429D01*
X5057143Y-2098000D01*
X5071429Y-2040857D01*
X5085714Y-2012286D01*
X5100000Y-1998000D01*
X5128571Y-1983714D01*
X5585714Y-2283714D02*
X5585714Y-1983714D01*
X5714286Y-2283714D02*
X5714286Y-2126571D01*
X5700000Y-2098000D01*
X5671428Y-2083714D01*
X5628571Y-2083714D01*
X5600000Y-2098000D01*
X5585714Y-2112286D01*
X5900000Y-2283714D02*
X5871428Y-2269429D01*
X5857143Y-2255143D01*
X5842857Y-2226571D01*
X5842857Y-2140857D01*
X5857143Y-2112286D01*
X5871428Y-2098000D01*
X5900000Y-2083714D01*
X5942857Y-2083714D01*
X5971428Y-2098000D01*
X5985714Y-2112286D01*
X6000000Y-2140857D01*
X6000000Y-2226571D01*
X5985714Y-2255143D01*
X5971428Y-2269429D01*
X5942857Y-2283714D01*
X5900000Y-2283714D01*
X6171428Y-2283714D02*
X6142857Y-2269429D01*
X6128571Y-2240857D01*
X6128571Y-1983714D01*
X6400000Y-2269429D02*
X6371429Y-2283714D01*
X6314286Y-2283714D01*
X6285714Y-2269429D01*
X6271429Y-2240857D01*
X6271429Y-2126571D01*
X6285714Y-2098000D01*
X6314286Y-2083714D01*
X6371429Y-2083714D01*
X6400000Y-2098000D01*
X6414286Y-2126571D01*
X6414286Y-2155143D01*
X6271429Y-2183714D01*
X6528571Y-2269429D02*
X6557143Y-2283714D01*
X6614286Y-2283714D01*
X6642857Y-2269429D01*
X6657143Y-2240857D01*
X6657143Y-2226571D01*
X6642857Y-2198000D01*
X6614286Y-2183714D01*
X6571429Y-2183714D01*
X6542857Y-2169429D01*
X6528571Y-2140857D01*
X6528571Y-2126571D01*
X6542857Y-2098000D01*
X6571429Y-2083714D01*
X6614286Y-2083714D01*
X6642857Y-2098000D01*
X6757143Y-2398000D02*
X6771429Y-2383714D01*
X6800000Y-2340857D01*
X6814286Y-2312286D01*
X6828571Y-2269429D01*
X6842857Y-2198000D01*
X6842857Y-2140857D01*
X6828571Y-2069429D01*
X6814286Y-2026571D01*
X6800000Y-1998000D01*
X6771429Y-1955143D01*
X6757143Y-1940857D01*
X-67500Y-2611500D02*
X0Y-2544000D01*
X-67500Y-2476500D01*
X-135000Y-2544000D01*
X-67500Y-2611500D01*
X428571Y-2679714D02*
X257143Y-2679714D01*
X342857Y-2679714D02*
X342857Y-2379714D01*
X314286Y-2422571D01*
X285714Y-2451143D01*
X257143Y-2465429D01*
X557143Y-2651143D02*
X571429Y-2665429D01*
X557143Y-2679714D01*
X542857Y-2665429D01*
X557143Y-2651143D01*
X557143Y-2679714D01*
X671429Y-2379714D02*
X857143Y-2379714D01*
X757143Y-2494000D01*
X800000Y-2494000D01*
X828571Y-2508286D01*
X842857Y-2522571D01*
X857143Y-2551143D01*
X857143Y-2622571D01*
X842857Y-2651143D01*
X828571Y-2665429D01*
X800000Y-2679714D01*
X714286Y-2679714D01*
X685714Y-2665429D01*
X671429Y-2651143D01*
X1128571Y-2379714D02*
X985714Y-2379714D01*
X971429Y-2522571D01*
X985714Y-2508286D01*
X1014286Y-2494000D01*
X1085714Y-2494000D01*
X1114286Y-2508286D01*
X1128571Y-2522571D01*
X1142857Y-2551143D01*
X1142857Y-2622571D01*
X1128571Y-2651143D01*
X1114286Y-2665429D01*
X1085714Y-2679714D01*
X1014286Y-2679714D01*
X985714Y-2665429D01*
X971429Y-2651143D01*
X1271429Y-2679714D02*
X1271429Y-2479714D01*
X1271429Y-2508286D02*
X1285714Y-2494000D01*
X1314286Y-2479714D01*
X1357143Y-2479714D01*
X1385714Y-2494000D01*
X1400000Y-2522571D01*
X1400000Y-2679714D01*
X1400000Y-2522571D02*
X1414286Y-2494000D01*
X1442857Y-2479714D01*
X1485714Y-2479714D01*
X1514286Y-2494000D01*
X1528571Y-2522571D01*
X1528571Y-2679714D01*
X1671429Y-2679714D02*
X1671429Y-2479714D01*
X1671429Y-2508286D02*
X1685714Y-2494000D01*
X1714286Y-2479714D01*
X1757143Y-2479714D01*
X1785714Y-2494000D01*
X1800000Y-2522571D01*
X1800000Y-2679714D01*
X1800000Y-2522571D02*
X1814286Y-2494000D01*
X1842857Y-2479714D01*
X1885714Y-2479714D01*
X1914286Y-2494000D01*
X1928571Y-2522571D01*
X1928571Y-2679714D01*
X2514286Y-2365429D02*
X2257143Y-2751143D01*
X2900000Y-2379714D02*
X2928571Y-2379714D01*
X2957143Y-2394000D01*
X2971428Y-2408286D01*
X2985714Y-2436857D01*
X3000000Y-2494000D01*
X3000000Y-2565429D01*
X2985714Y-2622571D01*
X2971428Y-2651143D01*
X2957143Y-2665429D01*
X2928571Y-2679714D01*
X2900000Y-2679714D01*
X2871428Y-2665429D01*
X2857143Y-2651143D01*
X2842857Y-2622571D01*
X2828571Y-2565429D01*
X2828571Y-2494000D01*
X2842857Y-2436857D01*
X2857143Y-2408286D01*
X2871428Y-2394000D01*
X2900000Y-2379714D01*
X3128571Y-2651143D02*
X3142857Y-2665429D01*
X3128571Y-2679714D01*
X3114286Y-2665429D01*
X3128571Y-2651143D01*
X3128571Y-2679714D01*
X3328571Y-2379714D02*
X3357143Y-2379714D01*
X3385714Y-2394000D01*
X3400000Y-2408286D01*
X3414286Y-2436857D01*
X3428571Y-2494000D01*
X3428571Y-2565429D01*
X3414286Y-2622571D01*
X3400000Y-2651143D01*
X3385714Y-2665429D01*
X3357143Y-2679714D01*
X3328571Y-2679714D01*
X3300000Y-2665429D01*
X3285714Y-2651143D01*
X3271428Y-2622571D01*
X3257143Y-2565429D01*
X3257143Y-2494000D01*
X3271428Y-2436857D01*
X3285714Y-2408286D01*
X3300000Y-2394000D01*
X3328571Y-2379714D01*
X3700000Y-2379714D02*
X3557143Y-2379714D01*
X3542857Y-2522571D01*
X3557143Y-2508286D01*
X3585714Y-2494000D01*
X3657143Y-2494000D01*
X3685714Y-2508286D01*
X3700000Y-2522571D01*
X3714286Y-2551143D01*
X3714286Y-2622571D01*
X3700000Y-2651143D01*
X3685714Y-2665429D01*
X3657143Y-2679714D01*
X3585714Y-2679714D01*
X3557143Y-2665429D01*
X3542857Y-2651143D01*
X3814286Y-2379714D02*
X4000000Y-2379714D01*
X3900000Y-2494000D01*
X3942857Y-2494000D01*
X3971428Y-2508286D01*
X3985714Y-2522571D01*
X4000000Y-2551143D01*
X4000000Y-2622571D01*
X3985714Y-2651143D01*
X3971428Y-2665429D01*
X3942857Y-2679714D01*
X3857143Y-2679714D01*
X3828571Y-2665429D01*
X3814286Y-2651143D01*
X4114286Y-2379714D02*
X4114286Y-2436857D01*
X4228571Y-2379714D02*
X4228571Y-2436857D01*
X4671429Y-2794000D02*
X4657143Y-2779714D01*
X4628571Y-2736857D01*
X4614286Y-2708286D01*
X4600000Y-2665429D01*
X4585714Y-2594000D01*
X4585714Y-2536857D01*
X4600000Y-2465429D01*
X4614286Y-2422571D01*
X4628571Y-2394000D01*
X4657143Y-2351143D01*
X4671429Y-2336857D01*
X4942857Y-2679714D02*
X4771429Y-2679714D01*
X4857143Y-2679714D02*
X4857143Y-2379714D01*
X4828571Y-2422571D01*
X4800000Y-2451143D01*
X4771429Y-2465429D01*
X5200000Y-2379714D02*
X5142857Y-2379714D01*
X5114286Y-2394000D01*
X5100000Y-2408286D01*
X5071429Y-2451143D01*
X5057143Y-2508286D01*
X5057143Y-2622571D01*
X5071429Y-2651143D01*
X5085714Y-2665429D01*
X5114286Y-2679714D01*
X5171429Y-2679714D01*
X5200000Y-2665429D01*
X5214286Y-2651143D01*
X5228571Y-2622571D01*
X5228571Y-2551143D01*
X5214286Y-2522571D01*
X5200000Y-2508286D01*
X5171429Y-2494000D01*
X5114286Y-2494000D01*
X5085714Y-2508286D01*
X5071429Y-2522571D01*
X5057143Y-2551143D01*
X5585714Y-2679714D02*
X5585714Y-2379714D01*
X5714286Y-2679714D02*
X5714286Y-2522571D01*
X5700000Y-2494000D01*
X5671428Y-2479714D01*
X5628571Y-2479714D01*
X5600000Y-2494000D01*
X5585714Y-2508286D01*
X5900000Y-2679714D02*
X5871428Y-2665429D01*
X5857143Y-2651143D01*
X5842857Y-2622571D01*
X5842857Y-2536857D01*
X5857143Y-2508286D01*
X5871428Y-2494000D01*
X5900000Y-2479714D01*
X5942857Y-2479714D01*
X5971428Y-2494000D01*
X5985714Y-2508286D01*
X6000000Y-2536857D01*
X6000000Y-2622571D01*
X5985714Y-2651143D01*
X5971428Y-2665429D01*
X5942857Y-2679714D01*
X5900000Y-2679714D01*
X6171428Y-2679714D02*
X6142857Y-2665429D01*
X6128571Y-2636857D01*
X6128571Y-2379714D01*
X6400000Y-2665429D02*
X6371429Y-2679714D01*
X6314286Y-2679714D01*
X6285714Y-2665429D01*
X6271429Y-2636857D01*
X6271429Y-2522571D01*
X6285714Y-2494000D01*
X6314286Y-2479714D01*
X6371429Y-2479714D01*
X6400000Y-2494000D01*
X6414286Y-2522571D01*
X6414286Y-2551143D01*
X6271429Y-2579714D01*
X6528571Y-2665429D02*
X6557143Y-2679714D01*
X6614286Y-2679714D01*
X6642857Y-2665429D01*
X6657143Y-2636857D01*
X6657143Y-2622571D01*
X6642857Y-2594000D01*
X6614286Y-2579714D01*
X6571429Y-2579714D01*
X6542857Y-2565429D01*
X6528571Y-2536857D01*
X6528571Y-2522571D01*
X6542857Y-2494000D01*
X6571429Y-2479714D01*
X6614286Y-2479714D01*
X6642857Y-2494000D01*
X6757143Y-2794000D02*
X6771429Y-2779714D01*
X6800000Y-2736857D01*
X6814286Y-2708286D01*
X6828571Y-2665429D01*
X6842857Y-2594000D01*
X6842857Y-2536857D01*
X6828571Y-2465429D01*
X6814286Y-2422571D01*
X6800000Y-2394000D01*
X6771429Y-2351143D01*
X6757143Y-2336857D01*
M02*
