G04 #@! TF.FileFunction,Copper,L2,Bot,Signal*
%FSLAX46Y46*%
G04 Gerber Fmt 4.6, Leading zero omitted, Abs format (unit mm)*
G04 Created by KiCad (PCBNEW 4.0.6) date Thu Apr 29 15:37:00 2021*
%MOMM*%
%LPD*%
G01*
G04 APERTURE LIST*
%ADD10C,0.100000*%
%ADD11R,2.400000X2.400000*%
%ADD12C,2.400000*%
%ADD13C,2.000000*%
%ADD14O,2.400000X2.400000*%
%ADD15C,2.350000*%
%ADD16R,3.960000X1.980000*%
%ADD17O,3.960000X1.980000*%
%ADD18R,0.970000X1.270000*%
%ADD19R,1.800000X1.800000*%
%ADD20O,1.800000X1.800000*%
%ADD21R,2.400000X1.600000*%
%ADD22O,2.400000X1.600000*%
%ADD23C,0.800000*%
%ADD24C,0.600000*%
%ADD25C,0.400000*%
%ADD26C,1.000000*%
%ADD27C,0.254000*%
G04 APERTURE END LIST*
D10*
D11*
X83820000Y-103505000D03*
D12*
X88820000Y-103505000D03*
D11*
X120650000Y-130175000D03*
D12*
X115650000Y-130175000D03*
D13*
X77787500Y-117157500D03*
X77787500Y-112157500D03*
X113030000Y-139700000D03*
X113030000Y-144700000D03*
X94297500Y-117157500D03*
X94297500Y-112157500D03*
X125095000Y-142240000D03*
X125095000Y-147240000D03*
X77470000Y-158750000D03*
X77470000Y-153750000D03*
X90805000Y-137795000D03*
X85805000Y-137795000D03*
D11*
X102235000Y-100330000D03*
D14*
X102235000Y-113030000D03*
D11*
X107950000Y-100330000D03*
D14*
X107950000Y-113030000D03*
D11*
X107950000Y-117475000D03*
D14*
X107950000Y-130175000D03*
D11*
X102235000Y-117475000D03*
D14*
X102235000Y-130175000D03*
D11*
X78740000Y-122555000D03*
D14*
X91440000Y-122555000D03*
D11*
X107950000Y-147320000D03*
D14*
X107950000Y-134620000D03*
D11*
X107950000Y-152400000D03*
D14*
X107950000Y-165100000D03*
D11*
X123825000Y-159385000D03*
D14*
X123825000Y-172085000D03*
D15*
X125730000Y-103425000D03*
X125730000Y-98345000D03*
X125730000Y-113665000D03*
X125730000Y-118745000D03*
X123190000Y-100885000D03*
X128270000Y-100885000D03*
X123190000Y-116205000D03*
X128270000Y-116205000D03*
X115570000Y-103425000D03*
X115570000Y-98345000D03*
X115570000Y-113665000D03*
X115570000Y-118745000D03*
X113030000Y-100885000D03*
X118110000Y-100885000D03*
X113030000Y-116205000D03*
X118110000Y-116205000D03*
D16*
X137795000Y-168275000D03*
D17*
X137795000Y-163275000D03*
D16*
X137795000Y-152400000D03*
D17*
X137795000Y-147400000D03*
X137795000Y-137400000D03*
X137795000Y-142400000D03*
D16*
X137795000Y-113665000D03*
D17*
X137795000Y-108665000D03*
X137795000Y-98665000D03*
X137795000Y-103665000D03*
D18*
X118750000Y-161290000D03*
X117470000Y-161290000D03*
D19*
X118745000Y-164465000D03*
D20*
X116205000Y-164465000D03*
X113665000Y-164465000D03*
D12*
X81280000Y-165100000D03*
D14*
X96520000Y-165100000D03*
D12*
X96520000Y-137795000D03*
D14*
X96520000Y-153035000D03*
D12*
X96520000Y-158750000D03*
D14*
X81280000Y-158750000D03*
D12*
X95250000Y-127635000D03*
D14*
X80010000Y-127635000D03*
D12*
X75565000Y-142240000D03*
D14*
X75565000Y-127000000D03*
D12*
X119380000Y-172085000D03*
D14*
X104140000Y-172085000D03*
D12*
X95250000Y-133350000D03*
D14*
X80010000Y-133350000D03*
D19*
X83502500Y-117157500D03*
D20*
X86042500Y-117157500D03*
X88582500Y-117157500D03*
D19*
X118745000Y-142240000D03*
D20*
X118745000Y-144780000D03*
X118745000Y-147320000D03*
D21*
X83185000Y-142875000D03*
D22*
X90805000Y-150495000D03*
X83185000Y-145415000D03*
X90805000Y-147955000D03*
X83185000Y-147955000D03*
X90805000Y-145415000D03*
X83185000Y-150495000D03*
X90805000Y-142875000D03*
D18*
X110495000Y-172085000D03*
X109215000Y-172085000D03*
D23*
X102235000Y-100330000D02*
X102235000Y-97790000D01*
X83820000Y-97790000D02*
X83820000Y-103505000D01*
X84455000Y-97155000D02*
X83820000Y-97790000D01*
X101600000Y-97155000D02*
X84455000Y-97155000D01*
X102235000Y-97790000D02*
X101600000Y-97155000D01*
X83820000Y-103505000D02*
X81280000Y-103505000D01*
X81280000Y-106045000D02*
X81280000Y-117157500D01*
X81280000Y-103505000D02*
X81280000Y-106045000D01*
X107950000Y-100330000D02*
X102235000Y-100330000D01*
X83820000Y-103505000D02*
X83185000Y-103505000D01*
X78740000Y-122555000D02*
X78740000Y-117157500D01*
X78740000Y-117157500D02*
X78740000Y-117475000D01*
X78740000Y-117475000D02*
X78740000Y-117157500D01*
X83502500Y-117157500D02*
X81280000Y-117157500D01*
X81280000Y-117157500D02*
X78740000Y-117157500D01*
X78740000Y-117157500D02*
X77787500Y-117157500D01*
X125730000Y-128270000D02*
X125730000Y-127000000D01*
X100330000Y-126365000D02*
X99060000Y-127635000D01*
X125095000Y-126365000D02*
X100330000Y-126365000D01*
X125730000Y-127000000D02*
X125095000Y-126365000D01*
X104140000Y-156210000D02*
X104775000Y-156845000D01*
X120650000Y-157480000D02*
X120650000Y-160020000D01*
X120015000Y-156845000D02*
X120650000Y-157480000D01*
X104775000Y-156845000D02*
X120015000Y-156845000D01*
X104140000Y-144145000D02*
X104140000Y-142875000D01*
X104140000Y-142875000D02*
X99060000Y-137795000D01*
X104140000Y-149225000D02*
X104140000Y-144145000D01*
X118745000Y-164465000D02*
X120650000Y-164465000D01*
X120650000Y-164465000D02*
X120650000Y-160020000D01*
X104140000Y-156210000D02*
X104140000Y-153035000D01*
X104140000Y-153035000D02*
X104140000Y-149225000D01*
X125730000Y-128270000D02*
X125730000Y-128905000D01*
X137795000Y-137400000D02*
X125970000Y-137400000D01*
X125730000Y-137160000D02*
X125730000Y-128905000D01*
X125970000Y-137400000D02*
X125730000Y-137160000D01*
X88582500Y-117157500D02*
X94297500Y-117157500D01*
X91440000Y-122555000D02*
X94297500Y-122555000D01*
X94297500Y-122555000D02*
X93980000Y-122555000D01*
X93980000Y-122555000D02*
X94297500Y-122555000D01*
X94297500Y-117157500D02*
X94297500Y-121920000D01*
X94297500Y-121920000D02*
X94297500Y-122555000D01*
X94297500Y-122555000D02*
X94297500Y-126682500D01*
X94297500Y-126682500D02*
X95250000Y-127635000D01*
X99060000Y-128905000D02*
X99060000Y-127635000D01*
X99060000Y-127635000D02*
X98425000Y-127635000D01*
X98425000Y-137795000D02*
X99060000Y-137795000D01*
X99060000Y-137795000D02*
X99060000Y-137160000D01*
D24*
X118750000Y-161290000D02*
X118750000Y-164460000D01*
X118750000Y-164460000D02*
X118745000Y-164465000D01*
D23*
X97155000Y-137795000D02*
X98425000Y-137795000D01*
X98425000Y-127635000D02*
X95250000Y-127635000D01*
X99060000Y-137160000D02*
X99060000Y-128905000D01*
X90805000Y-137795000D02*
X96520000Y-137795000D01*
X96520000Y-137795000D02*
X97155000Y-137795000D01*
X90805000Y-142875000D02*
X90805000Y-137795000D01*
X137795000Y-147400000D02*
X134700000Y-147400000D01*
X118745000Y-147320000D02*
X107950000Y-147320000D01*
X118745000Y-147320000D02*
X125015000Y-147320000D01*
X125015000Y-147320000D02*
X125095000Y-147240000D01*
X135255000Y-147400000D02*
X134700000Y-147400000D01*
X134700000Y-147400000D02*
X125255000Y-147400000D01*
X125255000Y-147400000D02*
X125095000Y-147240000D01*
X77470000Y-158750000D02*
X81280000Y-158750000D01*
X81280000Y-158750000D02*
X81280000Y-165100000D01*
X125730000Y-122555000D02*
X125095000Y-123190000D01*
X102870000Y-123190000D02*
X102235000Y-122555000D01*
X125095000Y-123190000D02*
X102870000Y-123190000D01*
X123190000Y-116205000D02*
X125730000Y-116205000D01*
X128270000Y-116205000D02*
X125730000Y-116205000D01*
X125730000Y-113665000D02*
X125730000Y-116205000D01*
X125730000Y-116205000D02*
X125730000Y-118745000D01*
X102235000Y-117475000D02*
X102235000Y-122555000D01*
X125730000Y-122555000D02*
X125730000Y-118745000D01*
X102235000Y-113030000D02*
X102235000Y-117475000D01*
X115570000Y-118745000D02*
X115570000Y-116205000D01*
X115570000Y-113665000D02*
X115570000Y-116205000D01*
X118110000Y-116205000D02*
X115570000Y-116205000D01*
X115570000Y-116205000D02*
X113030000Y-116205000D01*
X113030000Y-116205000D02*
X107950000Y-116205000D01*
X107950000Y-116205000D02*
X107950000Y-115570000D01*
X107950000Y-113030000D02*
X107950000Y-115570000D01*
X107950000Y-115570000D02*
X107950000Y-117475000D01*
X137795000Y-152400000D02*
X107950000Y-152400000D01*
X107950000Y-165100000D02*
X96520000Y-165100000D01*
X123825000Y-167640000D02*
X123190000Y-168275000D01*
X116205000Y-167640000D02*
X116840000Y-168275000D01*
X116840000Y-168275000D02*
X123190000Y-168275000D01*
X116205000Y-164465000D02*
X116205000Y-167640000D01*
X137795000Y-163275000D02*
X135255000Y-163275000D01*
X123825000Y-163275000D02*
X123825000Y-163830000D01*
X135255000Y-163275000D02*
X123825000Y-163275000D01*
D24*
X117470000Y-161290000D02*
X116205000Y-161290000D01*
X116205000Y-161290000D02*
X116205000Y-164465000D01*
D23*
X123825000Y-167640000D02*
X123825000Y-163830000D01*
X123825000Y-163830000D02*
X123825000Y-159385000D01*
D25*
X110495000Y-172085000D02*
X110495000Y-173995000D01*
X123825000Y-173990000D02*
X123825000Y-172085000D01*
X123190000Y-174625000D02*
X123825000Y-173990000D01*
X111125000Y-174625000D02*
X123190000Y-174625000D01*
X110495000Y-173995000D02*
X111125000Y-174625000D01*
D23*
X126365000Y-171450000D02*
X125730000Y-172085000D01*
X126365000Y-168910000D02*
X127000000Y-168275000D01*
X137795000Y-168275000D02*
X134620000Y-168275000D01*
X135255000Y-168275000D02*
X134620000Y-168275000D01*
X134620000Y-168275000D02*
X127000000Y-168275000D01*
X125730000Y-172085000D02*
X123825000Y-172085000D01*
X126365000Y-168910000D02*
X126365000Y-171450000D01*
X125730000Y-98345000D02*
X125730000Y-100885000D01*
X125730000Y-103425000D02*
X125730000Y-100885000D01*
X125730000Y-100885000D02*
X125730000Y-100965000D01*
X125730000Y-100965000D02*
X125730000Y-100885000D01*
X128270000Y-100885000D02*
X125730000Y-100885000D01*
X125730000Y-100885000D02*
X123190000Y-100885000D01*
X137795000Y-98665000D02*
X130490000Y-98665000D01*
X130490000Y-98665000D02*
X128270000Y-100885000D01*
X133350000Y-113665000D02*
X132715000Y-113665000D01*
X132715000Y-113665000D02*
X127635000Y-108585000D01*
X133985000Y-113665000D02*
X133350000Y-113665000D01*
X115570000Y-103425000D02*
X115570000Y-100885000D01*
X115570000Y-98345000D02*
X115570000Y-100885000D01*
X115570000Y-100885000D02*
X115570000Y-100965000D01*
X115570000Y-100965000D02*
X115570000Y-100885000D01*
X113030000Y-100885000D02*
X115570000Y-100885000D01*
X115570000Y-100885000D02*
X118110000Y-100885000D01*
X137795000Y-113665000D02*
X133985000Y-113665000D01*
X115570000Y-107315000D02*
X115570000Y-103425000D01*
X116840000Y-108585000D02*
X115570000Y-107315000D01*
X127635000Y-108585000D02*
X116840000Y-108585000D01*
D25*
X109215000Y-172085000D02*
X104140000Y-172085000D01*
D23*
X89535000Y-170815000D02*
X89535000Y-171450000D01*
X90170000Y-172085000D02*
X104140000Y-172085000D01*
X89535000Y-171450000D02*
X90170000Y-172085000D01*
X90805000Y-145415000D02*
X100330000Y-145415000D01*
X89535000Y-162560000D02*
X89535000Y-170815000D01*
X90170000Y-161925000D02*
X89535000Y-162560000D01*
X100330000Y-161925000D02*
X90170000Y-161925000D01*
X101600000Y-160655000D02*
X100330000Y-161925000D01*
X101600000Y-146685000D02*
X101600000Y-160655000D01*
X100330000Y-145415000D02*
X101600000Y-146685000D01*
X89535000Y-145415000D02*
X87630000Y-145415000D01*
X86995000Y-141605000D02*
X88265000Y-140335000D01*
X86995000Y-144780000D02*
X86995000Y-141605000D01*
X87630000Y-145415000D02*
X86995000Y-144780000D01*
X89535000Y-133350000D02*
X88900000Y-133350000D01*
X88265000Y-133985000D02*
X88265000Y-140335000D01*
X88900000Y-133350000D02*
X88265000Y-133985000D01*
X90805000Y-133350000D02*
X89535000Y-133350000D01*
X95250000Y-133350000D02*
X90805000Y-133350000D01*
X89535000Y-145415000D02*
X90805000Y-145415000D01*
X113665000Y-170815000D02*
X113665000Y-171450000D01*
X114300000Y-172085000D02*
X119380000Y-172085000D01*
X113665000Y-171450000D02*
X114300000Y-172085000D01*
X113665000Y-170815000D02*
X113665000Y-164465000D01*
X88265000Y-153035000D02*
X81280000Y-153035000D01*
X80010000Y-147955000D02*
X83185000Y-147955000D01*
X79375000Y-148590000D02*
X80010000Y-147955000D01*
X79375000Y-151130000D02*
X79375000Y-148590000D01*
X81280000Y-153035000D02*
X79375000Y-151130000D01*
X96520000Y-158750000D02*
X96520000Y-153035000D01*
X96520000Y-153035000D02*
X88265000Y-153035000D01*
X75565000Y-142240000D02*
X75565000Y-135255000D01*
X77470000Y-133350000D02*
X80010000Y-133350000D01*
X75565000Y-135255000D02*
X77470000Y-133350000D01*
D26*
X75565000Y-144780000D02*
X76200000Y-145415000D01*
X76200000Y-145415000D02*
X76835000Y-145415000D01*
X75565000Y-142240000D02*
X75565000Y-144780000D01*
X76835000Y-145415000D02*
X83185000Y-145415000D01*
D23*
X80010000Y-127635000D02*
X80010000Y-133350000D01*
X109855000Y-144700000D02*
X109775000Y-144700000D01*
X109775000Y-144700000D02*
X107950000Y-142875000D01*
X102235000Y-130175000D02*
X107950000Y-130175000D01*
X115650000Y-130175000D02*
X107950000Y-130175000D01*
X107950000Y-134620000D02*
X107950000Y-130175000D01*
X107950000Y-134620000D02*
X107950000Y-142875000D01*
X109855000Y-144700000D02*
X113030000Y-144700000D01*
X113030000Y-144700000D02*
X118665000Y-144700000D01*
X118665000Y-144700000D02*
X118745000Y-144780000D01*
D27*
G36*
X144589500Y-144653000D02*
X134620000Y-144653000D01*
X134570590Y-144663006D01*
X134528965Y-144691447D01*
X134501685Y-144733841D01*
X134493000Y-144780000D01*
X134493000Y-146365000D01*
X128397000Y-146365000D01*
X128397000Y-144780000D01*
X128386994Y-144730590D01*
X128358553Y-144688965D01*
X128316159Y-144661685D01*
X128270000Y-144653000D01*
X121412000Y-144653000D01*
X121412000Y-143392532D01*
X124122073Y-143392532D01*
X124220736Y-143659387D01*
X124830461Y-143885908D01*
X125480460Y-143861856D01*
X125969264Y-143659387D01*
X126067927Y-143392532D01*
X125095000Y-142419605D01*
X124122073Y-143392532D01*
X121412000Y-143392532D01*
X121412000Y-142875000D01*
X121401994Y-142825590D01*
X121373553Y-142783965D01*
X121331159Y-142756685D01*
X121285000Y-142748000D01*
X120280000Y-142748000D01*
X120280000Y-142525750D01*
X120121250Y-142367000D01*
X118872000Y-142367000D01*
X118872000Y-142387000D01*
X118618000Y-142387000D01*
X118618000Y-142367000D01*
X117368750Y-142367000D01*
X117210000Y-142525750D01*
X117210000Y-142748000D01*
X115697000Y-142748000D01*
X115697000Y-142240000D01*
X115686994Y-142190590D01*
X115658553Y-142148965D01*
X115616159Y-142121685D01*
X115570000Y-142113000D01*
X110617000Y-142113000D01*
X110617000Y-140852532D01*
X112057073Y-140852532D01*
X112155736Y-141119387D01*
X112765461Y-141345908D01*
X113415460Y-141321856D01*
X113676593Y-141213691D01*
X117210000Y-141213691D01*
X117210000Y-141954250D01*
X117368750Y-142113000D01*
X118618000Y-142113000D01*
X118618000Y-140863750D01*
X118872000Y-140863750D01*
X118872000Y-142113000D01*
X120121250Y-142113000D01*
X120258789Y-141975461D01*
X123449092Y-141975461D01*
X123473144Y-142625460D01*
X123675613Y-143114264D01*
X123942468Y-143212927D01*
X124915395Y-142240000D01*
X125274605Y-142240000D01*
X126247532Y-143212927D01*
X126514387Y-143114264D01*
X126638992Y-142778865D01*
X135224782Y-142778865D01*
X135255095Y-142904528D01*
X135566149Y-143459246D01*
X136065807Y-143852703D01*
X136678000Y-144025000D01*
X137668000Y-144025000D01*
X137668000Y-142527000D01*
X137922000Y-142527000D01*
X137922000Y-144025000D01*
X138912000Y-144025000D01*
X139524193Y-143852703D01*
X140023851Y-143459246D01*
X140334905Y-142904528D01*
X140365218Y-142778865D01*
X140245740Y-142527000D01*
X137922000Y-142527000D01*
X137668000Y-142527000D01*
X135344260Y-142527000D01*
X135224782Y-142778865D01*
X126638992Y-142778865D01*
X126740908Y-142504539D01*
X126723021Y-142021135D01*
X135224782Y-142021135D01*
X135344260Y-142273000D01*
X137668000Y-142273000D01*
X137668000Y-140775000D01*
X137922000Y-140775000D01*
X137922000Y-142273000D01*
X140245740Y-142273000D01*
X140365218Y-142021135D01*
X140334905Y-141895472D01*
X140023851Y-141340754D01*
X139524193Y-140947297D01*
X138912000Y-140775000D01*
X137922000Y-140775000D01*
X137668000Y-140775000D01*
X136678000Y-140775000D01*
X136065807Y-140947297D01*
X135566149Y-141340754D01*
X135255095Y-141895472D01*
X135224782Y-142021135D01*
X126723021Y-142021135D01*
X126716856Y-141854540D01*
X126514387Y-141365736D01*
X126247532Y-141267073D01*
X125274605Y-142240000D01*
X124915395Y-142240000D01*
X123942468Y-141267073D01*
X123675613Y-141365736D01*
X123449092Y-141975461D01*
X120258789Y-141975461D01*
X120280000Y-141954250D01*
X120280000Y-141213691D01*
X120227717Y-141087468D01*
X124122073Y-141087468D01*
X125095000Y-142060395D01*
X126067927Y-141087468D01*
X125969264Y-140820613D01*
X125359539Y-140594092D01*
X124709540Y-140618144D01*
X124220736Y-140820613D01*
X124122073Y-141087468D01*
X120227717Y-141087468D01*
X120183327Y-140980302D01*
X120004699Y-140801673D01*
X119771310Y-140705000D01*
X119030750Y-140705000D01*
X118872000Y-140863750D01*
X118618000Y-140863750D01*
X118459250Y-140705000D01*
X117718690Y-140705000D01*
X117485301Y-140801673D01*
X117306673Y-140980302D01*
X117210000Y-141213691D01*
X113676593Y-141213691D01*
X113904264Y-141119387D01*
X114002927Y-140852532D01*
X113030000Y-139879605D01*
X112057073Y-140852532D01*
X110617000Y-140852532D01*
X110617000Y-139435461D01*
X111384092Y-139435461D01*
X111408144Y-140085460D01*
X111610613Y-140574264D01*
X111877468Y-140672927D01*
X112850395Y-139700000D01*
X113209605Y-139700000D01*
X114182532Y-140672927D01*
X114449387Y-140574264D01*
X114675908Y-139964539D01*
X114651856Y-139314540D01*
X114449387Y-138825736D01*
X114182532Y-138727073D01*
X113209605Y-139700000D01*
X112850395Y-139700000D01*
X111877468Y-138727073D01*
X111610613Y-138825736D01*
X111384092Y-139435461D01*
X110617000Y-139435461D01*
X110617000Y-138547468D01*
X112057073Y-138547468D01*
X113030000Y-139520395D01*
X114002927Y-138547468D01*
X113904264Y-138280613D01*
X113294539Y-138054092D01*
X112644540Y-138078144D01*
X112155736Y-138280613D01*
X112057073Y-138547468D01*
X110617000Y-138547468D01*
X110617000Y-134112000D01*
X118110000Y-134112000D01*
X118159410Y-134101994D01*
X118201035Y-134073553D01*
X118228315Y-134031159D01*
X118237000Y-133985000D01*
X118237000Y-130460750D01*
X118815000Y-130460750D01*
X118815000Y-131501310D01*
X118911673Y-131734699D01*
X119090302Y-131913327D01*
X119323691Y-132010000D01*
X120364250Y-132010000D01*
X120523000Y-131851250D01*
X120523000Y-130302000D01*
X120777000Y-130302000D01*
X120777000Y-131851250D01*
X120935750Y-132010000D01*
X121976309Y-132010000D01*
X122209698Y-131913327D01*
X122388327Y-131734699D01*
X122485000Y-131501310D01*
X122485000Y-130460750D01*
X122326250Y-130302000D01*
X120777000Y-130302000D01*
X120523000Y-130302000D01*
X118973750Y-130302000D01*
X118815000Y-130460750D01*
X118237000Y-130460750D01*
X118237000Y-128848690D01*
X118815000Y-128848690D01*
X118815000Y-129889250D01*
X118973750Y-130048000D01*
X120523000Y-130048000D01*
X120523000Y-128498750D01*
X120777000Y-128498750D01*
X120777000Y-130048000D01*
X122326250Y-130048000D01*
X122485000Y-129889250D01*
X122485000Y-128848690D01*
X122388327Y-128615301D01*
X122209698Y-128436673D01*
X121976309Y-128340000D01*
X120935750Y-128340000D01*
X120777000Y-128498750D01*
X120523000Y-128498750D01*
X120364250Y-128340000D01*
X119323691Y-128340000D01*
X119090302Y-128436673D01*
X118911673Y-128615301D01*
X118815000Y-128848690D01*
X118237000Y-128848690D01*
X118237000Y-127762000D01*
X123698000Y-127762000D01*
X123698000Y-138430000D01*
X123708006Y-138479410D01*
X123736447Y-138521035D01*
X123778841Y-138548315D01*
X123825000Y-138557000D01*
X134493000Y-138557000D01*
X134493000Y-139700000D01*
X134503006Y-139749410D01*
X134531447Y-139791035D01*
X134573841Y-139818315D01*
X134620000Y-139827000D01*
X142240000Y-139827000D01*
X142289410Y-139816994D01*
X142331035Y-139788553D01*
X142358315Y-139746159D01*
X142367000Y-139700000D01*
X142367000Y-111125000D01*
X142356994Y-111075590D01*
X142328553Y-111033965D01*
X142286159Y-111006685D01*
X142240000Y-110998000D01*
X132207000Y-110998000D01*
X132207000Y-109043865D01*
X135224782Y-109043865D01*
X135255095Y-109169528D01*
X135566149Y-109724246D01*
X136065807Y-110117703D01*
X136678000Y-110290000D01*
X137668000Y-110290000D01*
X137668000Y-108792000D01*
X137922000Y-108792000D01*
X137922000Y-110290000D01*
X138912000Y-110290000D01*
X139524193Y-110117703D01*
X140023851Y-109724246D01*
X140334905Y-109169528D01*
X140365218Y-109043865D01*
X140245740Y-108792000D01*
X137922000Y-108792000D01*
X137668000Y-108792000D01*
X135344260Y-108792000D01*
X135224782Y-109043865D01*
X132207000Y-109043865D01*
X132207000Y-108286135D01*
X135224782Y-108286135D01*
X135344260Y-108538000D01*
X137668000Y-108538000D01*
X137668000Y-107040000D01*
X137922000Y-107040000D01*
X137922000Y-108538000D01*
X140245740Y-108538000D01*
X140365218Y-108286135D01*
X140334905Y-108160472D01*
X140023851Y-107605754D01*
X139524193Y-107212297D01*
X138912000Y-107040000D01*
X137922000Y-107040000D01*
X137668000Y-107040000D01*
X136678000Y-107040000D01*
X136065807Y-107212297D01*
X135566149Y-107605754D01*
X135255095Y-108160472D01*
X135224782Y-108286135D01*
X132207000Y-108286135D01*
X132207000Y-104043865D01*
X135224782Y-104043865D01*
X135255095Y-104169528D01*
X135566149Y-104724246D01*
X136065807Y-105117703D01*
X136678000Y-105290000D01*
X137668000Y-105290000D01*
X137668000Y-103792000D01*
X137922000Y-103792000D01*
X137922000Y-105290000D01*
X138912000Y-105290000D01*
X139524193Y-105117703D01*
X140023851Y-104724246D01*
X140334905Y-104169528D01*
X140365218Y-104043865D01*
X140245740Y-103792000D01*
X137922000Y-103792000D01*
X137668000Y-103792000D01*
X135344260Y-103792000D01*
X135224782Y-104043865D01*
X132207000Y-104043865D01*
X132207000Y-103286135D01*
X135224782Y-103286135D01*
X135344260Y-103538000D01*
X137668000Y-103538000D01*
X137668000Y-102040000D01*
X137922000Y-102040000D01*
X137922000Y-103538000D01*
X140245740Y-103538000D01*
X140365218Y-103286135D01*
X140334905Y-103160472D01*
X140023851Y-102605754D01*
X139524193Y-102212297D01*
X138912000Y-102040000D01*
X137922000Y-102040000D01*
X137668000Y-102040000D01*
X136678000Y-102040000D01*
X136065807Y-102212297D01*
X135566149Y-102605754D01*
X135255095Y-103160472D01*
X135224782Y-103286135D01*
X132207000Y-103286135D01*
X132207000Y-101092000D01*
X142240000Y-101092000D01*
X142289410Y-101081994D01*
X142331035Y-101053553D01*
X142358315Y-101011159D01*
X142367000Y-100965000D01*
X142367000Y-95250000D01*
X142356994Y-95200590D01*
X142328553Y-95158965D01*
X142286159Y-95131685D01*
X142240000Y-95123000D01*
X130302000Y-95123000D01*
X130302000Y-92202000D01*
X144589500Y-92202000D01*
X144589500Y-144653000D01*
X144589500Y-144653000D01*
G37*
X144589500Y-144653000D02*
X134620000Y-144653000D01*
X134570590Y-144663006D01*
X134528965Y-144691447D01*
X134501685Y-144733841D01*
X134493000Y-144780000D01*
X134493000Y-146365000D01*
X128397000Y-146365000D01*
X128397000Y-144780000D01*
X128386994Y-144730590D01*
X128358553Y-144688965D01*
X128316159Y-144661685D01*
X128270000Y-144653000D01*
X121412000Y-144653000D01*
X121412000Y-143392532D01*
X124122073Y-143392532D01*
X124220736Y-143659387D01*
X124830461Y-143885908D01*
X125480460Y-143861856D01*
X125969264Y-143659387D01*
X126067927Y-143392532D01*
X125095000Y-142419605D01*
X124122073Y-143392532D01*
X121412000Y-143392532D01*
X121412000Y-142875000D01*
X121401994Y-142825590D01*
X121373553Y-142783965D01*
X121331159Y-142756685D01*
X121285000Y-142748000D01*
X120280000Y-142748000D01*
X120280000Y-142525750D01*
X120121250Y-142367000D01*
X118872000Y-142367000D01*
X118872000Y-142387000D01*
X118618000Y-142387000D01*
X118618000Y-142367000D01*
X117368750Y-142367000D01*
X117210000Y-142525750D01*
X117210000Y-142748000D01*
X115697000Y-142748000D01*
X115697000Y-142240000D01*
X115686994Y-142190590D01*
X115658553Y-142148965D01*
X115616159Y-142121685D01*
X115570000Y-142113000D01*
X110617000Y-142113000D01*
X110617000Y-140852532D01*
X112057073Y-140852532D01*
X112155736Y-141119387D01*
X112765461Y-141345908D01*
X113415460Y-141321856D01*
X113676593Y-141213691D01*
X117210000Y-141213691D01*
X117210000Y-141954250D01*
X117368750Y-142113000D01*
X118618000Y-142113000D01*
X118618000Y-140863750D01*
X118872000Y-140863750D01*
X118872000Y-142113000D01*
X120121250Y-142113000D01*
X120258789Y-141975461D01*
X123449092Y-141975461D01*
X123473144Y-142625460D01*
X123675613Y-143114264D01*
X123942468Y-143212927D01*
X124915395Y-142240000D01*
X125274605Y-142240000D01*
X126247532Y-143212927D01*
X126514387Y-143114264D01*
X126638992Y-142778865D01*
X135224782Y-142778865D01*
X135255095Y-142904528D01*
X135566149Y-143459246D01*
X136065807Y-143852703D01*
X136678000Y-144025000D01*
X137668000Y-144025000D01*
X137668000Y-142527000D01*
X137922000Y-142527000D01*
X137922000Y-144025000D01*
X138912000Y-144025000D01*
X139524193Y-143852703D01*
X140023851Y-143459246D01*
X140334905Y-142904528D01*
X140365218Y-142778865D01*
X140245740Y-142527000D01*
X137922000Y-142527000D01*
X137668000Y-142527000D01*
X135344260Y-142527000D01*
X135224782Y-142778865D01*
X126638992Y-142778865D01*
X126740908Y-142504539D01*
X126723021Y-142021135D01*
X135224782Y-142021135D01*
X135344260Y-142273000D01*
X137668000Y-142273000D01*
X137668000Y-140775000D01*
X137922000Y-140775000D01*
X137922000Y-142273000D01*
X140245740Y-142273000D01*
X140365218Y-142021135D01*
X140334905Y-141895472D01*
X140023851Y-141340754D01*
X139524193Y-140947297D01*
X138912000Y-140775000D01*
X137922000Y-140775000D01*
X137668000Y-140775000D01*
X136678000Y-140775000D01*
X136065807Y-140947297D01*
X135566149Y-141340754D01*
X135255095Y-141895472D01*
X135224782Y-142021135D01*
X126723021Y-142021135D01*
X126716856Y-141854540D01*
X126514387Y-141365736D01*
X126247532Y-141267073D01*
X125274605Y-142240000D01*
X124915395Y-142240000D01*
X123942468Y-141267073D01*
X123675613Y-141365736D01*
X123449092Y-141975461D01*
X120258789Y-141975461D01*
X120280000Y-141954250D01*
X120280000Y-141213691D01*
X120227717Y-141087468D01*
X124122073Y-141087468D01*
X125095000Y-142060395D01*
X126067927Y-141087468D01*
X125969264Y-140820613D01*
X125359539Y-140594092D01*
X124709540Y-140618144D01*
X124220736Y-140820613D01*
X124122073Y-141087468D01*
X120227717Y-141087468D01*
X120183327Y-140980302D01*
X120004699Y-140801673D01*
X119771310Y-140705000D01*
X119030750Y-140705000D01*
X118872000Y-140863750D01*
X118618000Y-140863750D01*
X118459250Y-140705000D01*
X117718690Y-140705000D01*
X117485301Y-140801673D01*
X117306673Y-140980302D01*
X117210000Y-141213691D01*
X113676593Y-141213691D01*
X113904264Y-141119387D01*
X114002927Y-140852532D01*
X113030000Y-139879605D01*
X112057073Y-140852532D01*
X110617000Y-140852532D01*
X110617000Y-139435461D01*
X111384092Y-139435461D01*
X111408144Y-140085460D01*
X111610613Y-140574264D01*
X111877468Y-140672927D01*
X112850395Y-139700000D01*
X113209605Y-139700000D01*
X114182532Y-140672927D01*
X114449387Y-140574264D01*
X114675908Y-139964539D01*
X114651856Y-139314540D01*
X114449387Y-138825736D01*
X114182532Y-138727073D01*
X113209605Y-139700000D01*
X112850395Y-139700000D01*
X111877468Y-138727073D01*
X111610613Y-138825736D01*
X111384092Y-139435461D01*
X110617000Y-139435461D01*
X110617000Y-138547468D01*
X112057073Y-138547468D01*
X113030000Y-139520395D01*
X114002927Y-138547468D01*
X113904264Y-138280613D01*
X113294539Y-138054092D01*
X112644540Y-138078144D01*
X112155736Y-138280613D01*
X112057073Y-138547468D01*
X110617000Y-138547468D01*
X110617000Y-134112000D01*
X118110000Y-134112000D01*
X118159410Y-134101994D01*
X118201035Y-134073553D01*
X118228315Y-134031159D01*
X118237000Y-133985000D01*
X118237000Y-130460750D01*
X118815000Y-130460750D01*
X118815000Y-131501310D01*
X118911673Y-131734699D01*
X119090302Y-131913327D01*
X119323691Y-132010000D01*
X120364250Y-132010000D01*
X120523000Y-131851250D01*
X120523000Y-130302000D01*
X120777000Y-130302000D01*
X120777000Y-131851250D01*
X120935750Y-132010000D01*
X121976309Y-132010000D01*
X122209698Y-131913327D01*
X122388327Y-131734699D01*
X122485000Y-131501310D01*
X122485000Y-130460750D01*
X122326250Y-130302000D01*
X120777000Y-130302000D01*
X120523000Y-130302000D01*
X118973750Y-130302000D01*
X118815000Y-130460750D01*
X118237000Y-130460750D01*
X118237000Y-128848690D01*
X118815000Y-128848690D01*
X118815000Y-129889250D01*
X118973750Y-130048000D01*
X120523000Y-130048000D01*
X120523000Y-128498750D01*
X120777000Y-128498750D01*
X120777000Y-130048000D01*
X122326250Y-130048000D01*
X122485000Y-129889250D01*
X122485000Y-128848690D01*
X122388327Y-128615301D01*
X122209698Y-128436673D01*
X121976309Y-128340000D01*
X120935750Y-128340000D01*
X120777000Y-128498750D01*
X120523000Y-128498750D01*
X120364250Y-128340000D01*
X119323691Y-128340000D01*
X119090302Y-128436673D01*
X118911673Y-128615301D01*
X118815000Y-128848690D01*
X118237000Y-128848690D01*
X118237000Y-127762000D01*
X123698000Y-127762000D01*
X123698000Y-138430000D01*
X123708006Y-138479410D01*
X123736447Y-138521035D01*
X123778841Y-138548315D01*
X123825000Y-138557000D01*
X134493000Y-138557000D01*
X134493000Y-139700000D01*
X134503006Y-139749410D01*
X134531447Y-139791035D01*
X134573841Y-139818315D01*
X134620000Y-139827000D01*
X142240000Y-139827000D01*
X142289410Y-139816994D01*
X142331035Y-139788553D01*
X142358315Y-139746159D01*
X142367000Y-139700000D01*
X142367000Y-111125000D01*
X142356994Y-111075590D01*
X142328553Y-111033965D01*
X142286159Y-111006685D01*
X142240000Y-110998000D01*
X132207000Y-110998000D01*
X132207000Y-109043865D01*
X135224782Y-109043865D01*
X135255095Y-109169528D01*
X135566149Y-109724246D01*
X136065807Y-110117703D01*
X136678000Y-110290000D01*
X137668000Y-110290000D01*
X137668000Y-108792000D01*
X137922000Y-108792000D01*
X137922000Y-110290000D01*
X138912000Y-110290000D01*
X139524193Y-110117703D01*
X140023851Y-109724246D01*
X140334905Y-109169528D01*
X140365218Y-109043865D01*
X140245740Y-108792000D01*
X137922000Y-108792000D01*
X137668000Y-108792000D01*
X135344260Y-108792000D01*
X135224782Y-109043865D01*
X132207000Y-109043865D01*
X132207000Y-108286135D01*
X135224782Y-108286135D01*
X135344260Y-108538000D01*
X137668000Y-108538000D01*
X137668000Y-107040000D01*
X137922000Y-107040000D01*
X137922000Y-108538000D01*
X140245740Y-108538000D01*
X140365218Y-108286135D01*
X140334905Y-108160472D01*
X140023851Y-107605754D01*
X139524193Y-107212297D01*
X138912000Y-107040000D01*
X137922000Y-107040000D01*
X137668000Y-107040000D01*
X136678000Y-107040000D01*
X136065807Y-107212297D01*
X135566149Y-107605754D01*
X135255095Y-108160472D01*
X135224782Y-108286135D01*
X132207000Y-108286135D01*
X132207000Y-104043865D01*
X135224782Y-104043865D01*
X135255095Y-104169528D01*
X135566149Y-104724246D01*
X136065807Y-105117703D01*
X136678000Y-105290000D01*
X137668000Y-105290000D01*
X137668000Y-103792000D01*
X137922000Y-103792000D01*
X137922000Y-105290000D01*
X138912000Y-105290000D01*
X139524193Y-105117703D01*
X140023851Y-104724246D01*
X140334905Y-104169528D01*
X140365218Y-104043865D01*
X140245740Y-103792000D01*
X137922000Y-103792000D01*
X137668000Y-103792000D01*
X135344260Y-103792000D01*
X135224782Y-104043865D01*
X132207000Y-104043865D01*
X132207000Y-103286135D01*
X135224782Y-103286135D01*
X135344260Y-103538000D01*
X137668000Y-103538000D01*
X137668000Y-102040000D01*
X137922000Y-102040000D01*
X137922000Y-103538000D01*
X140245740Y-103538000D01*
X140365218Y-103286135D01*
X140334905Y-103160472D01*
X140023851Y-102605754D01*
X139524193Y-102212297D01*
X138912000Y-102040000D01*
X137922000Y-102040000D01*
X137668000Y-102040000D01*
X136678000Y-102040000D01*
X136065807Y-102212297D01*
X135566149Y-102605754D01*
X135255095Y-103160472D01*
X135224782Y-103286135D01*
X132207000Y-103286135D01*
X132207000Y-101092000D01*
X142240000Y-101092000D01*
X142289410Y-101081994D01*
X142331035Y-101053553D01*
X142358315Y-101011159D01*
X142367000Y-100965000D01*
X142367000Y-95250000D01*
X142356994Y-95200590D01*
X142328553Y-95158965D01*
X142286159Y-95131685D01*
X142240000Y-95123000D01*
X130302000Y-95123000D01*
X130302000Y-92202000D01*
X144589500Y-92202000D01*
X144589500Y-144653000D01*
G36*
X96393000Y-114808000D02*
X86995000Y-114808000D01*
X86945590Y-114818006D01*
X86903965Y-114846447D01*
X86876685Y-114888841D01*
X86868000Y-114935000D01*
X86868000Y-115881269D01*
X86407242Y-115666454D01*
X86169500Y-115786503D01*
X86169500Y-117030500D01*
X86189500Y-117030500D01*
X86189500Y-117284500D01*
X86169500Y-117284500D01*
X86169500Y-117304500D01*
X85915500Y-117304500D01*
X85915500Y-117284500D01*
X85895500Y-117284500D01*
X85895500Y-117030500D01*
X85915500Y-117030500D01*
X85915500Y-115786503D01*
X85677758Y-115666454D01*
X85217000Y-115881269D01*
X85217000Y-113792000D01*
X86360000Y-113792000D01*
X86409410Y-113781994D01*
X86451035Y-113753553D01*
X86478315Y-113711159D01*
X86487000Y-113665000D01*
X86487000Y-113310032D01*
X93324573Y-113310032D01*
X93423236Y-113576887D01*
X94032961Y-113803408D01*
X94682960Y-113779356D01*
X95171764Y-113576887D01*
X95270427Y-113310032D01*
X94297500Y-112337105D01*
X93324573Y-113310032D01*
X86487000Y-113310032D01*
X86487000Y-111892961D01*
X92651592Y-111892961D01*
X92675644Y-112542960D01*
X92878113Y-113031764D01*
X93144968Y-113130427D01*
X94117895Y-112157500D01*
X94477105Y-112157500D01*
X95450032Y-113130427D01*
X95716887Y-113031764D01*
X95943408Y-112422039D01*
X95919356Y-111772040D01*
X95716887Y-111283236D01*
X95450032Y-111184573D01*
X94477105Y-112157500D01*
X94117895Y-112157500D01*
X93144968Y-111184573D01*
X92878113Y-111283236D01*
X92651592Y-111892961D01*
X86487000Y-111892961D01*
X86487000Y-111004968D01*
X93324573Y-111004968D01*
X94297500Y-111977895D01*
X95270427Y-111004968D01*
X95171764Y-110738113D01*
X94562039Y-110511592D01*
X93912040Y-110535644D01*
X93423236Y-110738113D01*
X93324573Y-111004968D01*
X86487000Y-111004968D01*
X86487000Y-104802175D01*
X87702430Y-104802175D01*
X87825565Y-105089788D01*
X88507734Y-105349707D01*
X89237443Y-105328786D01*
X89814435Y-105089788D01*
X89937570Y-104802175D01*
X88820000Y-103684605D01*
X87702430Y-104802175D01*
X86487000Y-104802175D01*
X86487000Y-103192734D01*
X86975293Y-103192734D01*
X86996214Y-103922443D01*
X87235212Y-104499435D01*
X87522825Y-104622570D01*
X88640395Y-103505000D01*
X88999605Y-103505000D01*
X90117175Y-104622570D01*
X90404788Y-104499435D01*
X90664707Y-103817266D01*
X90643786Y-103087557D01*
X90404788Y-102510565D01*
X90117175Y-102387430D01*
X88999605Y-103505000D01*
X88640395Y-103505000D01*
X87522825Y-102387430D01*
X87235212Y-102510565D01*
X86975293Y-103192734D01*
X86487000Y-103192734D01*
X86487000Y-102207825D01*
X87702430Y-102207825D01*
X88820000Y-103325395D01*
X89937570Y-102207825D01*
X89814435Y-101920212D01*
X89132266Y-101660293D01*
X88402557Y-101681214D01*
X87825565Y-101920212D01*
X87702430Y-102207825D01*
X86487000Y-102207825D01*
X86487000Y-99822000D01*
X96393000Y-99822000D01*
X96393000Y-114808000D01*
X96393000Y-114808000D01*
G37*
X96393000Y-114808000D02*
X86995000Y-114808000D01*
X86945590Y-114818006D01*
X86903965Y-114846447D01*
X86876685Y-114888841D01*
X86868000Y-114935000D01*
X86868000Y-115881269D01*
X86407242Y-115666454D01*
X86169500Y-115786503D01*
X86169500Y-117030500D01*
X86189500Y-117030500D01*
X86189500Y-117284500D01*
X86169500Y-117284500D01*
X86169500Y-117304500D01*
X85915500Y-117304500D01*
X85915500Y-117284500D01*
X85895500Y-117284500D01*
X85895500Y-117030500D01*
X85915500Y-117030500D01*
X85915500Y-115786503D01*
X85677758Y-115666454D01*
X85217000Y-115881269D01*
X85217000Y-113792000D01*
X86360000Y-113792000D01*
X86409410Y-113781994D01*
X86451035Y-113753553D01*
X86478315Y-113711159D01*
X86487000Y-113665000D01*
X86487000Y-113310032D01*
X93324573Y-113310032D01*
X93423236Y-113576887D01*
X94032961Y-113803408D01*
X94682960Y-113779356D01*
X95171764Y-113576887D01*
X95270427Y-113310032D01*
X94297500Y-112337105D01*
X93324573Y-113310032D01*
X86487000Y-113310032D01*
X86487000Y-111892961D01*
X92651592Y-111892961D01*
X92675644Y-112542960D01*
X92878113Y-113031764D01*
X93144968Y-113130427D01*
X94117895Y-112157500D01*
X94477105Y-112157500D01*
X95450032Y-113130427D01*
X95716887Y-113031764D01*
X95943408Y-112422039D01*
X95919356Y-111772040D01*
X95716887Y-111283236D01*
X95450032Y-111184573D01*
X94477105Y-112157500D01*
X94117895Y-112157500D01*
X93144968Y-111184573D01*
X92878113Y-111283236D01*
X92651592Y-111892961D01*
X86487000Y-111892961D01*
X86487000Y-111004968D01*
X93324573Y-111004968D01*
X94297500Y-111977895D01*
X95270427Y-111004968D01*
X95171764Y-110738113D01*
X94562039Y-110511592D01*
X93912040Y-110535644D01*
X93423236Y-110738113D01*
X93324573Y-111004968D01*
X86487000Y-111004968D01*
X86487000Y-104802175D01*
X87702430Y-104802175D01*
X87825565Y-105089788D01*
X88507734Y-105349707D01*
X89237443Y-105328786D01*
X89814435Y-105089788D01*
X89937570Y-104802175D01*
X88820000Y-103684605D01*
X87702430Y-104802175D01*
X86487000Y-104802175D01*
X86487000Y-103192734D01*
X86975293Y-103192734D01*
X86996214Y-103922443D01*
X87235212Y-104499435D01*
X87522825Y-104622570D01*
X88640395Y-103505000D01*
X88999605Y-103505000D01*
X90117175Y-104622570D01*
X90404788Y-104499435D01*
X90664707Y-103817266D01*
X90643786Y-103087557D01*
X90404788Y-102510565D01*
X90117175Y-102387430D01*
X88999605Y-103505000D01*
X88640395Y-103505000D01*
X87522825Y-102387430D01*
X87235212Y-102510565D01*
X86975293Y-103192734D01*
X86487000Y-103192734D01*
X86487000Y-102207825D01*
X87702430Y-102207825D01*
X88820000Y-103325395D01*
X89937570Y-102207825D01*
X89814435Y-101920212D01*
X89132266Y-101660293D01*
X88402557Y-101681214D01*
X87825565Y-101920212D01*
X87702430Y-102207825D01*
X86487000Y-102207825D01*
X86487000Y-99822000D01*
X96393000Y-99822000D01*
X96393000Y-114808000D01*
M02*
