G04 #@! TF.FileFunction,Legend,Top*
%FSLAX46Y46*%
G04 Gerber Fmt 4.6, Leading zero omitted, Abs format (unit mm)*
G04 Created by KiCad (PCBNEW 4.0.6) date Thu Apr 29 15:37:00 2021*
%MOMM*%
%LPD*%
G01*
G04 APERTURE LIST*
%ADD10C,0.100000*%
%ADD11C,0.120000*%
%ADD12C,0.150000*%
G04 APERTURE END LIST*
D10*
D11*
X92660000Y-103505000D02*
G75*
G03X92660000Y-103505000I-6340000J0D01*
G01*
X86320000Y-97205000D02*
X86320000Y-109805000D01*
X86360000Y-97205000D02*
X86360000Y-109805000D01*
X86400000Y-97205000D02*
X86400000Y-109805000D01*
X86440000Y-97206000D02*
X86440000Y-109804000D01*
X86480000Y-97207000D02*
X86480000Y-109803000D01*
X86520000Y-97208000D02*
X86520000Y-109802000D01*
X86560000Y-97209000D02*
X86560000Y-109801000D01*
X86600000Y-97211000D02*
X86600000Y-109799000D01*
X86640000Y-97213000D02*
X86640000Y-109797000D01*
X86680000Y-97215000D02*
X86680000Y-109795000D01*
X86720000Y-97217000D02*
X86720000Y-109793000D01*
X86760000Y-97220000D02*
X86760000Y-109790000D01*
X86800000Y-97223000D02*
X86800000Y-109787000D01*
X86840000Y-97226000D02*
X86840000Y-109784000D01*
X86880000Y-97229000D02*
X86880000Y-109781000D01*
X86920000Y-97233000D02*
X86920000Y-109777000D01*
X86960000Y-97237000D02*
X86960000Y-109773000D01*
X87000000Y-97241000D02*
X87000000Y-109769000D01*
X87041000Y-97246000D02*
X87041000Y-109764000D01*
X87081000Y-97250000D02*
X87081000Y-109760000D01*
X87121000Y-97255000D02*
X87121000Y-109755000D01*
X87161000Y-97260000D02*
X87161000Y-109750000D01*
X87201000Y-97266000D02*
X87201000Y-109744000D01*
X87241000Y-97272000D02*
X87241000Y-109738000D01*
X87281000Y-97278000D02*
X87281000Y-109732000D01*
X87321000Y-97284000D02*
X87321000Y-109726000D01*
X87361000Y-97290000D02*
X87361000Y-109720000D01*
X87401000Y-97297000D02*
X87401000Y-109713000D01*
X87441000Y-97304000D02*
X87441000Y-102125000D01*
X87441000Y-104885000D02*
X87441000Y-109706000D01*
X87481000Y-97312000D02*
X87481000Y-102125000D01*
X87481000Y-104885000D02*
X87481000Y-109698000D01*
X87521000Y-97319000D02*
X87521000Y-102125000D01*
X87521000Y-104885000D02*
X87521000Y-109691000D01*
X87561000Y-97327000D02*
X87561000Y-102125000D01*
X87561000Y-104885000D02*
X87561000Y-109683000D01*
X87601000Y-97335000D02*
X87601000Y-102125000D01*
X87601000Y-104885000D02*
X87601000Y-109675000D01*
X87641000Y-97343000D02*
X87641000Y-102125000D01*
X87641000Y-104885000D02*
X87641000Y-109667000D01*
X87681000Y-97352000D02*
X87681000Y-102125000D01*
X87681000Y-104885000D02*
X87681000Y-109658000D01*
X87721000Y-97361000D02*
X87721000Y-102125000D01*
X87721000Y-104885000D02*
X87721000Y-109649000D01*
X87761000Y-97370000D02*
X87761000Y-102125000D01*
X87761000Y-104885000D02*
X87761000Y-109640000D01*
X87801000Y-97380000D02*
X87801000Y-102125000D01*
X87801000Y-104885000D02*
X87801000Y-109630000D01*
X87841000Y-97389000D02*
X87841000Y-102125000D01*
X87841000Y-104885000D02*
X87841000Y-109621000D01*
X87881000Y-97399000D02*
X87881000Y-102125000D01*
X87881000Y-104885000D02*
X87881000Y-109611000D01*
X87921000Y-97410000D02*
X87921000Y-102125000D01*
X87921000Y-104885000D02*
X87921000Y-109600000D01*
X87961000Y-97420000D02*
X87961000Y-102125000D01*
X87961000Y-104885000D02*
X87961000Y-109590000D01*
X88001000Y-97431000D02*
X88001000Y-102125000D01*
X88001000Y-104885000D02*
X88001000Y-109579000D01*
X88041000Y-97442000D02*
X88041000Y-102125000D01*
X88041000Y-104885000D02*
X88041000Y-109568000D01*
X88081000Y-97454000D02*
X88081000Y-102125000D01*
X88081000Y-104885000D02*
X88081000Y-109556000D01*
X88121000Y-97465000D02*
X88121000Y-102125000D01*
X88121000Y-104885000D02*
X88121000Y-109545000D01*
X88161000Y-97477000D02*
X88161000Y-102125000D01*
X88161000Y-104885000D02*
X88161000Y-109533000D01*
X88201000Y-97490000D02*
X88201000Y-102125000D01*
X88201000Y-104885000D02*
X88201000Y-109520000D01*
X88241000Y-97502000D02*
X88241000Y-102125000D01*
X88241000Y-104885000D02*
X88241000Y-109508000D01*
X88281000Y-97515000D02*
X88281000Y-102125000D01*
X88281000Y-104885000D02*
X88281000Y-109495000D01*
X88321000Y-97528000D02*
X88321000Y-102125000D01*
X88321000Y-104885000D02*
X88321000Y-109482000D01*
X88361000Y-97542000D02*
X88361000Y-102125000D01*
X88361000Y-104885000D02*
X88361000Y-109468000D01*
X88401000Y-97555000D02*
X88401000Y-102125000D01*
X88401000Y-104885000D02*
X88401000Y-109455000D01*
X88441000Y-97569000D02*
X88441000Y-102125000D01*
X88441000Y-104885000D02*
X88441000Y-109441000D01*
X88481000Y-97584000D02*
X88481000Y-102125000D01*
X88481000Y-104885000D02*
X88481000Y-109426000D01*
X88521000Y-97598000D02*
X88521000Y-102125000D01*
X88521000Y-104885000D02*
X88521000Y-109412000D01*
X88561000Y-97613000D02*
X88561000Y-102125000D01*
X88561000Y-104885000D02*
X88561000Y-109397000D01*
X88601000Y-97629000D02*
X88601000Y-102125000D01*
X88601000Y-104885000D02*
X88601000Y-109381000D01*
X88641000Y-97644000D02*
X88641000Y-102125000D01*
X88641000Y-104885000D02*
X88641000Y-109366000D01*
X88681000Y-97660000D02*
X88681000Y-102125000D01*
X88681000Y-104885000D02*
X88681000Y-109350000D01*
X88721000Y-97676000D02*
X88721000Y-102125000D01*
X88721000Y-104885000D02*
X88721000Y-109334000D01*
X88761000Y-97693000D02*
X88761000Y-102125000D01*
X88761000Y-104885000D02*
X88761000Y-109317000D01*
X88801000Y-97710000D02*
X88801000Y-102125000D01*
X88801000Y-104885000D02*
X88801000Y-109300000D01*
X88841000Y-97727000D02*
X88841000Y-102125000D01*
X88841000Y-104885000D02*
X88841000Y-109283000D01*
X88881000Y-97744000D02*
X88881000Y-102125000D01*
X88881000Y-104885000D02*
X88881000Y-109266000D01*
X88921000Y-97762000D02*
X88921000Y-102125000D01*
X88921000Y-104885000D02*
X88921000Y-109248000D01*
X88961000Y-97780000D02*
X88961000Y-102125000D01*
X88961000Y-104885000D02*
X88961000Y-109230000D01*
X89001000Y-97799000D02*
X89001000Y-102125000D01*
X89001000Y-104885000D02*
X89001000Y-109211000D01*
X89041000Y-97818000D02*
X89041000Y-102125000D01*
X89041000Y-104885000D02*
X89041000Y-109192000D01*
X89081000Y-97837000D02*
X89081000Y-102125000D01*
X89081000Y-104885000D02*
X89081000Y-109173000D01*
X89121000Y-97856000D02*
X89121000Y-102125000D01*
X89121000Y-104885000D02*
X89121000Y-109154000D01*
X89161000Y-97876000D02*
X89161000Y-102125000D01*
X89161000Y-104885000D02*
X89161000Y-109134000D01*
X89201000Y-97896000D02*
X89201000Y-102125000D01*
X89201000Y-104885000D02*
X89201000Y-109114000D01*
X89241000Y-97917000D02*
X89241000Y-102125000D01*
X89241000Y-104885000D02*
X89241000Y-109093000D01*
X89281000Y-97938000D02*
X89281000Y-102125000D01*
X89281000Y-104885000D02*
X89281000Y-109072000D01*
X89321000Y-97959000D02*
X89321000Y-102125000D01*
X89321000Y-104885000D02*
X89321000Y-109051000D01*
X89361000Y-97981000D02*
X89361000Y-102125000D01*
X89361000Y-104885000D02*
X89361000Y-109029000D01*
X89401000Y-98003000D02*
X89401000Y-102125000D01*
X89401000Y-104885000D02*
X89401000Y-109007000D01*
X89441000Y-98025000D02*
X89441000Y-102125000D01*
X89441000Y-104885000D02*
X89441000Y-108985000D01*
X89481000Y-98048000D02*
X89481000Y-102125000D01*
X89481000Y-104885000D02*
X89481000Y-108962000D01*
X89521000Y-98071000D02*
X89521000Y-102125000D01*
X89521000Y-104885000D02*
X89521000Y-108939000D01*
X89561000Y-98095000D02*
X89561000Y-102125000D01*
X89561000Y-104885000D02*
X89561000Y-108915000D01*
X89601000Y-98119000D02*
X89601000Y-102125000D01*
X89601000Y-104885000D02*
X89601000Y-108891000D01*
X89641000Y-98143000D02*
X89641000Y-102125000D01*
X89641000Y-104885000D02*
X89641000Y-108867000D01*
X89681000Y-98168000D02*
X89681000Y-102125000D01*
X89681000Y-104885000D02*
X89681000Y-108842000D01*
X89721000Y-98193000D02*
X89721000Y-102125000D01*
X89721000Y-104885000D02*
X89721000Y-108817000D01*
X89761000Y-98219000D02*
X89761000Y-102125000D01*
X89761000Y-104885000D02*
X89761000Y-108791000D01*
X89801000Y-98245000D02*
X89801000Y-102125000D01*
X89801000Y-104885000D02*
X89801000Y-108765000D01*
X89841000Y-98271000D02*
X89841000Y-102125000D01*
X89841000Y-104885000D02*
X89841000Y-108739000D01*
X89881000Y-98298000D02*
X89881000Y-102125000D01*
X89881000Y-104885000D02*
X89881000Y-108712000D01*
X89921000Y-98326000D02*
X89921000Y-102125000D01*
X89921000Y-104885000D02*
X89921000Y-108684000D01*
X89961000Y-98354000D02*
X89961000Y-102125000D01*
X89961000Y-104885000D02*
X89961000Y-108656000D01*
X90001000Y-98382000D02*
X90001000Y-102125000D01*
X90001000Y-104885000D02*
X90001000Y-108628000D01*
X90041000Y-98411000D02*
X90041000Y-102125000D01*
X90041000Y-104885000D02*
X90041000Y-108599000D01*
X90081000Y-98440000D02*
X90081000Y-102125000D01*
X90081000Y-104885000D02*
X90081000Y-108570000D01*
X90121000Y-98470000D02*
X90121000Y-102125000D01*
X90121000Y-104885000D02*
X90121000Y-108540000D01*
X90161000Y-98500000D02*
X90161000Y-102125000D01*
X90161000Y-104885000D02*
X90161000Y-108510000D01*
X90201000Y-98530000D02*
X90201000Y-108480000D01*
X90241000Y-98562000D02*
X90241000Y-108448000D01*
X90281000Y-98593000D02*
X90281000Y-108417000D01*
X90321000Y-98626000D02*
X90321000Y-108384000D01*
X90361000Y-98658000D02*
X90361000Y-108352000D01*
X90401000Y-98692000D02*
X90401000Y-108318000D01*
X90441000Y-98726000D02*
X90441000Y-108284000D01*
X90481000Y-98760000D02*
X90481000Y-108250000D01*
X90521000Y-98795000D02*
X90521000Y-108215000D01*
X90561000Y-98831000D02*
X90561000Y-108179000D01*
X90601000Y-98867000D02*
X90601000Y-108143000D01*
X90641000Y-98904000D02*
X90641000Y-108106000D01*
X90681000Y-98942000D02*
X90681000Y-108068000D01*
X90721000Y-98980000D02*
X90721000Y-108030000D01*
X90761000Y-99019000D02*
X90761000Y-107991000D01*
X90801000Y-99058000D02*
X90801000Y-107952000D01*
X90841000Y-99099000D02*
X90841000Y-107911000D01*
X90881000Y-99140000D02*
X90881000Y-107870000D01*
X90921000Y-99182000D02*
X90921000Y-107828000D01*
X90961000Y-99224000D02*
X90961000Y-107786000D01*
X91001000Y-99267000D02*
X91001000Y-107743000D01*
X91041000Y-99312000D02*
X91041000Y-107698000D01*
X91081000Y-99357000D02*
X91081000Y-107653000D01*
X91121000Y-99403000D02*
X91121000Y-107607000D01*
X91161000Y-99449000D02*
X91161000Y-107561000D01*
X91201000Y-99497000D02*
X91201000Y-107513000D01*
X91241000Y-99546000D02*
X91241000Y-107464000D01*
X91281000Y-99596000D02*
X91281000Y-107414000D01*
X91321000Y-99646000D02*
X91321000Y-107364000D01*
X91361000Y-99698000D02*
X91361000Y-107312000D01*
X91401000Y-99751000D02*
X91401000Y-107259000D01*
X91441000Y-99805000D02*
X91441000Y-107205000D01*
X91481000Y-99861000D02*
X91481000Y-107149000D01*
X91521000Y-99917000D02*
X91521000Y-107093000D01*
X91561000Y-99975000D02*
X91561000Y-107035000D01*
X91601000Y-100035000D02*
X91601000Y-106975000D01*
X91641000Y-100096000D02*
X91641000Y-106914000D01*
X91681000Y-100158000D02*
X91681000Y-106852000D01*
X91721000Y-100223000D02*
X91721000Y-106787000D01*
X91761000Y-100288000D02*
X91761000Y-106722000D01*
X91801000Y-100356000D02*
X91801000Y-106654000D01*
X91841000Y-100426000D02*
X91841000Y-106584000D01*
X91881000Y-100498000D02*
X91881000Y-106512000D01*
X91921000Y-100572000D02*
X91921000Y-106438000D01*
X91961000Y-100649000D02*
X91961000Y-106361000D01*
X92001000Y-100728000D02*
X92001000Y-106282000D01*
X92041000Y-100810000D02*
X92041000Y-106200000D01*
X92081000Y-100895000D02*
X92081000Y-106115000D01*
X92121000Y-100984000D02*
X92121000Y-106026000D01*
X92161000Y-101077000D02*
X92161000Y-105933000D01*
X92201000Y-101174000D02*
X92201000Y-105836000D01*
X92241000Y-101275000D02*
X92241000Y-105735000D01*
X92281000Y-101383000D02*
X92281000Y-105627000D01*
X92321000Y-101496000D02*
X92321000Y-105514000D01*
X92361000Y-101617000D02*
X92361000Y-105393000D01*
X92401000Y-101748000D02*
X92401000Y-105262000D01*
X92441000Y-101889000D02*
X92441000Y-105121000D01*
X92481000Y-102045000D02*
X92481000Y-104965000D01*
X92521000Y-102220000D02*
X92521000Y-104790000D01*
X92561000Y-102423000D02*
X92561000Y-104587000D01*
X92601000Y-102674000D02*
X92601000Y-104336000D01*
X92641000Y-103041000D02*
X92641000Y-103969000D01*
X80620000Y-103505000D02*
X82420000Y-103505000D01*
X81520000Y-102605000D02*
X81520000Y-104405000D01*
X124490000Y-130175000D02*
G75*
G03X124490000Y-130175000I-6340000J0D01*
G01*
X118150000Y-136475000D02*
X118150000Y-123875000D01*
X118110000Y-136475000D02*
X118110000Y-123875000D01*
X118070000Y-136475000D02*
X118070000Y-123875000D01*
X118030000Y-136474000D02*
X118030000Y-123876000D01*
X117990000Y-136473000D02*
X117990000Y-123877000D01*
X117950000Y-136472000D02*
X117950000Y-123878000D01*
X117910000Y-136471000D02*
X117910000Y-123879000D01*
X117870000Y-136469000D02*
X117870000Y-123881000D01*
X117830000Y-136467000D02*
X117830000Y-123883000D01*
X117790000Y-136465000D02*
X117790000Y-123885000D01*
X117750000Y-136463000D02*
X117750000Y-123887000D01*
X117710000Y-136460000D02*
X117710000Y-123890000D01*
X117670000Y-136457000D02*
X117670000Y-123893000D01*
X117630000Y-136454000D02*
X117630000Y-123896000D01*
X117590000Y-136451000D02*
X117590000Y-123899000D01*
X117550000Y-136447000D02*
X117550000Y-123903000D01*
X117510000Y-136443000D02*
X117510000Y-123907000D01*
X117470000Y-136439000D02*
X117470000Y-123911000D01*
X117429000Y-136434000D02*
X117429000Y-123916000D01*
X117389000Y-136430000D02*
X117389000Y-123920000D01*
X117349000Y-136425000D02*
X117349000Y-123925000D01*
X117309000Y-136420000D02*
X117309000Y-123930000D01*
X117269000Y-136414000D02*
X117269000Y-123936000D01*
X117229000Y-136408000D02*
X117229000Y-123942000D01*
X117189000Y-136402000D02*
X117189000Y-123948000D01*
X117149000Y-136396000D02*
X117149000Y-123954000D01*
X117109000Y-136390000D02*
X117109000Y-123960000D01*
X117069000Y-136383000D02*
X117069000Y-123967000D01*
X117029000Y-136376000D02*
X117029000Y-131555000D01*
X117029000Y-128795000D02*
X117029000Y-123974000D01*
X116989000Y-136368000D02*
X116989000Y-131555000D01*
X116989000Y-128795000D02*
X116989000Y-123982000D01*
X116949000Y-136361000D02*
X116949000Y-131555000D01*
X116949000Y-128795000D02*
X116949000Y-123989000D01*
X116909000Y-136353000D02*
X116909000Y-131555000D01*
X116909000Y-128795000D02*
X116909000Y-123997000D01*
X116869000Y-136345000D02*
X116869000Y-131555000D01*
X116869000Y-128795000D02*
X116869000Y-124005000D01*
X116829000Y-136337000D02*
X116829000Y-131555000D01*
X116829000Y-128795000D02*
X116829000Y-124013000D01*
X116789000Y-136328000D02*
X116789000Y-131555000D01*
X116789000Y-128795000D02*
X116789000Y-124022000D01*
X116749000Y-136319000D02*
X116749000Y-131555000D01*
X116749000Y-128795000D02*
X116749000Y-124031000D01*
X116709000Y-136310000D02*
X116709000Y-131555000D01*
X116709000Y-128795000D02*
X116709000Y-124040000D01*
X116669000Y-136300000D02*
X116669000Y-131555000D01*
X116669000Y-128795000D02*
X116669000Y-124050000D01*
X116629000Y-136291000D02*
X116629000Y-131555000D01*
X116629000Y-128795000D02*
X116629000Y-124059000D01*
X116589000Y-136281000D02*
X116589000Y-131555000D01*
X116589000Y-128795000D02*
X116589000Y-124069000D01*
X116549000Y-136270000D02*
X116549000Y-131555000D01*
X116549000Y-128795000D02*
X116549000Y-124080000D01*
X116509000Y-136260000D02*
X116509000Y-131555000D01*
X116509000Y-128795000D02*
X116509000Y-124090000D01*
X116469000Y-136249000D02*
X116469000Y-131555000D01*
X116469000Y-128795000D02*
X116469000Y-124101000D01*
X116429000Y-136238000D02*
X116429000Y-131555000D01*
X116429000Y-128795000D02*
X116429000Y-124112000D01*
X116389000Y-136226000D02*
X116389000Y-131555000D01*
X116389000Y-128795000D02*
X116389000Y-124124000D01*
X116349000Y-136215000D02*
X116349000Y-131555000D01*
X116349000Y-128795000D02*
X116349000Y-124135000D01*
X116309000Y-136203000D02*
X116309000Y-131555000D01*
X116309000Y-128795000D02*
X116309000Y-124147000D01*
X116269000Y-136190000D02*
X116269000Y-131555000D01*
X116269000Y-128795000D02*
X116269000Y-124160000D01*
X116229000Y-136178000D02*
X116229000Y-131555000D01*
X116229000Y-128795000D02*
X116229000Y-124172000D01*
X116189000Y-136165000D02*
X116189000Y-131555000D01*
X116189000Y-128795000D02*
X116189000Y-124185000D01*
X116149000Y-136152000D02*
X116149000Y-131555000D01*
X116149000Y-128795000D02*
X116149000Y-124198000D01*
X116109000Y-136138000D02*
X116109000Y-131555000D01*
X116109000Y-128795000D02*
X116109000Y-124212000D01*
X116069000Y-136125000D02*
X116069000Y-131555000D01*
X116069000Y-128795000D02*
X116069000Y-124225000D01*
X116029000Y-136111000D02*
X116029000Y-131555000D01*
X116029000Y-128795000D02*
X116029000Y-124239000D01*
X115989000Y-136096000D02*
X115989000Y-131555000D01*
X115989000Y-128795000D02*
X115989000Y-124254000D01*
X115949000Y-136082000D02*
X115949000Y-131555000D01*
X115949000Y-128795000D02*
X115949000Y-124268000D01*
X115909000Y-136067000D02*
X115909000Y-131555000D01*
X115909000Y-128795000D02*
X115909000Y-124283000D01*
X115869000Y-136051000D02*
X115869000Y-131555000D01*
X115869000Y-128795000D02*
X115869000Y-124299000D01*
X115829000Y-136036000D02*
X115829000Y-131555000D01*
X115829000Y-128795000D02*
X115829000Y-124314000D01*
X115789000Y-136020000D02*
X115789000Y-131555000D01*
X115789000Y-128795000D02*
X115789000Y-124330000D01*
X115749000Y-136004000D02*
X115749000Y-131555000D01*
X115749000Y-128795000D02*
X115749000Y-124346000D01*
X115709000Y-135987000D02*
X115709000Y-131555000D01*
X115709000Y-128795000D02*
X115709000Y-124363000D01*
X115669000Y-135970000D02*
X115669000Y-131555000D01*
X115669000Y-128795000D02*
X115669000Y-124380000D01*
X115629000Y-135953000D02*
X115629000Y-131555000D01*
X115629000Y-128795000D02*
X115629000Y-124397000D01*
X115589000Y-135936000D02*
X115589000Y-131555000D01*
X115589000Y-128795000D02*
X115589000Y-124414000D01*
X115549000Y-135918000D02*
X115549000Y-131555000D01*
X115549000Y-128795000D02*
X115549000Y-124432000D01*
X115509000Y-135900000D02*
X115509000Y-131555000D01*
X115509000Y-128795000D02*
X115509000Y-124450000D01*
X115469000Y-135881000D02*
X115469000Y-131555000D01*
X115469000Y-128795000D02*
X115469000Y-124469000D01*
X115429000Y-135862000D02*
X115429000Y-131555000D01*
X115429000Y-128795000D02*
X115429000Y-124488000D01*
X115389000Y-135843000D02*
X115389000Y-131555000D01*
X115389000Y-128795000D02*
X115389000Y-124507000D01*
X115349000Y-135824000D02*
X115349000Y-131555000D01*
X115349000Y-128795000D02*
X115349000Y-124526000D01*
X115309000Y-135804000D02*
X115309000Y-131555000D01*
X115309000Y-128795000D02*
X115309000Y-124546000D01*
X115269000Y-135784000D02*
X115269000Y-131555000D01*
X115269000Y-128795000D02*
X115269000Y-124566000D01*
X115229000Y-135763000D02*
X115229000Y-131555000D01*
X115229000Y-128795000D02*
X115229000Y-124587000D01*
X115189000Y-135742000D02*
X115189000Y-131555000D01*
X115189000Y-128795000D02*
X115189000Y-124608000D01*
X115149000Y-135721000D02*
X115149000Y-131555000D01*
X115149000Y-128795000D02*
X115149000Y-124629000D01*
X115109000Y-135699000D02*
X115109000Y-131555000D01*
X115109000Y-128795000D02*
X115109000Y-124651000D01*
X115069000Y-135677000D02*
X115069000Y-131555000D01*
X115069000Y-128795000D02*
X115069000Y-124673000D01*
X115029000Y-135655000D02*
X115029000Y-131555000D01*
X115029000Y-128795000D02*
X115029000Y-124695000D01*
X114989000Y-135632000D02*
X114989000Y-131555000D01*
X114989000Y-128795000D02*
X114989000Y-124718000D01*
X114949000Y-135609000D02*
X114949000Y-131555000D01*
X114949000Y-128795000D02*
X114949000Y-124741000D01*
X114909000Y-135585000D02*
X114909000Y-131555000D01*
X114909000Y-128795000D02*
X114909000Y-124765000D01*
X114869000Y-135561000D02*
X114869000Y-131555000D01*
X114869000Y-128795000D02*
X114869000Y-124789000D01*
X114829000Y-135537000D02*
X114829000Y-131555000D01*
X114829000Y-128795000D02*
X114829000Y-124813000D01*
X114789000Y-135512000D02*
X114789000Y-131555000D01*
X114789000Y-128795000D02*
X114789000Y-124838000D01*
X114749000Y-135487000D02*
X114749000Y-131555000D01*
X114749000Y-128795000D02*
X114749000Y-124863000D01*
X114709000Y-135461000D02*
X114709000Y-131555000D01*
X114709000Y-128795000D02*
X114709000Y-124889000D01*
X114669000Y-135435000D02*
X114669000Y-131555000D01*
X114669000Y-128795000D02*
X114669000Y-124915000D01*
X114629000Y-135409000D02*
X114629000Y-131555000D01*
X114629000Y-128795000D02*
X114629000Y-124941000D01*
X114589000Y-135382000D02*
X114589000Y-131555000D01*
X114589000Y-128795000D02*
X114589000Y-124968000D01*
X114549000Y-135354000D02*
X114549000Y-131555000D01*
X114549000Y-128795000D02*
X114549000Y-124996000D01*
X114509000Y-135326000D02*
X114509000Y-131555000D01*
X114509000Y-128795000D02*
X114509000Y-125024000D01*
X114469000Y-135298000D02*
X114469000Y-131555000D01*
X114469000Y-128795000D02*
X114469000Y-125052000D01*
X114429000Y-135269000D02*
X114429000Y-131555000D01*
X114429000Y-128795000D02*
X114429000Y-125081000D01*
X114389000Y-135240000D02*
X114389000Y-131555000D01*
X114389000Y-128795000D02*
X114389000Y-125110000D01*
X114349000Y-135210000D02*
X114349000Y-131555000D01*
X114349000Y-128795000D02*
X114349000Y-125140000D01*
X114309000Y-135180000D02*
X114309000Y-131555000D01*
X114309000Y-128795000D02*
X114309000Y-125170000D01*
X114269000Y-135150000D02*
X114269000Y-125200000D01*
X114229000Y-135118000D02*
X114229000Y-125232000D01*
X114189000Y-135087000D02*
X114189000Y-125263000D01*
X114149000Y-135054000D02*
X114149000Y-125296000D01*
X114109000Y-135022000D02*
X114109000Y-125328000D01*
X114069000Y-134988000D02*
X114069000Y-125362000D01*
X114029000Y-134954000D02*
X114029000Y-125396000D01*
X113989000Y-134920000D02*
X113989000Y-125430000D01*
X113949000Y-134885000D02*
X113949000Y-125465000D01*
X113909000Y-134849000D02*
X113909000Y-125501000D01*
X113869000Y-134813000D02*
X113869000Y-125537000D01*
X113829000Y-134776000D02*
X113829000Y-125574000D01*
X113789000Y-134738000D02*
X113789000Y-125612000D01*
X113749000Y-134700000D02*
X113749000Y-125650000D01*
X113709000Y-134661000D02*
X113709000Y-125689000D01*
X113669000Y-134622000D02*
X113669000Y-125728000D01*
X113629000Y-134581000D02*
X113629000Y-125769000D01*
X113589000Y-134540000D02*
X113589000Y-125810000D01*
X113549000Y-134498000D02*
X113549000Y-125852000D01*
X113509000Y-134456000D02*
X113509000Y-125894000D01*
X113469000Y-134413000D02*
X113469000Y-125937000D01*
X113429000Y-134368000D02*
X113429000Y-125982000D01*
X113389000Y-134323000D02*
X113389000Y-126027000D01*
X113349000Y-134277000D02*
X113349000Y-126073000D01*
X113309000Y-134231000D02*
X113309000Y-126119000D01*
X113269000Y-134183000D02*
X113269000Y-126167000D01*
X113229000Y-134134000D02*
X113229000Y-126216000D01*
X113189000Y-134084000D02*
X113189000Y-126266000D01*
X113149000Y-134034000D02*
X113149000Y-126316000D01*
X113109000Y-133982000D02*
X113109000Y-126368000D01*
X113069000Y-133929000D02*
X113069000Y-126421000D01*
X113029000Y-133875000D02*
X113029000Y-126475000D01*
X112989000Y-133819000D02*
X112989000Y-126531000D01*
X112949000Y-133763000D02*
X112949000Y-126587000D01*
X112909000Y-133705000D02*
X112909000Y-126645000D01*
X112869000Y-133645000D02*
X112869000Y-126705000D01*
X112829000Y-133584000D02*
X112829000Y-126766000D01*
X112789000Y-133522000D02*
X112789000Y-126828000D01*
X112749000Y-133457000D02*
X112749000Y-126893000D01*
X112709000Y-133392000D02*
X112709000Y-126958000D01*
X112669000Y-133324000D02*
X112669000Y-127026000D01*
X112629000Y-133254000D02*
X112629000Y-127096000D01*
X112589000Y-133182000D02*
X112589000Y-127168000D01*
X112549000Y-133108000D02*
X112549000Y-127242000D01*
X112509000Y-133031000D02*
X112509000Y-127319000D01*
X112469000Y-132952000D02*
X112469000Y-127398000D01*
X112429000Y-132870000D02*
X112429000Y-127480000D01*
X112389000Y-132785000D02*
X112389000Y-127565000D01*
X112349000Y-132696000D02*
X112349000Y-127654000D01*
X112309000Y-132603000D02*
X112309000Y-127747000D01*
X112269000Y-132506000D02*
X112269000Y-127844000D01*
X112229000Y-132405000D02*
X112229000Y-127945000D01*
X112189000Y-132297000D02*
X112189000Y-128053000D01*
X112149000Y-132184000D02*
X112149000Y-128166000D01*
X112109000Y-132063000D02*
X112109000Y-128287000D01*
X112069000Y-131932000D02*
X112069000Y-128418000D01*
X112029000Y-131791000D02*
X112029000Y-128559000D01*
X111989000Y-131635000D02*
X111989000Y-128715000D01*
X111949000Y-131460000D02*
X111949000Y-128890000D01*
X111909000Y-131257000D02*
X111909000Y-129093000D01*
X111869000Y-131006000D02*
X111869000Y-129344000D01*
X111829000Y-130639000D02*
X111829000Y-129711000D01*
X123850000Y-130175000D02*
X122050000Y-130175000D01*
X122950000Y-131075000D02*
X122950000Y-129275000D01*
X76477500Y-118467500D02*
X76477500Y-110847500D01*
X79097500Y-118467500D02*
X79097500Y-110847500D01*
X76477500Y-118467500D02*
X79097500Y-118467500D01*
X76477500Y-110847500D02*
X79097500Y-110847500D01*
X114340000Y-138390000D02*
X114340000Y-146010000D01*
X111720000Y-138390000D02*
X111720000Y-146010000D01*
X114340000Y-138390000D02*
X111720000Y-138390000D01*
X114340000Y-146010000D02*
X111720000Y-146010000D01*
X92987500Y-118467500D02*
X92987500Y-110847500D01*
X95607500Y-118467500D02*
X95607500Y-110847500D01*
X92987500Y-118467500D02*
X95607500Y-118467500D01*
X92987500Y-110847500D02*
X95607500Y-110847500D01*
X126405000Y-140930000D02*
X126405000Y-148550000D01*
X123785000Y-140930000D02*
X123785000Y-148550000D01*
X126405000Y-140930000D02*
X123785000Y-140930000D01*
X126405000Y-148550000D02*
X123785000Y-148550000D01*
X76160000Y-160060000D02*
X76160000Y-152440000D01*
X78780000Y-160060000D02*
X78780000Y-152440000D01*
X76160000Y-160060000D02*
X78780000Y-160060000D01*
X76160000Y-152440000D02*
X78780000Y-152440000D01*
X92115000Y-139105000D02*
X84495000Y-139105000D01*
X92115000Y-136485000D02*
X84495000Y-136485000D01*
X92115000Y-139105000D02*
X92115000Y-136485000D01*
X84495000Y-139105000D02*
X84495000Y-136485000D01*
X104095000Y-102820000D02*
X100375000Y-102820000D01*
X100375000Y-102820000D02*
X100375000Y-110540000D01*
X100375000Y-110540000D02*
X104095000Y-110540000D01*
X104095000Y-110540000D02*
X104095000Y-102820000D01*
X102235000Y-101710000D02*
X102235000Y-102820000D01*
X102235000Y-111650000D02*
X102235000Y-110540000D01*
X104095000Y-104020000D02*
X100375000Y-104020000D01*
X109810000Y-102820000D02*
X106090000Y-102820000D01*
X106090000Y-102820000D02*
X106090000Y-110540000D01*
X106090000Y-110540000D02*
X109810000Y-110540000D01*
X109810000Y-110540000D02*
X109810000Y-102820000D01*
X107950000Y-101710000D02*
X107950000Y-102820000D01*
X107950000Y-111650000D02*
X107950000Y-110540000D01*
X109810000Y-104020000D02*
X106090000Y-104020000D01*
X109810000Y-119965000D02*
X106090000Y-119965000D01*
X106090000Y-119965000D02*
X106090000Y-127685000D01*
X106090000Y-127685000D02*
X109810000Y-127685000D01*
X109810000Y-127685000D02*
X109810000Y-119965000D01*
X107950000Y-118855000D02*
X107950000Y-119965000D01*
X107950000Y-128795000D02*
X107950000Y-127685000D01*
X109810000Y-121165000D02*
X106090000Y-121165000D01*
X104095000Y-119965000D02*
X100375000Y-119965000D01*
X100375000Y-119965000D02*
X100375000Y-127685000D01*
X100375000Y-127685000D02*
X104095000Y-127685000D01*
X104095000Y-127685000D02*
X104095000Y-119965000D01*
X102235000Y-118855000D02*
X102235000Y-119965000D01*
X102235000Y-128795000D02*
X102235000Y-127685000D01*
X104095000Y-121165000D02*
X100375000Y-121165000D01*
X81230000Y-120695000D02*
X81230000Y-124415000D01*
X81230000Y-124415000D02*
X88950000Y-124415000D01*
X88950000Y-124415000D02*
X88950000Y-120695000D01*
X88950000Y-120695000D02*
X81230000Y-120695000D01*
X80120000Y-122555000D02*
X81230000Y-122555000D01*
X90060000Y-122555000D02*
X88950000Y-122555000D01*
X82430000Y-120695000D02*
X82430000Y-124415000D01*
X106090000Y-144830000D02*
X109810000Y-144830000D01*
X109810000Y-144830000D02*
X109810000Y-137110000D01*
X109810000Y-137110000D02*
X106090000Y-137110000D01*
X106090000Y-137110000D02*
X106090000Y-144830000D01*
X107950000Y-145940000D02*
X107950000Y-144830000D01*
X107950000Y-136000000D02*
X107950000Y-137110000D01*
X106090000Y-143630000D02*
X109810000Y-143630000D01*
X109810000Y-154890000D02*
X106090000Y-154890000D01*
X106090000Y-154890000D02*
X106090000Y-162610000D01*
X106090000Y-162610000D02*
X109810000Y-162610000D01*
X109810000Y-162610000D02*
X109810000Y-154890000D01*
X107950000Y-153780000D02*
X107950000Y-154890000D01*
X107950000Y-163720000D02*
X107950000Y-162610000D01*
X109810000Y-156090000D02*
X106090000Y-156090000D01*
X125685000Y-161875000D02*
X121965000Y-161875000D01*
X121965000Y-161875000D02*
X121965000Y-169595000D01*
X121965000Y-169595000D02*
X125685000Y-169595000D01*
X125685000Y-169595000D02*
X125685000Y-161875000D01*
X123825000Y-160765000D02*
X123825000Y-161875000D01*
X123825000Y-170705000D02*
X123825000Y-169595000D01*
X125685000Y-163075000D02*
X121965000Y-163075000D01*
X125730000Y-111795000D02*
X125730000Y-105295000D01*
X129160000Y-111885000D02*
X129160000Y-114805000D01*
X129160000Y-121415000D02*
X129160000Y-117605000D01*
X128270000Y-120645000D02*
X128270000Y-117855000D01*
X128270000Y-111885000D02*
X128270000Y-114555000D01*
X122300000Y-121415000D02*
X122300000Y-117605000D01*
X123190000Y-120645000D02*
X123190000Y-117855000D01*
X122300000Y-111885000D02*
X122300000Y-114805000D01*
X123190000Y-111885000D02*
X123190000Y-114555000D01*
X122300000Y-105335000D02*
X122300000Y-102285000D01*
X123190000Y-105335000D02*
X123190000Y-102535000D01*
X128270000Y-105335000D02*
X128270000Y-102535000D01*
X129160000Y-105335000D02*
X129160000Y-102285000D01*
X129160000Y-95675000D02*
X129160000Y-99485000D01*
X128270000Y-96565000D02*
X128270000Y-99235000D01*
X122300000Y-95675000D02*
X122300000Y-99485000D01*
X123190000Y-96565000D02*
X123190000Y-99235000D01*
X122300000Y-95675000D02*
X129160000Y-95675000D01*
X129160000Y-105335000D02*
X128270000Y-105335000D01*
X122300000Y-105335000D02*
X123190000Y-105335000D01*
X122300000Y-121415000D02*
X129160000Y-121415000D01*
X129160000Y-111885000D02*
X128270000Y-111885000D01*
X122300000Y-111885000D02*
X123320000Y-111885000D01*
X128270000Y-102835000D02*
X128270000Y-114515000D01*
X123190000Y-114385000D02*
X123190000Y-102835000D01*
X125730000Y-111885000D02*
X123190000Y-111885000D01*
X123190000Y-120655000D02*
X128270000Y-120655000D01*
X128270000Y-111885000D02*
X125730000Y-111885000D01*
X125730000Y-105335000D02*
X123190000Y-105335000D01*
X123190000Y-96575000D02*
X128270000Y-96575000D01*
X128270000Y-105335000D02*
X125730000Y-105335000D01*
X115570000Y-111795000D02*
X115570000Y-105295000D01*
X119000000Y-111885000D02*
X119000000Y-114805000D01*
X119000000Y-121415000D02*
X119000000Y-117605000D01*
X118110000Y-120645000D02*
X118110000Y-117855000D01*
X118110000Y-111885000D02*
X118110000Y-114555000D01*
X112140000Y-121415000D02*
X112140000Y-117605000D01*
X113030000Y-120645000D02*
X113030000Y-117855000D01*
X112140000Y-111885000D02*
X112140000Y-114805000D01*
X113030000Y-111885000D02*
X113030000Y-114555000D01*
X112140000Y-105335000D02*
X112140000Y-102285000D01*
X113030000Y-105335000D02*
X113030000Y-102535000D01*
X118110000Y-105335000D02*
X118110000Y-102535000D01*
X119000000Y-105335000D02*
X119000000Y-102285000D01*
X119000000Y-95675000D02*
X119000000Y-99485000D01*
X118110000Y-96565000D02*
X118110000Y-99235000D01*
X112140000Y-95675000D02*
X112140000Y-99485000D01*
X113030000Y-96565000D02*
X113030000Y-99235000D01*
X112140000Y-95675000D02*
X119000000Y-95675000D01*
X119000000Y-105335000D02*
X118110000Y-105335000D01*
X112140000Y-105335000D02*
X113030000Y-105335000D01*
X112140000Y-121415000D02*
X119000000Y-121415000D01*
X119000000Y-111885000D02*
X118110000Y-111885000D01*
X112140000Y-111885000D02*
X113160000Y-111885000D01*
X118110000Y-102835000D02*
X118110000Y-114515000D01*
X113030000Y-114385000D02*
X113030000Y-102835000D01*
X115570000Y-111885000D02*
X113030000Y-111885000D01*
X113030000Y-120655000D02*
X118110000Y-120655000D01*
X118110000Y-111885000D02*
X115570000Y-111885000D01*
X115570000Y-105335000D02*
X113030000Y-105335000D01*
X113030000Y-96575000D02*
X118110000Y-96575000D01*
X118110000Y-105335000D02*
X115570000Y-105335000D01*
X131495000Y-170925000D02*
X144095000Y-170925000D01*
X144095000Y-170925000D02*
X144095000Y-160575000D01*
X144095000Y-160575000D02*
X143145000Y-160575000D01*
X143145000Y-160575000D02*
X143395000Y-160075000D01*
X143395000Y-160075000D02*
X141495000Y-160075000D01*
X141495000Y-160075000D02*
X141445000Y-160075000D01*
X141445000Y-160075000D02*
X141695000Y-160575000D01*
X141695000Y-160575000D02*
X136295000Y-160575000D01*
X136295000Y-160575000D02*
X136595000Y-160075000D01*
X136595000Y-160075000D02*
X131495000Y-160075000D01*
X131495000Y-160075000D02*
X131495000Y-170925000D01*
X131495000Y-155050000D02*
X131495000Y-134250000D01*
X131495000Y-134250000D02*
X136545000Y-134250000D01*
X136545000Y-134250000D02*
X136295000Y-134750000D01*
X136295000Y-134750000D02*
X141695000Y-134750000D01*
X141695000Y-134750000D02*
X141395000Y-134200000D01*
X141395000Y-134200000D02*
X143445000Y-134200000D01*
X143445000Y-134200000D02*
X143145000Y-134750000D01*
X143145000Y-134750000D02*
X144095000Y-134750000D01*
X144095000Y-134750000D02*
X144095000Y-155050000D01*
X144095000Y-155050000D02*
X131495000Y-155050000D01*
X131495000Y-116315000D02*
X131495000Y-95515000D01*
X131495000Y-95515000D02*
X136545000Y-95515000D01*
X136545000Y-95515000D02*
X136295000Y-96015000D01*
X136295000Y-96015000D02*
X141695000Y-96015000D01*
X141695000Y-96015000D02*
X141395000Y-95465000D01*
X141395000Y-95465000D02*
X143445000Y-95465000D01*
X143445000Y-95465000D02*
X143145000Y-96015000D01*
X143145000Y-96015000D02*
X144095000Y-96015000D01*
X144095000Y-96015000D02*
X144095000Y-116315000D01*
X144095000Y-116315000D02*
X131495000Y-116315000D01*
X120325000Y-166585000D02*
X112085000Y-166585000D01*
X120325000Y-163095000D02*
X112085000Y-163095000D01*
X120325000Y-166585000D02*
X120325000Y-163095000D01*
X112085000Y-166585000D02*
X112085000Y-163095000D01*
X117805000Y-166585000D02*
X117805000Y-165515000D01*
X117805000Y-163415000D02*
X117805000Y-163095000D01*
X114604000Y-166585000D02*
X114604000Y-165005000D01*
X114604000Y-163925000D02*
X114604000Y-163095000D01*
X83890000Y-163240000D02*
X83890000Y-166960000D01*
X83890000Y-166960000D02*
X93910000Y-166960000D01*
X93910000Y-166960000D02*
X93910000Y-163240000D01*
X93910000Y-163240000D02*
X83890000Y-163240000D01*
X82660000Y-165100000D02*
X83890000Y-165100000D01*
X95140000Y-165100000D02*
X93910000Y-165100000D01*
X98380000Y-140405000D02*
X94660000Y-140405000D01*
X94660000Y-140405000D02*
X94660000Y-150425000D01*
X94660000Y-150425000D02*
X98380000Y-150425000D01*
X98380000Y-150425000D02*
X98380000Y-140405000D01*
X96520000Y-139175000D02*
X96520000Y-140405000D01*
X96520000Y-151655000D02*
X96520000Y-150425000D01*
X93910000Y-160610000D02*
X93910000Y-156890000D01*
X93910000Y-156890000D02*
X83890000Y-156890000D01*
X83890000Y-156890000D02*
X83890000Y-160610000D01*
X83890000Y-160610000D02*
X93910000Y-160610000D01*
X95140000Y-158750000D02*
X93910000Y-158750000D01*
X82660000Y-158750000D02*
X83890000Y-158750000D01*
X92640000Y-129495000D02*
X92640000Y-125775000D01*
X92640000Y-125775000D02*
X82620000Y-125775000D01*
X82620000Y-125775000D02*
X82620000Y-129495000D01*
X82620000Y-129495000D02*
X92640000Y-129495000D01*
X93870000Y-127635000D02*
X92640000Y-127635000D01*
X81390000Y-127635000D02*
X82620000Y-127635000D01*
X73705000Y-139630000D02*
X77425000Y-139630000D01*
X77425000Y-139630000D02*
X77425000Y-129610000D01*
X77425000Y-129610000D02*
X73705000Y-129610000D01*
X73705000Y-129610000D02*
X73705000Y-139630000D01*
X75565000Y-140860000D02*
X75565000Y-139630000D01*
X75565000Y-128380000D02*
X75565000Y-129610000D01*
X116770000Y-173945000D02*
X116770000Y-170225000D01*
X116770000Y-170225000D02*
X106750000Y-170225000D01*
X106750000Y-170225000D02*
X106750000Y-173945000D01*
X106750000Y-173945000D02*
X116770000Y-173945000D01*
X118000000Y-172085000D02*
X116770000Y-172085000D01*
X105520000Y-172085000D02*
X106750000Y-172085000D01*
X92640000Y-135210000D02*
X92640000Y-131490000D01*
X92640000Y-131490000D02*
X82620000Y-131490000D01*
X82620000Y-131490000D02*
X82620000Y-135210000D01*
X82620000Y-135210000D02*
X92640000Y-135210000D01*
X93870000Y-133350000D02*
X92640000Y-133350000D01*
X81390000Y-133350000D02*
X82620000Y-133350000D01*
X80922500Y-114537500D02*
X91162500Y-114537500D01*
X80922500Y-119178500D02*
X91162500Y-119178500D01*
X80922500Y-114537500D02*
X80922500Y-119178500D01*
X91162500Y-114537500D02*
X91162500Y-119178500D01*
X80922500Y-116047500D02*
X91162500Y-116047500D01*
X84192500Y-114537500D02*
X84192500Y-116047500D01*
X87893500Y-114537500D02*
X87893500Y-116047500D01*
X121365000Y-139660000D02*
X121365000Y-149900000D01*
X116724000Y-139660000D02*
X116724000Y-149900000D01*
X121365000Y-139660000D02*
X116724000Y-139660000D01*
X121365000Y-149900000D02*
X116724000Y-149900000D01*
X119855000Y-139660000D02*
X119855000Y-149900000D01*
X121365000Y-142930000D02*
X119855000Y-142930000D01*
X121365000Y-146631000D02*
X119855000Y-146631000D01*
X87995000Y-141485000D02*
G75*
G02X85995000Y-141485000I-1000000J0D01*
G01*
X85995000Y-141485000D02*
X84625000Y-141485000D01*
X84625000Y-141485000D02*
X84625000Y-151885000D01*
X84625000Y-151885000D02*
X89365000Y-151885000D01*
X89365000Y-151885000D02*
X89365000Y-141485000D01*
X89365000Y-141485000D02*
X87995000Y-141485000D01*
X125730000Y-172975000D02*
X128270000Y-172975000D01*
X128270000Y-171195000D02*
X125730000Y-171195000D01*
X128270000Y-171195000D02*
X128270000Y-172975000D01*
X125730000Y-172975000D02*
X125730000Y-171195000D01*
D12*
X81113334Y-96242143D02*
X81065715Y-96289762D01*
X80922858Y-96337381D01*
X80827620Y-96337381D01*
X80684762Y-96289762D01*
X80589524Y-96194524D01*
X80541905Y-96099286D01*
X80494286Y-95908810D01*
X80494286Y-95765952D01*
X80541905Y-95575476D01*
X80589524Y-95480238D01*
X80684762Y-95385000D01*
X80827620Y-95337381D01*
X80922858Y-95337381D01*
X81065715Y-95385000D01*
X81113334Y-95432619D01*
X82065715Y-96337381D02*
X81494286Y-96337381D01*
X81780000Y-96337381D02*
X81780000Y-95337381D01*
X81684762Y-95480238D01*
X81589524Y-95575476D01*
X81494286Y-95623095D01*
X85661905Y-95670714D02*
X85661905Y-96337381D01*
X85423809Y-95289762D02*
X85185714Y-96004048D01*
X85804762Y-96004048D01*
X86090476Y-95337381D02*
X86757143Y-95337381D01*
X86328571Y-96337381D01*
X87328571Y-95337381D02*
X87423810Y-95337381D01*
X87519048Y-95385000D01*
X87566667Y-95432619D01*
X87614286Y-95527857D01*
X87661905Y-95718333D01*
X87661905Y-95956429D01*
X87614286Y-96146905D01*
X87566667Y-96242143D01*
X87519048Y-96289762D01*
X87423810Y-96337381D01*
X87328571Y-96337381D01*
X87233333Y-96289762D01*
X87185714Y-96242143D01*
X87138095Y-96146905D01*
X87090476Y-95956429D01*
X87090476Y-95718333D01*
X87138095Y-95527857D01*
X87185714Y-95432619D01*
X87233333Y-95385000D01*
X87328571Y-95337381D01*
X88090476Y-96337381D02*
X88090476Y-95337381D01*
X88423810Y-96051667D01*
X88757143Y-95337381D01*
X88757143Y-96337381D01*
X89947619Y-95289762D02*
X89090476Y-96575476D01*
X90233333Y-95432619D02*
X90280952Y-95385000D01*
X90376190Y-95337381D01*
X90614286Y-95337381D01*
X90709524Y-95385000D01*
X90757143Y-95432619D01*
X90804762Y-95527857D01*
X90804762Y-95623095D01*
X90757143Y-95765952D01*
X90185714Y-96337381D01*
X90804762Y-96337381D01*
X91709524Y-95337381D02*
X91233333Y-95337381D01*
X91185714Y-95813571D01*
X91233333Y-95765952D01*
X91328571Y-95718333D01*
X91566667Y-95718333D01*
X91661905Y-95765952D01*
X91709524Y-95813571D01*
X91757143Y-95908810D01*
X91757143Y-96146905D01*
X91709524Y-96242143D01*
X91661905Y-96289762D01*
X91566667Y-96337381D01*
X91328571Y-96337381D01*
X91233333Y-96289762D01*
X91185714Y-96242143D01*
X92042857Y-95337381D02*
X92376190Y-96337381D01*
X92709524Y-95337381D01*
X126087143Y-136056666D02*
X126134762Y-136104285D01*
X126182381Y-136247142D01*
X126182381Y-136342380D01*
X126134762Y-136485238D01*
X126039524Y-136580476D01*
X125944286Y-136628095D01*
X125753810Y-136675714D01*
X125610952Y-136675714D01*
X125420476Y-136628095D01*
X125325238Y-136580476D01*
X125230000Y-136485238D01*
X125182381Y-136342380D01*
X125182381Y-136247142D01*
X125230000Y-136104285D01*
X125277619Y-136056666D01*
X125277619Y-135675714D02*
X125230000Y-135628095D01*
X125182381Y-135532857D01*
X125182381Y-135294761D01*
X125230000Y-135199523D01*
X125277619Y-135151904D01*
X125372857Y-135104285D01*
X125468095Y-135104285D01*
X125610952Y-135151904D01*
X126182381Y-135723333D01*
X126182381Y-135104285D01*
X125515714Y-130873095D02*
X126182381Y-130873095D01*
X125134762Y-131111191D02*
X125849048Y-131349286D01*
X125849048Y-130730238D01*
X125182381Y-130444524D02*
X125182381Y-129777857D01*
X126182381Y-130206429D01*
X125182381Y-129206429D02*
X125182381Y-129111190D01*
X125230000Y-129015952D01*
X125277619Y-128968333D01*
X125372857Y-128920714D01*
X125563333Y-128873095D01*
X125801429Y-128873095D01*
X125991905Y-128920714D01*
X126087143Y-128968333D01*
X126134762Y-129015952D01*
X126182381Y-129111190D01*
X126182381Y-129206429D01*
X126134762Y-129301667D01*
X126087143Y-129349286D01*
X125991905Y-129396905D01*
X125801429Y-129444524D01*
X125563333Y-129444524D01*
X125372857Y-129396905D01*
X125277619Y-129349286D01*
X125230000Y-129301667D01*
X125182381Y-129206429D01*
X126182381Y-128444524D02*
X125182381Y-128444524D01*
X125896667Y-128111190D01*
X125182381Y-127777857D01*
X126182381Y-127777857D01*
X125134762Y-126587381D02*
X126420476Y-127444524D01*
X125277619Y-126301667D02*
X125230000Y-126254048D01*
X125182381Y-126158810D01*
X125182381Y-125920714D01*
X125230000Y-125825476D01*
X125277619Y-125777857D01*
X125372857Y-125730238D01*
X125468095Y-125730238D01*
X125610952Y-125777857D01*
X126182381Y-126349286D01*
X126182381Y-125730238D01*
X125182381Y-124825476D02*
X125182381Y-125301667D01*
X125658571Y-125349286D01*
X125610952Y-125301667D01*
X125563333Y-125206429D01*
X125563333Y-124968333D01*
X125610952Y-124873095D01*
X125658571Y-124825476D01*
X125753810Y-124777857D01*
X125991905Y-124777857D01*
X126087143Y-124825476D01*
X126134762Y-124873095D01*
X126182381Y-124968333D01*
X126182381Y-125206429D01*
X126134762Y-125301667D01*
X126087143Y-125349286D01*
X125182381Y-124492143D02*
X126182381Y-124158810D01*
X125182381Y-123825476D01*
X75287143Y-117641666D02*
X75334762Y-117689285D01*
X75382381Y-117832142D01*
X75382381Y-117927380D01*
X75334762Y-118070238D01*
X75239524Y-118165476D01*
X75144286Y-118213095D01*
X74953810Y-118260714D01*
X74810952Y-118260714D01*
X74620476Y-118213095D01*
X74525238Y-118165476D01*
X74430000Y-118070238D01*
X74382381Y-117927380D01*
X74382381Y-117832142D01*
X74430000Y-117689285D01*
X74477619Y-117641666D01*
X74382381Y-117308333D02*
X74382381Y-116689285D01*
X74763333Y-117022619D01*
X74763333Y-116879761D01*
X74810952Y-116784523D01*
X74858571Y-116736904D01*
X74953810Y-116689285D01*
X75191905Y-116689285D01*
X75287143Y-116736904D01*
X75334762Y-116784523D01*
X75382381Y-116879761D01*
X75382381Y-117165476D01*
X75334762Y-117260714D01*
X75287143Y-117308333D01*
X75382381Y-113514047D02*
X75382381Y-114085476D01*
X75382381Y-113799762D02*
X74382381Y-113799762D01*
X74525238Y-113895000D01*
X74620476Y-113990238D01*
X74668095Y-114085476D01*
X74382381Y-112895000D02*
X74382381Y-112799761D01*
X74430000Y-112704523D01*
X74477619Y-112656904D01*
X74572857Y-112609285D01*
X74763333Y-112561666D01*
X75001429Y-112561666D01*
X75191905Y-112609285D01*
X75287143Y-112656904D01*
X75334762Y-112704523D01*
X75382381Y-112799761D01*
X75382381Y-112895000D01*
X75334762Y-112990238D01*
X75287143Y-113037857D01*
X75191905Y-113085476D01*
X75001429Y-113133095D01*
X74763333Y-113133095D01*
X74572857Y-113085476D01*
X74477619Y-113037857D01*
X74430000Y-112990238D01*
X74382381Y-112895000D01*
X74382381Y-111942619D02*
X74382381Y-111847380D01*
X74430000Y-111752142D01*
X74477619Y-111704523D01*
X74572857Y-111656904D01*
X74763333Y-111609285D01*
X75001429Y-111609285D01*
X75191905Y-111656904D01*
X75287143Y-111704523D01*
X75334762Y-111752142D01*
X75382381Y-111847380D01*
X75382381Y-111942619D01*
X75334762Y-112037857D01*
X75287143Y-112085476D01*
X75191905Y-112133095D01*
X75001429Y-112180714D01*
X74763333Y-112180714D01*
X74572857Y-112133095D01*
X74477619Y-112085476D01*
X74430000Y-112037857D01*
X74382381Y-111942619D01*
X74715714Y-111180714D02*
X75382381Y-111180714D01*
X74810952Y-111180714D02*
X74763333Y-111133095D01*
X74715714Y-111037857D01*
X74715714Y-110894999D01*
X74763333Y-110799761D01*
X74858571Y-110752142D01*
X75382381Y-110752142D01*
X112117143Y-147486666D02*
X112164762Y-147534285D01*
X112212381Y-147677142D01*
X112212381Y-147772380D01*
X112164762Y-147915238D01*
X112069524Y-148010476D01*
X111974286Y-148058095D01*
X111783810Y-148105714D01*
X111640952Y-148105714D01*
X111450476Y-148058095D01*
X111355238Y-148010476D01*
X111260000Y-147915238D01*
X111212381Y-147772380D01*
X111212381Y-147677142D01*
X111260000Y-147534285D01*
X111307619Y-147486666D01*
X111545714Y-146629523D02*
X112212381Y-146629523D01*
X111164762Y-146867619D02*
X111879048Y-147105714D01*
X111879048Y-146486666D01*
X116022381Y-140819047D02*
X116022381Y-141390476D01*
X116022381Y-141104762D02*
X115022381Y-141104762D01*
X115165238Y-141200000D01*
X115260476Y-141295238D01*
X115308095Y-141390476D01*
X115022381Y-140200000D02*
X115022381Y-140104761D01*
X115070000Y-140009523D01*
X115117619Y-139961904D01*
X115212857Y-139914285D01*
X115403333Y-139866666D01*
X115641429Y-139866666D01*
X115831905Y-139914285D01*
X115927143Y-139961904D01*
X115974762Y-140009523D01*
X116022381Y-140104761D01*
X116022381Y-140200000D01*
X115974762Y-140295238D01*
X115927143Y-140342857D01*
X115831905Y-140390476D01*
X115641429Y-140438095D01*
X115403333Y-140438095D01*
X115212857Y-140390476D01*
X115117619Y-140342857D01*
X115070000Y-140295238D01*
X115022381Y-140200000D01*
X115022381Y-139247619D02*
X115022381Y-139152380D01*
X115070000Y-139057142D01*
X115117619Y-139009523D01*
X115212857Y-138961904D01*
X115403333Y-138914285D01*
X115641429Y-138914285D01*
X115831905Y-138961904D01*
X115927143Y-139009523D01*
X115974762Y-139057142D01*
X116022381Y-139152380D01*
X116022381Y-139247619D01*
X115974762Y-139342857D01*
X115927143Y-139390476D01*
X115831905Y-139438095D01*
X115641429Y-139485714D01*
X115403333Y-139485714D01*
X115212857Y-139438095D01*
X115117619Y-139390476D01*
X115070000Y-139342857D01*
X115022381Y-139247619D01*
X115355714Y-138485714D02*
X116022381Y-138485714D01*
X115450952Y-138485714D02*
X115403333Y-138438095D01*
X115355714Y-138342857D01*
X115355714Y-138199999D01*
X115403333Y-138104761D01*
X115498571Y-138057142D01*
X116022381Y-138057142D01*
X97512143Y-117641666D02*
X97559762Y-117689285D01*
X97607381Y-117832142D01*
X97607381Y-117927380D01*
X97559762Y-118070238D01*
X97464524Y-118165476D01*
X97369286Y-118213095D01*
X97178810Y-118260714D01*
X97035952Y-118260714D01*
X96845476Y-118213095D01*
X96750238Y-118165476D01*
X96655000Y-118070238D01*
X96607381Y-117927380D01*
X96607381Y-117832142D01*
X96655000Y-117689285D01*
X96702619Y-117641666D01*
X96607381Y-116736904D02*
X96607381Y-117213095D01*
X97083571Y-117260714D01*
X97035952Y-117213095D01*
X96988333Y-117117857D01*
X96988333Y-116879761D01*
X97035952Y-116784523D01*
X97083571Y-116736904D01*
X97178810Y-116689285D01*
X97416905Y-116689285D01*
X97512143Y-116736904D01*
X97559762Y-116784523D01*
X97607381Y-116879761D01*
X97607381Y-117117857D01*
X97559762Y-117213095D01*
X97512143Y-117260714D01*
X97607381Y-112045714D02*
X97607381Y-112617143D01*
X97607381Y-112331429D02*
X96607381Y-112331429D01*
X96750238Y-112426667D01*
X96845476Y-112521905D01*
X96893095Y-112617143D01*
X97607381Y-111617143D02*
X96607381Y-111617143D01*
X97321667Y-111283809D01*
X96607381Y-110950476D01*
X97607381Y-110950476D01*
X122912143Y-148756666D02*
X122959762Y-148804285D01*
X123007381Y-148947142D01*
X123007381Y-149042380D01*
X122959762Y-149185238D01*
X122864524Y-149280476D01*
X122769286Y-149328095D01*
X122578810Y-149375714D01*
X122435952Y-149375714D01*
X122245476Y-149328095D01*
X122150238Y-149280476D01*
X122055000Y-149185238D01*
X122007381Y-149042380D01*
X122007381Y-148947142D01*
X122055000Y-148804285D01*
X122102619Y-148756666D01*
X122007381Y-147899523D02*
X122007381Y-148090000D01*
X122055000Y-148185238D01*
X122102619Y-148232857D01*
X122245476Y-148328095D01*
X122435952Y-148375714D01*
X122816905Y-148375714D01*
X122912143Y-148328095D01*
X122959762Y-148280476D01*
X123007381Y-148185238D01*
X123007381Y-147994761D01*
X122959762Y-147899523D01*
X122912143Y-147851904D01*
X122816905Y-147804285D01*
X122578810Y-147804285D01*
X122483571Y-147851904D01*
X122435952Y-147899523D01*
X122388333Y-147994761D01*
X122388333Y-148185238D01*
X122435952Y-148280476D01*
X122483571Y-148328095D01*
X122578810Y-148375714D01*
X128087381Y-141890714D02*
X128087381Y-142462143D01*
X128087381Y-142176429D02*
X127087381Y-142176429D01*
X127230238Y-142271667D01*
X127325476Y-142366905D01*
X127373095Y-142462143D01*
X128087381Y-141462143D02*
X127087381Y-141462143D01*
X127801667Y-141128809D01*
X127087381Y-140795476D01*
X128087381Y-140795476D01*
X74652143Y-158916666D02*
X74699762Y-158964285D01*
X74747381Y-159107142D01*
X74747381Y-159202380D01*
X74699762Y-159345238D01*
X74604524Y-159440476D01*
X74509286Y-159488095D01*
X74318810Y-159535714D01*
X74175952Y-159535714D01*
X73985476Y-159488095D01*
X73890238Y-159440476D01*
X73795000Y-159345238D01*
X73747381Y-159202380D01*
X73747381Y-159107142D01*
X73795000Y-158964285D01*
X73842619Y-158916666D01*
X73747381Y-158583333D02*
X73747381Y-157916666D01*
X74747381Y-158345238D01*
X74747381Y-153955714D02*
X74747381Y-154527143D01*
X74747381Y-154241429D02*
X73747381Y-154241429D01*
X73890238Y-154336667D01*
X73985476Y-154431905D01*
X74033095Y-154527143D01*
X74747381Y-153527143D02*
X73747381Y-153527143D01*
X74461667Y-153193809D01*
X73747381Y-152860476D01*
X74747381Y-152860476D01*
X80478334Y-136882143D02*
X80430715Y-136929762D01*
X80287858Y-136977381D01*
X80192620Y-136977381D01*
X80049762Y-136929762D01*
X79954524Y-136834524D01*
X79906905Y-136739286D01*
X79859286Y-136548810D01*
X79859286Y-136405952D01*
X79906905Y-136215476D01*
X79954524Y-136120238D01*
X80049762Y-136025000D01*
X80192620Y-135977381D01*
X80287858Y-135977381D01*
X80430715Y-136025000D01*
X80478334Y-136072619D01*
X81049762Y-136405952D02*
X80954524Y-136358333D01*
X80906905Y-136310714D01*
X80859286Y-136215476D01*
X80859286Y-136167857D01*
X80906905Y-136072619D01*
X80954524Y-136025000D01*
X81049762Y-135977381D01*
X81240239Y-135977381D01*
X81335477Y-136025000D01*
X81383096Y-136072619D01*
X81430715Y-136167857D01*
X81430715Y-136215476D01*
X81383096Y-136310714D01*
X81335477Y-136358333D01*
X81240239Y-136405952D01*
X81049762Y-136405952D01*
X80954524Y-136453571D01*
X80906905Y-136501190D01*
X80859286Y-136596429D01*
X80859286Y-136786905D01*
X80906905Y-136882143D01*
X80954524Y-136929762D01*
X81049762Y-136977381D01*
X81240239Y-136977381D01*
X81335477Y-136929762D01*
X81383096Y-136882143D01*
X81430715Y-136786905D01*
X81430715Y-136596429D01*
X81383096Y-136501190D01*
X81335477Y-136453571D01*
X81240239Y-136405952D01*
X80795953Y-138882381D02*
X80224524Y-138882381D01*
X80510238Y-138882381D02*
X80510238Y-137882381D01*
X80415000Y-138025238D01*
X80319762Y-138120476D01*
X80224524Y-138168095D01*
X81415000Y-137882381D02*
X81510239Y-137882381D01*
X81605477Y-137930000D01*
X81653096Y-137977619D01*
X81700715Y-138072857D01*
X81748334Y-138263333D01*
X81748334Y-138501429D01*
X81700715Y-138691905D01*
X81653096Y-138787143D01*
X81605477Y-138834762D01*
X81510239Y-138882381D01*
X81415000Y-138882381D01*
X81319762Y-138834762D01*
X81272143Y-138787143D01*
X81224524Y-138691905D01*
X81176905Y-138501429D01*
X81176905Y-138263333D01*
X81224524Y-138072857D01*
X81272143Y-137977619D01*
X81319762Y-137930000D01*
X81415000Y-137882381D01*
X82367381Y-137882381D02*
X82462620Y-137882381D01*
X82557858Y-137930000D01*
X82605477Y-137977619D01*
X82653096Y-138072857D01*
X82700715Y-138263333D01*
X82700715Y-138501429D01*
X82653096Y-138691905D01*
X82605477Y-138787143D01*
X82557858Y-138834762D01*
X82462620Y-138882381D01*
X82367381Y-138882381D01*
X82272143Y-138834762D01*
X82224524Y-138787143D01*
X82176905Y-138691905D01*
X82129286Y-138501429D01*
X82129286Y-138263333D01*
X82176905Y-138072857D01*
X82224524Y-137977619D01*
X82272143Y-137930000D01*
X82367381Y-137882381D01*
X83129286Y-138215714D02*
X83129286Y-138882381D01*
X83129286Y-138310952D02*
X83176905Y-138263333D01*
X83272143Y-138215714D01*
X83415001Y-138215714D01*
X83510239Y-138263333D01*
X83557858Y-138358571D01*
X83557858Y-138882381D01*
X102052381Y-109958095D02*
X101052381Y-109958095D01*
X101052381Y-109720000D01*
X101100000Y-109577142D01*
X101195238Y-109481904D01*
X101290476Y-109434285D01*
X101480952Y-109386666D01*
X101623810Y-109386666D01*
X101814286Y-109434285D01*
X101909524Y-109481904D01*
X102004762Y-109577142D01*
X102052381Y-109720000D01*
X102052381Y-109958095D01*
X102052381Y-108434285D02*
X102052381Y-109005714D01*
X102052381Y-108720000D02*
X101052381Y-108720000D01*
X101195238Y-108815238D01*
X101290476Y-108910476D01*
X101338095Y-109005714D01*
X103322381Y-109457857D02*
X103322381Y-110029286D01*
X103322381Y-109743572D02*
X102322381Y-109743572D01*
X102465238Y-109838810D01*
X102560476Y-109934048D01*
X102608095Y-110029286D01*
X103322381Y-109029286D02*
X102322381Y-109029286D01*
X103322381Y-108457857D01*
X102322381Y-108457857D01*
X102655714Y-107553095D02*
X103322381Y-107553095D01*
X102274762Y-107791191D02*
X102989048Y-108029286D01*
X102989048Y-107410238D01*
X102322381Y-106838810D02*
X102322381Y-106743571D01*
X102370000Y-106648333D01*
X102417619Y-106600714D01*
X102512857Y-106553095D01*
X102703333Y-106505476D01*
X102941429Y-106505476D01*
X103131905Y-106553095D01*
X103227143Y-106600714D01*
X103274762Y-106648333D01*
X103322381Y-106743571D01*
X103322381Y-106838810D01*
X103274762Y-106934048D01*
X103227143Y-106981667D01*
X103131905Y-107029286D01*
X102941429Y-107076905D01*
X102703333Y-107076905D01*
X102512857Y-107029286D01*
X102417619Y-106981667D01*
X102370000Y-106934048D01*
X102322381Y-106838810D01*
X102322381Y-105886429D02*
X102322381Y-105791190D01*
X102370000Y-105695952D01*
X102417619Y-105648333D01*
X102512857Y-105600714D01*
X102703333Y-105553095D01*
X102941429Y-105553095D01*
X103131905Y-105600714D01*
X103227143Y-105648333D01*
X103274762Y-105695952D01*
X103322381Y-105791190D01*
X103322381Y-105886429D01*
X103274762Y-105981667D01*
X103227143Y-106029286D01*
X103131905Y-106076905D01*
X102941429Y-106124524D01*
X102703333Y-106124524D01*
X102512857Y-106076905D01*
X102417619Y-106029286D01*
X102370000Y-105981667D01*
X102322381Y-105886429D01*
X102655714Y-104695952D02*
X103322381Y-104695952D01*
X102274762Y-104934048D02*
X102989048Y-105172143D01*
X102989048Y-104553095D01*
X107767381Y-109958095D02*
X106767381Y-109958095D01*
X106767381Y-109720000D01*
X106815000Y-109577142D01*
X106910238Y-109481904D01*
X107005476Y-109434285D01*
X107195952Y-109386666D01*
X107338810Y-109386666D01*
X107529286Y-109434285D01*
X107624524Y-109481904D01*
X107719762Y-109577142D01*
X107767381Y-109720000D01*
X107767381Y-109958095D01*
X106862619Y-109005714D02*
X106815000Y-108958095D01*
X106767381Y-108862857D01*
X106767381Y-108624761D01*
X106815000Y-108529523D01*
X106862619Y-108481904D01*
X106957857Y-108434285D01*
X107053095Y-108434285D01*
X107195952Y-108481904D01*
X107767381Y-109053333D01*
X107767381Y-108434285D01*
X109037381Y-109457857D02*
X109037381Y-110029286D01*
X109037381Y-109743572D02*
X108037381Y-109743572D01*
X108180238Y-109838810D01*
X108275476Y-109934048D01*
X108323095Y-110029286D01*
X109037381Y-109029286D02*
X108037381Y-109029286D01*
X109037381Y-108457857D01*
X108037381Y-108457857D01*
X108370714Y-107553095D02*
X109037381Y-107553095D01*
X107989762Y-107791191D02*
X108704048Y-108029286D01*
X108704048Y-107410238D01*
X108037381Y-106838810D02*
X108037381Y-106743571D01*
X108085000Y-106648333D01*
X108132619Y-106600714D01*
X108227857Y-106553095D01*
X108418333Y-106505476D01*
X108656429Y-106505476D01*
X108846905Y-106553095D01*
X108942143Y-106600714D01*
X108989762Y-106648333D01*
X109037381Y-106743571D01*
X109037381Y-106838810D01*
X108989762Y-106934048D01*
X108942143Y-106981667D01*
X108846905Y-107029286D01*
X108656429Y-107076905D01*
X108418333Y-107076905D01*
X108227857Y-107029286D01*
X108132619Y-106981667D01*
X108085000Y-106934048D01*
X108037381Y-106838810D01*
X108037381Y-105886429D02*
X108037381Y-105791190D01*
X108085000Y-105695952D01*
X108132619Y-105648333D01*
X108227857Y-105600714D01*
X108418333Y-105553095D01*
X108656429Y-105553095D01*
X108846905Y-105600714D01*
X108942143Y-105648333D01*
X108989762Y-105695952D01*
X109037381Y-105791190D01*
X109037381Y-105886429D01*
X108989762Y-105981667D01*
X108942143Y-106029286D01*
X108846905Y-106076905D01*
X108656429Y-106124524D01*
X108418333Y-106124524D01*
X108227857Y-106076905D01*
X108132619Y-106029286D01*
X108085000Y-105981667D01*
X108037381Y-105886429D01*
X108370714Y-104695952D02*
X109037381Y-104695952D01*
X107989762Y-104934048D02*
X108704048Y-105172143D01*
X108704048Y-104553095D01*
X107767381Y-127103095D02*
X106767381Y-127103095D01*
X106767381Y-126865000D01*
X106815000Y-126722142D01*
X106910238Y-126626904D01*
X107005476Y-126579285D01*
X107195952Y-126531666D01*
X107338810Y-126531666D01*
X107529286Y-126579285D01*
X107624524Y-126626904D01*
X107719762Y-126722142D01*
X107767381Y-126865000D01*
X107767381Y-127103095D01*
X106767381Y-126198333D02*
X106767381Y-125579285D01*
X107148333Y-125912619D01*
X107148333Y-125769761D01*
X107195952Y-125674523D01*
X107243571Y-125626904D01*
X107338810Y-125579285D01*
X107576905Y-125579285D01*
X107672143Y-125626904D01*
X107719762Y-125674523D01*
X107767381Y-125769761D01*
X107767381Y-126055476D01*
X107719762Y-126150714D01*
X107672143Y-126198333D01*
X109037381Y-126602857D02*
X109037381Y-127174286D01*
X109037381Y-126888572D02*
X108037381Y-126888572D01*
X108180238Y-126983810D01*
X108275476Y-127079048D01*
X108323095Y-127174286D01*
X109037381Y-126174286D02*
X108037381Y-126174286D01*
X109037381Y-125602857D01*
X108037381Y-125602857D01*
X108370714Y-124698095D02*
X109037381Y-124698095D01*
X107989762Y-124936191D02*
X108704048Y-125174286D01*
X108704048Y-124555238D01*
X108037381Y-123983810D02*
X108037381Y-123888571D01*
X108085000Y-123793333D01*
X108132619Y-123745714D01*
X108227857Y-123698095D01*
X108418333Y-123650476D01*
X108656429Y-123650476D01*
X108846905Y-123698095D01*
X108942143Y-123745714D01*
X108989762Y-123793333D01*
X109037381Y-123888571D01*
X109037381Y-123983810D01*
X108989762Y-124079048D01*
X108942143Y-124126667D01*
X108846905Y-124174286D01*
X108656429Y-124221905D01*
X108418333Y-124221905D01*
X108227857Y-124174286D01*
X108132619Y-124126667D01*
X108085000Y-124079048D01*
X108037381Y-123983810D01*
X108037381Y-123031429D02*
X108037381Y-122936190D01*
X108085000Y-122840952D01*
X108132619Y-122793333D01*
X108227857Y-122745714D01*
X108418333Y-122698095D01*
X108656429Y-122698095D01*
X108846905Y-122745714D01*
X108942143Y-122793333D01*
X108989762Y-122840952D01*
X109037381Y-122936190D01*
X109037381Y-123031429D01*
X108989762Y-123126667D01*
X108942143Y-123174286D01*
X108846905Y-123221905D01*
X108656429Y-123269524D01*
X108418333Y-123269524D01*
X108227857Y-123221905D01*
X108132619Y-123174286D01*
X108085000Y-123126667D01*
X108037381Y-123031429D01*
X108370714Y-121840952D02*
X109037381Y-121840952D01*
X107989762Y-122079048D02*
X108704048Y-122317143D01*
X108704048Y-121698095D01*
X102052381Y-127103095D02*
X101052381Y-127103095D01*
X101052381Y-126865000D01*
X101100000Y-126722142D01*
X101195238Y-126626904D01*
X101290476Y-126579285D01*
X101480952Y-126531666D01*
X101623810Y-126531666D01*
X101814286Y-126579285D01*
X101909524Y-126626904D01*
X102004762Y-126722142D01*
X102052381Y-126865000D01*
X102052381Y-127103095D01*
X101385714Y-125674523D02*
X102052381Y-125674523D01*
X101004762Y-125912619D02*
X101719048Y-126150714D01*
X101719048Y-125531666D01*
X103322381Y-126602857D02*
X103322381Y-127174286D01*
X103322381Y-126888572D02*
X102322381Y-126888572D01*
X102465238Y-126983810D01*
X102560476Y-127079048D01*
X102608095Y-127174286D01*
X103322381Y-126174286D02*
X102322381Y-126174286D01*
X103322381Y-125602857D01*
X102322381Y-125602857D01*
X102655714Y-124698095D02*
X103322381Y-124698095D01*
X102274762Y-124936191D02*
X102989048Y-125174286D01*
X102989048Y-124555238D01*
X102322381Y-123983810D02*
X102322381Y-123888571D01*
X102370000Y-123793333D01*
X102417619Y-123745714D01*
X102512857Y-123698095D01*
X102703333Y-123650476D01*
X102941429Y-123650476D01*
X103131905Y-123698095D01*
X103227143Y-123745714D01*
X103274762Y-123793333D01*
X103322381Y-123888571D01*
X103322381Y-123983810D01*
X103274762Y-124079048D01*
X103227143Y-124126667D01*
X103131905Y-124174286D01*
X102941429Y-124221905D01*
X102703333Y-124221905D01*
X102512857Y-124174286D01*
X102417619Y-124126667D01*
X102370000Y-124079048D01*
X102322381Y-123983810D01*
X102322381Y-123031429D02*
X102322381Y-122936190D01*
X102370000Y-122840952D01*
X102417619Y-122793333D01*
X102512857Y-122745714D01*
X102703333Y-122698095D01*
X102941429Y-122698095D01*
X103131905Y-122745714D01*
X103227143Y-122793333D01*
X103274762Y-122840952D01*
X103322381Y-122936190D01*
X103322381Y-123031429D01*
X103274762Y-123126667D01*
X103227143Y-123174286D01*
X103131905Y-123221905D01*
X102941429Y-123269524D01*
X102703333Y-123269524D01*
X102512857Y-123221905D01*
X102417619Y-123174286D01*
X102370000Y-123126667D01*
X102322381Y-123031429D01*
X102655714Y-121840952D02*
X103322381Y-121840952D01*
X102274762Y-122079048D02*
X102989048Y-122317143D01*
X102989048Y-121698095D01*
X83081905Y-122372381D02*
X83081905Y-121372381D01*
X83320000Y-121372381D01*
X83462858Y-121420000D01*
X83558096Y-121515238D01*
X83605715Y-121610476D01*
X83653334Y-121800952D01*
X83653334Y-121943810D01*
X83605715Y-122134286D01*
X83558096Y-122229524D01*
X83462858Y-122324762D01*
X83320000Y-122372381D01*
X83081905Y-122372381D01*
X84558096Y-121372381D02*
X84081905Y-121372381D01*
X84034286Y-121848571D01*
X84081905Y-121800952D01*
X84177143Y-121753333D01*
X84415239Y-121753333D01*
X84510477Y-121800952D01*
X84558096Y-121848571D01*
X84605715Y-121943810D01*
X84605715Y-122181905D01*
X84558096Y-122277143D01*
X84510477Y-122324762D01*
X84415239Y-122372381D01*
X84177143Y-122372381D01*
X84081905Y-122324762D01*
X84034286Y-122277143D01*
X83582143Y-123642381D02*
X83010714Y-123642381D01*
X83296428Y-123642381D02*
X83296428Y-122642381D01*
X83201190Y-122785238D01*
X83105952Y-122880476D01*
X83010714Y-122928095D01*
X84010714Y-123642381D02*
X84010714Y-122642381D01*
X84582143Y-123642381D01*
X84582143Y-122642381D01*
X85486905Y-122975714D02*
X85486905Y-123642381D01*
X85248809Y-122594762D02*
X85010714Y-123309048D01*
X85629762Y-123309048D01*
X86201190Y-122642381D02*
X86296429Y-122642381D01*
X86391667Y-122690000D01*
X86439286Y-122737619D01*
X86486905Y-122832857D01*
X86534524Y-123023333D01*
X86534524Y-123261429D01*
X86486905Y-123451905D01*
X86439286Y-123547143D01*
X86391667Y-123594762D01*
X86296429Y-123642381D01*
X86201190Y-123642381D01*
X86105952Y-123594762D01*
X86058333Y-123547143D01*
X86010714Y-123451905D01*
X85963095Y-123261429D01*
X85963095Y-123023333D01*
X86010714Y-122832857D01*
X86058333Y-122737619D01*
X86105952Y-122690000D01*
X86201190Y-122642381D01*
X87153571Y-122642381D02*
X87248810Y-122642381D01*
X87344048Y-122690000D01*
X87391667Y-122737619D01*
X87439286Y-122832857D01*
X87486905Y-123023333D01*
X87486905Y-123261429D01*
X87439286Y-123451905D01*
X87391667Y-123547143D01*
X87344048Y-123594762D01*
X87248810Y-123642381D01*
X87153571Y-123642381D01*
X87058333Y-123594762D01*
X87010714Y-123547143D01*
X86963095Y-123451905D01*
X86915476Y-123261429D01*
X86915476Y-123023333D01*
X86963095Y-122832857D01*
X87010714Y-122737619D01*
X87058333Y-122690000D01*
X87153571Y-122642381D01*
X88344048Y-122975714D02*
X88344048Y-123642381D01*
X88105952Y-122594762D02*
X87867857Y-123309048D01*
X88486905Y-123309048D01*
X107767381Y-142978095D02*
X106767381Y-142978095D01*
X106767381Y-142740000D01*
X106815000Y-142597142D01*
X106910238Y-142501904D01*
X107005476Y-142454285D01*
X107195952Y-142406666D01*
X107338810Y-142406666D01*
X107529286Y-142454285D01*
X107624524Y-142501904D01*
X107719762Y-142597142D01*
X107767381Y-142740000D01*
X107767381Y-142978095D01*
X106767381Y-141549523D02*
X106767381Y-141740000D01*
X106815000Y-141835238D01*
X106862619Y-141882857D01*
X107005476Y-141978095D01*
X107195952Y-142025714D01*
X107576905Y-142025714D01*
X107672143Y-141978095D01*
X107719762Y-141930476D01*
X107767381Y-141835238D01*
X107767381Y-141644761D01*
X107719762Y-141549523D01*
X107672143Y-141501904D01*
X107576905Y-141454285D01*
X107338810Y-141454285D01*
X107243571Y-141501904D01*
X107195952Y-141549523D01*
X107148333Y-141644761D01*
X107148333Y-141835238D01*
X107195952Y-141930476D01*
X107243571Y-141978095D01*
X107338810Y-142025714D01*
X109037381Y-142477857D02*
X109037381Y-143049286D01*
X109037381Y-142763572D02*
X108037381Y-142763572D01*
X108180238Y-142858810D01*
X108275476Y-142954048D01*
X108323095Y-143049286D01*
X109037381Y-142049286D02*
X108037381Y-142049286D01*
X109037381Y-141477857D01*
X108037381Y-141477857D01*
X108370714Y-140573095D02*
X109037381Y-140573095D01*
X107989762Y-140811191D02*
X108704048Y-141049286D01*
X108704048Y-140430238D01*
X108037381Y-139858810D02*
X108037381Y-139763571D01*
X108085000Y-139668333D01*
X108132619Y-139620714D01*
X108227857Y-139573095D01*
X108418333Y-139525476D01*
X108656429Y-139525476D01*
X108846905Y-139573095D01*
X108942143Y-139620714D01*
X108989762Y-139668333D01*
X109037381Y-139763571D01*
X109037381Y-139858810D01*
X108989762Y-139954048D01*
X108942143Y-140001667D01*
X108846905Y-140049286D01*
X108656429Y-140096905D01*
X108418333Y-140096905D01*
X108227857Y-140049286D01*
X108132619Y-140001667D01*
X108085000Y-139954048D01*
X108037381Y-139858810D01*
X108037381Y-138906429D02*
X108037381Y-138811190D01*
X108085000Y-138715952D01*
X108132619Y-138668333D01*
X108227857Y-138620714D01*
X108418333Y-138573095D01*
X108656429Y-138573095D01*
X108846905Y-138620714D01*
X108942143Y-138668333D01*
X108989762Y-138715952D01*
X109037381Y-138811190D01*
X109037381Y-138906429D01*
X108989762Y-139001667D01*
X108942143Y-139049286D01*
X108846905Y-139096905D01*
X108656429Y-139144524D01*
X108418333Y-139144524D01*
X108227857Y-139096905D01*
X108132619Y-139049286D01*
X108085000Y-139001667D01*
X108037381Y-138906429D01*
X108370714Y-137715952D02*
X109037381Y-137715952D01*
X107989762Y-137954048D02*
X108704048Y-138192143D01*
X108704048Y-137573095D01*
X107767381Y-162028095D02*
X106767381Y-162028095D01*
X106767381Y-161790000D01*
X106815000Y-161647142D01*
X106910238Y-161551904D01*
X107005476Y-161504285D01*
X107195952Y-161456666D01*
X107338810Y-161456666D01*
X107529286Y-161504285D01*
X107624524Y-161551904D01*
X107719762Y-161647142D01*
X107767381Y-161790000D01*
X107767381Y-162028095D01*
X106767381Y-161123333D02*
X106767381Y-160456666D01*
X107767381Y-160885238D01*
X109037381Y-161527857D02*
X109037381Y-162099286D01*
X109037381Y-161813572D02*
X108037381Y-161813572D01*
X108180238Y-161908810D01*
X108275476Y-162004048D01*
X108323095Y-162099286D01*
X109037381Y-161099286D02*
X108037381Y-161099286D01*
X109037381Y-160527857D01*
X108037381Y-160527857D01*
X108370714Y-159623095D02*
X109037381Y-159623095D01*
X107989762Y-159861191D02*
X108704048Y-160099286D01*
X108704048Y-159480238D01*
X108037381Y-158908810D02*
X108037381Y-158813571D01*
X108085000Y-158718333D01*
X108132619Y-158670714D01*
X108227857Y-158623095D01*
X108418333Y-158575476D01*
X108656429Y-158575476D01*
X108846905Y-158623095D01*
X108942143Y-158670714D01*
X108989762Y-158718333D01*
X109037381Y-158813571D01*
X109037381Y-158908810D01*
X108989762Y-159004048D01*
X108942143Y-159051667D01*
X108846905Y-159099286D01*
X108656429Y-159146905D01*
X108418333Y-159146905D01*
X108227857Y-159099286D01*
X108132619Y-159051667D01*
X108085000Y-159004048D01*
X108037381Y-158908810D01*
X108037381Y-157956429D02*
X108037381Y-157861190D01*
X108085000Y-157765952D01*
X108132619Y-157718333D01*
X108227857Y-157670714D01*
X108418333Y-157623095D01*
X108656429Y-157623095D01*
X108846905Y-157670714D01*
X108942143Y-157718333D01*
X108989762Y-157765952D01*
X109037381Y-157861190D01*
X109037381Y-157956429D01*
X108989762Y-158051667D01*
X108942143Y-158099286D01*
X108846905Y-158146905D01*
X108656429Y-158194524D01*
X108418333Y-158194524D01*
X108227857Y-158146905D01*
X108132619Y-158099286D01*
X108085000Y-158051667D01*
X108037381Y-157956429D01*
X108370714Y-156765952D02*
X109037381Y-156765952D01*
X107989762Y-157004048D02*
X108704048Y-157242143D01*
X108704048Y-156623095D01*
X123642381Y-169013095D02*
X122642381Y-169013095D01*
X122642381Y-168775000D01*
X122690000Y-168632142D01*
X122785238Y-168536904D01*
X122880476Y-168489285D01*
X123070952Y-168441666D01*
X123213810Y-168441666D01*
X123404286Y-168489285D01*
X123499524Y-168536904D01*
X123594762Y-168632142D01*
X123642381Y-168775000D01*
X123642381Y-169013095D01*
X123070952Y-167870238D02*
X123023333Y-167965476D01*
X122975714Y-168013095D01*
X122880476Y-168060714D01*
X122832857Y-168060714D01*
X122737619Y-168013095D01*
X122690000Y-167965476D01*
X122642381Y-167870238D01*
X122642381Y-167679761D01*
X122690000Y-167584523D01*
X122737619Y-167536904D01*
X122832857Y-167489285D01*
X122880476Y-167489285D01*
X122975714Y-167536904D01*
X123023333Y-167584523D01*
X123070952Y-167679761D01*
X123070952Y-167870238D01*
X123118571Y-167965476D01*
X123166190Y-168013095D01*
X123261429Y-168060714D01*
X123451905Y-168060714D01*
X123547143Y-168013095D01*
X123594762Y-167965476D01*
X123642381Y-167870238D01*
X123642381Y-167679761D01*
X123594762Y-167584523D01*
X123547143Y-167536904D01*
X123451905Y-167489285D01*
X123261429Y-167489285D01*
X123166190Y-167536904D01*
X123118571Y-167584523D01*
X123070952Y-167679761D01*
X124912381Y-168512857D02*
X124912381Y-169084286D01*
X124912381Y-168798572D02*
X123912381Y-168798572D01*
X124055238Y-168893810D01*
X124150476Y-168989048D01*
X124198095Y-169084286D01*
X124912381Y-168084286D02*
X123912381Y-168084286D01*
X124912381Y-167512857D01*
X123912381Y-167512857D01*
X124245714Y-166608095D02*
X124912381Y-166608095D01*
X123864762Y-166846191D02*
X124579048Y-167084286D01*
X124579048Y-166465238D01*
X124912381Y-165560476D02*
X124912381Y-166131905D01*
X124912381Y-165846191D02*
X123912381Y-165846191D01*
X124055238Y-165941429D01*
X124150476Y-166036667D01*
X124198095Y-166131905D01*
X124245714Y-164703333D02*
X124912381Y-164703333D01*
X123864762Y-164941429D02*
X124579048Y-165179524D01*
X124579048Y-164560476D01*
X124340952Y-164036667D02*
X124293333Y-164131905D01*
X124245714Y-164179524D01*
X124150476Y-164227143D01*
X124102857Y-164227143D01*
X124007619Y-164179524D01*
X123960000Y-164131905D01*
X123912381Y-164036667D01*
X123912381Y-163846190D01*
X123960000Y-163750952D01*
X124007619Y-163703333D01*
X124102857Y-163655714D01*
X124150476Y-163655714D01*
X124245714Y-163703333D01*
X124293333Y-163750952D01*
X124340952Y-163846190D01*
X124340952Y-164036667D01*
X124388571Y-164131905D01*
X124436190Y-164179524D01*
X124531429Y-164227143D01*
X124721905Y-164227143D01*
X124817143Y-164179524D01*
X124864762Y-164131905D01*
X124912381Y-164036667D01*
X124912381Y-163846190D01*
X124864762Y-163750952D01*
X124817143Y-163703333D01*
X124721905Y-163655714D01*
X124531429Y-163655714D01*
X124436190Y-163703333D01*
X124388571Y-163750952D01*
X124340952Y-163846190D01*
X122483571Y-94313333D02*
X122483571Y-94646667D01*
X123007381Y-94646667D02*
X122007381Y-94646667D01*
X122007381Y-94170476D01*
X123007381Y-93265714D02*
X123007381Y-93837143D01*
X123007381Y-93551429D02*
X122007381Y-93551429D01*
X122150238Y-93646667D01*
X122245476Y-93741905D01*
X122293095Y-93837143D01*
X111688571Y-94313333D02*
X111688571Y-94646667D01*
X112212381Y-94646667D02*
X111212381Y-94646667D01*
X111212381Y-94170476D01*
X111307619Y-93837143D02*
X111260000Y-93789524D01*
X111212381Y-93694286D01*
X111212381Y-93456190D01*
X111260000Y-93360952D01*
X111307619Y-93313333D01*
X111402857Y-93265714D01*
X111498095Y-93265714D01*
X111640952Y-93313333D01*
X112212381Y-93884762D01*
X112212381Y-93265714D01*
X129627381Y-170513333D02*
X130341667Y-170513333D01*
X130484524Y-170560953D01*
X130579762Y-170656191D01*
X130627381Y-170799048D01*
X130627381Y-170894286D01*
X130627381Y-169513333D02*
X130627381Y-170084762D01*
X130627381Y-169799048D02*
X129627381Y-169799048D01*
X129770238Y-169894286D01*
X129865476Y-169989524D01*
X129913095Y-170084762D01*
X130627381Y-161837619D02*
X130151190Y-162170953D01*
X130627381Y-162409048D02*
X129627381Y-162409048D01*
X129627381Y-162028095D01*
X129675000Y-161932857D01*
X129722619Y-161885238D01*
X129817857Y-161837619D01*
X129960714Y-161837619D01*
X130055952Y-161885238D01*
X130103571Y-161932857D01*
X130151190Y-162028095D01*
X130151190Y-162409048D01*
X130103571Y-161409048D02*
X130103571Y-161075714D01*
X130627381Y-160932857D02*
X130627381Y-161409048D01*
X129627381Y-161409048D01*
X129627381Y-160932857D01*
X130627381Y-160028095D02*
X130627381Y-160504286D01*
X129627381Y-160504286D01*
X129627381Y-154638333D02*
X130341667Y-154638333D01*
X130484524Y-154685953D01*
X130579762Y-154781191D01*
X130627381Y-154924048D01*
X130627381Y-155019286D01*
X129722619Y-154209762D02*
X129675000Y-154162143D01*
X129627381Y-154066905D01*
X129627381Y-153828809D01*
X129675000Y-153733571D01*
X129722619Y-153685952D01*
X129817857Y-153638333D01*
X129913095Y-153638333D01*
X130055952Y-153685952D01*
X130627381Y-154257381D01*
X130627381Y-153638333D01*
X130627381Y-138358333D02*
X130151190Y-138691667D01*
X130627381Y-138929762D02*
X129627381Y-138929762D01*
X129627381Y-138548809D01*
X129675000Y-138453571D01*
X129722619Y-138405952D01*
X129817857Y-138358333D01*
X129960714Y-138358333D01*
X130055952Y-138405952D01*
X130103571Y-138453571D01*
X130151190Y-138548809D01*
X130151190Y-138929762D01*
X130579762Y-137548809D02*
X130627381Y-137644047D01*
X130627381Y-137834524D01*
X130579762Y-137929762D01*
X130484524Y-137977381D01*
X130103571Y-137977381D01*
X130008333Y-137929762D01*
X129960714Y-137834524D01*
X129960714Y-137644047D01*
X130008333Y-137548809D01*
X130103571Y-137501190D01*
X130198810Y-137501190D01*
X130294048Y-137977381D01*
X129960714Y-136644047D02*
X130770238Y-136644047D01*
X130865476Y-136691666D01*
X130913095Y-136739285D01*
X130960714Y-136834524D01*
X130960714Y-136977381D01*
X130913095Y-137072619D01*
X130579762Y-136644047D02*
X130627381Y-136739285D01*
X130627381Y-136929762D01*
X130579762Y-137025000D01*
X130532143Y-137072619D01*
X130436905Y-137120238D01*
X130151190Y-137120238D01*
X130055952Y-137072619D01*
X130008333Y-137025000D01*
X129960714Y-136929762D01*
X129960714Y-136739285D01*
X130008333Y-136644047D01*
X130103571Y-135834523D02*
X130151190Y-135691666D01*
X130198810Y-135644047D01*
X130294048Y-135596428D01*
X130436905Y-135596428D01*
X130532143Y-135644047D01*
X130579762Y-135691666D01*
X130627381Y-135786904D01*
X130627381Y-136167857D01*
X129627381Y-136167857D01*
X129627381Y-135834523D01*
X129675000Y-135739285D01*
X129722619Y-135691666D01*
X129817857Y-135644047D01*
X129913095Y-135644047D01*
X130008333Y-135691666D01*
X130055952Y-135739285D01*
X130103571Y-135834523D01*
X130103571Y-136167857D01*
X130627381Y-135167857D02*
X129960714Y-135167857D01*
X130151190Y-135167857D02*
X130055952Y-135120238D01*
X130008333Y-135072619D01*
X129960714Y-134977381D01*
X129960714Y-134882142D01*
X130627381Y-134120237D02*
X129627381Y-134120237D01*
X130579762Y-134120237D02*
X130627381Y-134215475D01*
X130627381Y-134405952D01*
X130579762Y-134501190D01*
X130532143Y-134548809D01*
X130436905Y-134596428D01*
X130151190Y-134596428D01*
X130055952Y-134548809D01*
X130008333Y-134501190D01*
X129960714Y-134405952D01*
X129960714Y-134215475D01*
X130008333Y-134120237D01*
X131532381Y-118443333D02*
X132246667Y-118443333D01*
X132389524Y-118490953D01*
X132484762Y-118586191D01*
X132532381Y-118729048D01*
X132532381Y-118824286D01*
X131532381Y-118062381D02*
X131532381Y-117443333D01*
X131913333Y-117776667D01*
X131913333Y-117633809D01*
X131960952Y-117538571D01*
X132008571Y-117490952D01*
X132103810Y-117443333D01*
X132341905Y-117443333D01*
X132437143Y-117490952D01*
X132484762Y-117538571D01*
X132532381Y-117633809D01*
X132532381Y-117919524D01*
X132484762Y-118014762D01*
X132437143Y-118062381D01*
X134151667Y-121570476D02*
X134151667Y-121094285D01*
X134437381Y-121665714D02*
X133437381Y-121332381D01*
X134437381Y-120999047D01*
X134342143Y-120094285D02*
X134389762Y-120141904D01*
X134437381Y-120284761D01*
X134437381Y-120379999D01*
X134389762Y-120522857D01*
X134294524Y-120618095D01*
X134199286Y-120665714D01*
X134008810Y-120713333D01*
X133865952Y-120713333D01*
X133675476Y-120665714D01*
X133580238Y-120618095D01*
X133485000Y-120522857D01*
X133437381Y-120379999D01*
X133437381Y-120284761D01*
X133485000Y-120141904D01*
X133532619Y-120094285D01*
X134389762Y-119713333D02*
X134437381Y-119570476D01*
X134437381Y-119332380D01*
X134389762Y-119237142D01*
X134342143Y-119189523D01*
X134246905Y-119141904D01*
X134151667Y-119141904D01*
X134056429Y-119189523D01*
X134008810Y-119237142D01*
X133961190Y-119332380D01*
X133913571Y-119522857D01*
X133865952Y-119618095D01*
X133818333Y-119665714D01*
X133723095Y-119713333D01*
X133627857Y-119713333D01*
X133532619Y-119665714D01*
X133485000Y-119618095D01*
X133437381Y-119522857D01*
X133437381Y-119284761D01*
X133485000Y-119141904D01*
X134389762Y-118760952D02*
X134437381Y-118618095D01*
X134437381Y-118379999D01*
X134389762Y-118284761D01*
X134342143Y-118237142D01*
X134246905Y-118189523D01*
X134151667Y-118189523D01*
X134056429Y-118237142D01*
X134008810Y-118284761D01*
X133961190Y-118379999D01*
X133913571Y-118570476D01*
X133865952Y-118665714D01*
X133818333Y-118713333D01*
X133723095Y-118760952D01*
X133627857Y-118760952D01*
X133532619Y-118713333D01*
X133485000Y-118665714D01*
X133437381Y-118570476D01*
X133437381Y-118332380D01*
X133485000Y-118189523D01*
X134437381Y-117760952D02*
X133437381Y-117760952D01*
X133437381Y-117379999D01*
X133485000Y-117284761D01*
X133532619Y-117237142D01*
X133627857Y-117189523D01*
X133770714Y-117189523D01*
X133865952Y-117237142D01*
X133913571Y-117284761D01*
X133961190Y-117379999D01*
X133961190Y-117760952D01*
X112934762Y-162472619D02*
X112839524Y-162425000D01*
X112744286Y-162329762D01*
X112601429Y-162186905D01*
X112506190Y-162139286D01*
X112410952Y-162139286D01*
X112458571Y-162377381D02*
X112363333Y-162329762D01*
X112268095Y-162234524D01*
X112220476Y-162044048D01*
X112220476Y-161710714D01*
X112268095Y-161520238D01*
X112363333Y-161425000D01*
X112458571Y-161377381D01*
X112649048Y-161377381D01*
X112744286Y-161425000D01*
X112839524Y-161520238D01*
X112887143Y-161710714D01*
X112887143Y-162044048D01*
X112839524Y-162234524D01*
X112744286Y-162329762D01*
X112649048Y-162377381D01*
X112458571Y-162377381D01*
X113839524Y-162377381D02*
X113268095Y-162377381D01*
X113553809Y-162377381D02*
X113553809Y-161377381D01*
X113458571Y-161520238D01*
X113363333Y-161615476D01*
X113268095Y-161663095D01*
X116252858Y-167568571D02*
X116395715Y-167616190D01*
X116443334Y-167663810D01*
X116490953Y-167759048D01*
X116490953Y-167901905D01*
X116443334Y-167997143D01*
X116395715Y-168044762D01*
X116300477Y-168092381D01*
X115919524Y-168092381D01*
X115919524Y-167092381D01*
X116252858Y-167092381D01*
X116348096Y-167140000D01*
X116395715Y-167187619D01*
X116443334Y-167282857D01*
X116443334Y-167378095D01*
X116395715Y-167473333D01*
X116348096Y-167520952D01*
X116252858Y-167568571D01*
X115919524Y-167568571D01*
X116919524Y-168092381D02*
X116919524Y-167092381D01*
X117157619Y-167092381D01*
X117300477Y-167140000D01*
X117395715Y-167235238D01*
X117443334Y-167330476D01*
X117490953Y-167520952D01*
X117490953Y-167663810D01*
X117443334Y-167854286D01*
X117395715Y-167949524D01*
X117300477Y-168044762D01*
X117157619Y-168092381D01*
X116919524Y-168092381D01*
X118443334Y-168092381D02*
X117871905Y-168092381D01*
X118157619Y-168092381D02*
X118157619Y-167092381D01*
X118062381Y-167235238D01*
X117967143Y-167330476D01*
X117871905Y-167378095D01*
X119300477Y-167425714D02*
X119300477Y-168092381D01*
X119062381Y-167044762D02*
X118824286Y-167759048D01*
X119443334Y-167759048D01*
X120014762Y-167092381D02*
X120110001Y-167092381D01*
X120205239Y-167140000D01*
X120252858Y-167187619D01*
X120300477Y-167282857D01*
X120348096Y-167473333D01*
X120348096Y-167711429D01*
X120300477Y-167901905D01*
X120252858Y-167997143D01*
X120205239Y-168044762D01*
X120110001Y-168092381D01*
X120014762Y-168092381D01*
X119919524Y-168044762D01*
X119871905Y-167997143D01*
X119824286Y-167901905D01*
X119776667Y-167711429D01*
X119776667Y-167473333D01*
X119824286Y-167282857D01*
X119871905Y-167187619D01*
X119919524Y-167140000D01*
X120014762Y-167092381D01*
X84923334Y-164917381D02*
X84590000Y-164441190D01*
X84351905Y-164917381D02*
X84351905Y-163917381D01*
X84732858Y-163917381D01*
X84828096Y-163965000D01*
X84875715Y-164012619D01*
X84923334Y-164107857D01*
X84923334Y-164250714D01*
X84875715Y-164345952D01*
X84828096Y-164393571D01*
X84732858Y-164441190D01*
X84351905Y-164441190D01*
X85875715Y-164917381D02*
X85304286Y-164917381D01*
X85590000Y-164917381D02*
X85590000Y-163917381D01*
X85494762Y-164060238D01*
X85399524Y-164155476D01*
X85304286Y-164203095D01*
X90273334Y-166187381D02*
X89701905Y-166187381D01*
X89987619Y-166187381D02*
X89987619Y-165187381D01*
X89892381Y-165330238D01*
X89797143Y-165425476D01*
X89701905Y-165473095D01*
X90892381Y-165187381D02*
X90987620Y-165187381D01*
X91082858Y-165235000D01*
X91130477Y-165282619D01*
X91178096Y-165377857D01*
X91225715Y-165568333D01*
X91225715Y-165806429D01*
X91178096Y-165996905D01*
X91130477Y-166092143D01*
X91082858Y-166139762D01*
X90987620Y-166187381D01*
X90892381Y-166187381D01*
X90797143Y-166139762D01*
X90749524Y-166092143D01*
X90701905Y-165996905D01*
X90654286Y-165806429D01*
X90654286Y-165568333D01*
X90701905Y-165377857D01*
X90749524Y-165282619D01*
X90797143Y-165235000D01*
X90892381Y-165187381D01*
X91844762Y-165187381D02*
X91940001Y-165187381D01*
X92035239Y-165235000D01*
X92082858Y-165282619D01*
X92130477Y-165377857D01*
X92178096Y-165568333D01*
X92178096Y-165806429D01*
X92130477Y-165996905D01*
X92082858Y-166092143D01*
X92035239Y-166139762D01*
X91940001Y-166187381D01*
X91844762Y-166187381D01*
X91749524Y-166139762D01*
X91701905Y-166092143D01*
X91654286Y-165996905D01*
X91606667Y-165806429D01*
X91606667Y-165568333D01*
X91654286Y-165377857D01*
X91701905Y-165282619D01*
X91749524Y-165235000D01*
X91844762Y-165187381D01*
X93178096Y-166187381D02*
X92844762Y-165711190D01*
X92606667Y-166187381D02*
X92606667Y-165187381D01*
X92987620Y-165187381D01*
X93082858Y-165235000D01*
X93130477Y-165282619D01*
X93178096Y-165377857D01*
X93178096Y-165520714D01*
X93130477Y-165615952D01*
X93082858Y-165663571D01*
X92987620Y-165711190D01*
X92606667Y-165711190D01*
X96337381Y-148756666D02*
X95861190Y-149090000D01*
X96337381Y-149328095D02*
X95337381Y-149328095D01*
X95337381Y-148947142D01*
X95385000Y-148851904D01*
X95432619Y-148804285D01*
X95527857Y-148756666D01*
X95670714Y-148756666D01*
X95765952Y-148804285D01*
X95813571Y-148851904D01*
X95861190Y-148947142D01*
X95861190Y-149328095D01*
X95432619Y-148375714D02*
X95385000Y-148328095D01*
X95337381Y-148232857D01*
X95337381Y-147994761D01*
X95385000Y-147899523D01*
X95432619Y-147851904D01*
X95527857Y-147804285D01*
X95623095Y-147804285D01*
X95765952Y-147851904D01*
X96337381Y-148423333D01*
X96337381Y-147804285D01*
X84923334Y-158567381D02*
X84590000Y-158091190D01*
X84351905Y-158567381D02*
X84351905Y-157567381D01*
X84732858Y-157567381D01*
X84828096Y-157615000D01*
X84875715Y-157662619D01*
X84923334Y-157757857D01*
X84923334Y-157900714D01*
X84875715Y-157995952D01*
X84828096Y-158043571D01*
X84732858Y-158091190D01*
X84351905Y-158091190D01*
X85256667Y-157567381D02*
X85875715Y-157567381D01*
X85542381Y-157948333D01*
X85685239Y-157948333D01*
X85780477Y-157995952D01*
X85828096Y-158043571D01*
X85875715Y-158138810D01*
X85875715Y-158376905D01*
X85828096Y-158472143D01*
X85780477Y-158519762D01*
X85685239Y-158567381D01*
X85399524Y-158567381D01*
X85304286Y-158519762D01*
X85256667Y-158472143D01*
X83653334Y-127452381D02*
X83320000Y-126976190D01*
X83081905Y-127452381D02*
X83081905Y-126452381D01*
X83462858Y-126452381D01*
X83558096Y-126500000D01*
X83605715Y-126547619D01*
X83653334Y-126642857D01*
X83653334Y-126785714D01*
X83605715Y-126880952D01*
X83558096Y-126928571D01*
X83462858Y-126976190D01*
X83081905Y-126976190D01*
X84510477Y-126785714D02*
X84510477Y-127452381D01*
X84272381Y-126404762D02*
X84034286Y-127119048D01*
X84653334Y-127119048D01*
X75382381Y-137961666D02*
X74906190Y-138295000D01*
X75382381Y-138533095D02*
X74382381Y-138533095D01*
X74382381Y-138152142D01*
X74430000Y-138056904D01*
X74477619Y-138009285D01*
X74572857Y-137961666D01*
X74715714Y-137961666D01*
X74810952Y-138009285D01*
X74858571Y-138056904D01*
X74906190Y-138152142D01*
X74906190Y-138533095D01*
X74382381Y-137056904D02*
X74382381Y-137533095D01*
X74858571Y-137580714D01*
X74810952Y-137533095D01*
X74763333Y-137437857D01*
X74763333Y-137199761D01*
X74810952Y-137104523D01*
X74858571Y-137056904D01*
X74953810Y-137009285D01*
X75191905Y-137009285D01*
X75287143Y-137056904D01*
X75334762Y-137104523D01*
X75382381Y-137199761D01*
X75382381Y-137437857D01*
X75334762Y-137533095D01*
X75287143Y-137580714D01*
X107783334Y-171902381D02*
X107450000Y-171426190D01*
X107211905Y-171902381D02*
X107211905Y-170902381D01*
X107592858Y-170902381D01*
X107688096Y-170950000D01*
X107735715Y-170997619D01*
X107783334Y-171092857D01*
X107783334Y-171235714D01*
X107735715Y-171330952D01*
X107688096Y-171378571D01*
X107592858Y-171426190D01*
X107211905Y-171426190D01*
X108640477Y-170902381D02*
X108450000Y-170902381D01*
X108354762Y-170950000D01*
X108307143Y-170997619D01*
X108211905Y-171140476D01*
X108164286Y-171330952D01*
X108164286Y-171711905D01*
X108211905Y-171807143D01*
X108259524Y-171854762D01*
X108354762Y-171902381D01*
X108545239Y-171902381D01*
X108640477Y-171854762D01*
X108688096Y-171807143D01*
X108735715Y-171711905D01*
X108735715Y-171473810D01*
X108688096Y-171378571D01*
X108640477Y-171330952D01*
X108545239Y-171283333D01*
X108354762Y-171283333D01*
X108259524Y-171330952D01*
X108211905Y-171378571D01*
X108164286Y-171473810D01*
X112403096Y-172505714D02*
X112403096Y-173172381D01*
X112165000Y-172124762D02*
X111926905Y-172839048D01*
X112545953Y-172839048D01*
X112831667Y-172172381D02*
X113498334Y-172172381D01*
X113069762Y-173172381D01*
X114069762Y-172172381D02*
X114165001Y-172172381D01*
X114260239Y-172220000D01*
X114307858Y-172267619D01*
X114355477Y-172362857D01*
X114403096Y-172553333D01*
X114403096Y-172791429D01*
X114355477Y-172981905D01*
X114307858Y-173077143D01*
X114260239Y-173124762D01*
X114165001Y-173172381D01*
X114069762Y-173172381D01*
X113974524Y-173124762D01*
X113926905Y-173077143D01*
X113879286Y-172981905D01*
X113831667Y-172791429D01*
X113831667Y-172553333D01*
X113879286Y-172362857D01*
X113926905Y-172267619D01*
X113974524Y-172220000D01*
X114069762Y-172172381D01*
X115403096Y-173172381D02*
X115069762Y-172696190D01*
X114831667Y-173172381D02*
X114831667Y-172172381D01*
X115212620Y-172172381D01*
X115307858Y-172220000D01*
X115355477Y-172267619D01*
X115403096Y-172362857D01*
X115403096Y-172505714D01*
X115355477Y-172600952D01*
X115307858Y-172648571D01*
X115212620Y-172696190D01*
X114831667Y-172696190D01*
X83653334Y-133167381D02*
X83320000Y-132691190D01*
X83081905Y-133167381D02*
X83081905Y-132167381D01*
X83462858Y-132167381D01*
X83558096Y-132215000D01*
X83605715Y-132262619D01*
X83653334Y-132357857D01*
X83653334Y-132500714D01*
X83605715Y-132595952D01*
X83558096Y-132643571D01*
X83462858Y-132691190D01*
X83081905Y-132691190D01*
X83986667Y-132167381D02*
X84653334Y-132167381D01*
X84224762Y-133167381D01*
X81153095Y-113117381D02*
X81153095Y-113926905D01*
X81200714Y-114022143D01*
X81248333Y-114069762D01*
X81343571Y-114117381D01*
X81534048Y-114117381D01*
X81629286Y-114069762D01*
X81676905Y-114022143D01*
X81724524Y-113926905D01*
X81724524Y-113117381D01*
X82724524Y-114117381D02*
X82153095Y-114117381D01*
X82438809Y-114117381D02*
X82438809Y-113117381D01*
X82343571Y-113260238D01*
X82248333Y-113355476D01*
X82153095Y-113403095D01*
X87138095Y-113117381D02*
X87804762Y-113117381D01*
X87376190Y-114117381D01*
X88328571Y-113545952D02*
X88233333Y-113498333D01*
X88185714Y-113450714D01*
X88138095Y-113355476D01*
X88138095Y-113307857D01*
X88185714Y-113212619D01*
X88233333Y-113165000D01*
X88328571Y-113117381D01*
X88519048Y-113117381D01*
X88614286Y-113165000D01*
X88661905Y-113212619D01*
X88709524Y-113307857D01*
X88709524Y-113355476D01*
X88661905Y-113450714D01*
X88614286Y-113498333D01*
X88519048Y-113545952D01*
X88328571Y-113545952D01*
X88233333Y-113593571D01*
X88185714Y-113641190D01*
X88138095Y-113736429D01*
X88138095Y-113926905D01*
X88185714Y-114022143D01*
X88233333Y-114069762D01*
X88328571Y-114117381D01*
X88519048Y-114117381D01*
X88614286Y-114069762D01*
X88661905Y-114022143D01*
X88709524Y-113926905D01*
X88709524Y-113736429D01*
X88661905Y-113641190D01*
X88614286Y-113593571D01*
X88519048Y-113545952D01*
X89661905Y-114117381D02*
X89090476Y-114117381D01*
X89376190Y-114117381D02*
X89376190Y-113117381D01*
X89280952Y-113260238D01*
X89185714Y-113355476D01*
X89090476Y-113403095D01*
X90042857Y-113212619D02*
X90090476Y-113165000D01*
X90185714Y-113117381D01*
X90423810Y-113117381D01*
X90519048Y-113165000D01*
X90566667Y-113212619D01*
X90614286Y-113307857D01*
X90614286Y-113403095D01*
X90566667Y-113545952D01*
X89995238Y-114117381D01*
X90614286Y-114117381D01*
X115022381Y-149986905D02*
X115831905Y-149986905D01*
X115927143Y-149939286D01*
X115974762Y-149891667D01*
X116022381Y-149796429D01*
X116022381Y-149605952D01*
X115974762Y-149510714D01*
X115927143Y-149463095D01*
X115831905Y-149415476D01*
X115022381Y-149415476D01*
X115117619Y-148986905D02*
X115070000Y-148939286D01*
X115022381Y-148844048D01*
X115022381Y-148605952D01*
X115070000Y-148510714D01*
X115117619Y-148463095D01*
X115212857Y-148415476D01*
X115308095Y-148415476D01*
X115450952Y-148463095D01*
X116022381Y-149034524D01*
X116022381Y-148415476D01*
X116983095Y-150582381D02*
X117649762Y-150582381D01*
X117221190Y-151582381D01*
X118078333Y-151582381D02*
X118268809Y-151582381D01*
X118364048Y-151534762D01*
X118411667Y-151487143D01*
X118506905Y-151344286D01*
X118554524Y-151153810D01*
X118554524Y-150772857D01*
X118506905Y-150677619D01*
X118459286Y-150630000D01*
X118364048Y-150582381D01*
X118173571Y-150582381D01*
X118078333Y-150630000D01*
X118030714Y-150677619D01*
X117983095Y-150772857D01*
X117983095Y-151010952D01*
X118030714Y-151106190D01*
X118078333Y-151153810D01*
X118173571Y-151201429D01*
X118364048Y-151201429D01*
X118459286Y-151153810D01*
X118506905Y-151106190D01*
X118554524Y-151010952D01*
X119506905Y-151582381D02*
X118935476Y-151582381D01*
X119221190Y-151582381D02*
X119221190Y-150582381D01*
X119125952Y-150725238D01*
X119030714Y-150820476D01*
X118935476Y-150868095D01*
X119887857Y-150677619D02*
X119935476Y-150630000D01*
X120030714Y-150582381D01*
X120268810Y-150582381D01*
X120364048Y-150630000D01*
X120411667Y-150677619D01*
X120459286Y-150772857D01*
X120459286Y-150868095D01*
X120411667Y-151010952D01*
X119840238Y-151582381D01*
X120459286Y-151582381D01*
X85177381Y-150621905D02*
X85986905Y-150621905D01*
X86082143Y-150574286D01*
X86129762Y-150526667D01*
X86177381Y-150431429D01*
X86177381Y-150240952D01*
X86129762Y-150145714D01*
X86082143Y-150098095D01*
X85986905Y-150050476D01*
X85177381Y-150050476D01*
X85177381Y-149669524D02*
X85177381Y-149050476D01*
X85558333Y-149383810D01*
X85558333Y-149240952D01*
X85605952Y-149145714D01*
X85653571Y-149098095D01*
X85748810Y-149050476D01*
X85986905Y-149050476D01*
X86082143Y-149098095D01*
X86129762Y-149145714D01*
X86177381Y-149240952D01*
X86177381Y-149526667D01*
X86129762Y-149621905D01*
X86082143Y-149669524D01*
X88717381Y-147629285D02*
X88717381Y-148105476D01*
X87717381Y-148105476D01*
X88717381Y-147295952D02*
X87717381Y-147295952D01*
X88431667Y-146962618D01*
X87717381Y-146629285D01*
X88717381Y-146629285D01*
X87717381Y-146248333D02*
X87717381Y-145629285D01*
X88098333Y-145962619D01*
X88098333Y-145819761D01*
X88145952Y-145724523D01*
X88193571Y-145676904D01*
X88288810Y-145629285D01*
X88526905Y-145629285D01*
X88622143Y-145676904D01*
X88669762Y-145724523D01*
X88717381Y-145819761D01*
X88717381Y-146105476D01*
X88669762Y-146200714D01*
X88622143Y-146248333D01*
X88717381Y-144676904D02*
X88717381Y-145248333D01*
X88717381Y-144962619D02*
X87717381Y-144962619D01*
X87860238Y-145057857D01*
X87955476Y-145153095D01*
X88003095Y-145248333D01*
X88717381Y-143724523D02*
X88717381Y-144295952D01*
X88717381Y-144010238D02*
X87717381Y-144010238D01*
X87860238Y-144105476D01*
X87955476Y-144200714D01*
X88003095Y-144295952D01*
X88717381Y-143295952D02*
X87717381Y-143295952D01*
X88717381Y-142724523D01*
X87717381Y-142724523D01*
X124761667Y-174077381D02*
X124761667Y-174791667D01*
X124714047Y-174934524D01*
X124618809Y-175029762D01*
X124475952Y-175077381D01*
X124380714Y-175077381D01*
X125666429Y-174410714D02*
X125666429Y-175077381D01*
X125428333Y-174029762D02*
X125190238Y-174744048D01*
X125809286Y-174744048D01*
X127603571Y-175077381D02*
X127603571Y-174077381D01*
X128175000Y-175077381D01*
X128175000Y-174077381D01*
X128794047Y-175077381D02*
X128698809Y-175029762D01*
X128651190Y-174982143D01*
X128603571Y-174886905D01*
X128603571Y-174601190D01*
X128651190Y-174505952D01*
X128698809Y-174458333D01*
X128794047Y-174410714D01*
X128936905Y-174410714D01*
X129032143Y-174458333D01*
X129079762Y-174505952D01*
X129127381Y-174601190D01*
X129127381Y-174886905D01*
X129079762Y-174982143D01*
X129032143Y-175029762D01*
X128936905Y-175077381D01*
X128794047Y-175077381D01*
X129555952Y-174553571D02*
X129889286Y-174553571D01*
X130032143Y-175077381D02*
X129555952Y-175077381D01*
X129555952Y-174077381D01*
X130032143Y-174077381D01*
X130365476Y-175077381D02*
X130889286Y-174410714D01*
X130365476Y-174410714D02*
X130889286Y-175077381D01*
X131127381Y-174410714D02*
X131508333Y-174410714D01*
X131270238Y-174077381D02*
X131270238Y-174934524D01*
X131317857Y-175029762D01*
X131413095Y-175077381D01*
X131508333Y-175077381D01*
X131698810Y-174077381D02*
X132270239Y-174077381D01*
X131984524Y-175077381D02*
X131984524Y-174077381D01*
X132603572Y-175077381D02*
X132603572Y-174410714D01*
X132603572Y-174601190D02*
X132651191Y-174505952D01*
X132698810Y-174458333D01*
X132794048Y-174410714D01*
X132889287Y-174410714D01*
X127365476Y-173905000D02*
X132984525Y-173905000D01*
M02*
