M48
;DRILL file {KiCad 4.0.6} date Thu Apr 29 15:33:16 2021
;FORMAT={-:-/ absolute / inch / decimal}
FMAT,2
INCH,TZ
T1C0.031
T2C0.039
T3C0.047
T4C0.052
T5C0.053
%
G90
G05
M72
T1
X3.275Y-5.625
X3.275Y-5.725
X3.275Y-5.825
X3.275Y-5.925
X3.575Y-5.625
X3.575Y-5.725
X3.575Y-5.825
X3.575Y-5.925
T2
X3.05Y-6.0531
X3.05Y-6.25
X3.0625Y-4.4156
X3.0625Y-4.6125
X3.2875Y-4.6125
X3.3781Y-5.425
X3.3875Y-4.6125
X3.4875Y-4.6125
X3.575Y-5.425
X3.7125Y-4.4156
X3.7125Y-4.6125
X4.45Y-5.5
X4.45Y-5.6969
X4.475Y-6.475
X4.575Y-6.475
X4.675Y-5.6
X4.675Y-5.7
X4.675Y-5.8
X4.675Y-6.475
X4.925Y-5.6
X4.925Y-5.7969
T3
X2.975Y-5.
X2.975Y-5.6
X3.1Y-4.825
X3.15Y-5.025
X3.15Y-5.25
X3.2Y-6.25
X3.2Y-6.5
X3.3Y-4.075
X3.4969Y-4.075
X3.6Y-4.825
X3.75Y-5.025
X3.75Y-5.25
X3.8Y-5.425
X3.8Y-6.025
X3.8Y-6.25
X3.8Y-6.5
X4.025Y-3.95
X4.025Y-4.45
X4.025Y-4.625
X4.025Y-5.125
X4.1Y-6.775
X4.25Y-3.95
X4.25Y-4.45
X4.25Y-4.625
X4.25Y-5.125
X4.25Y-5.3
X4.25Y-5.8
X4.25Y-6.
X4.25Y-6.5
X4.5531Y-5.125
X4.7Y-6.775
X4.75Y-5.125
X4.875Y-6.275
X4.875Y-6.775
T4
X5.425Y-3.8844
X5.425Y-4.0813
X5.425Y-4.2781
X5.425Y-4.475
X5.425Y-5.4094
X5.425Y-5.6063
X5.425Y-5.8031
X5.425Y-6.
X5.425Y-6.4281
X5.425Y-6.625
T5
X4.45Y-3.9719
X4.45Y-4.575
X4.55Y-3.8719
X4.55Y-4.0719
X4.55Y-4.475
X4.55Y-4.675
X4.65Y-3.9719
X4.65Y-4.575
X4.85Y-3.9719
X4.85Y-4.575
X4.95Y-3.8719
X4.95Y-4.0719
X4.95Y-4.475
X4.95Y-4.675
X5.05Y-3.9719
X5.05Y-4.575
T0
M30
