G04 #@! TF.FileFunction,Soldermask,Top*
%FSLAX46Y46*%
G04 Gerber Fmt 4.6, Leading zero omitted, Abs format (unit mm)*
G04 Created by KiCad (PCBNEW 4.0.6) date Thu Apr 29 15:37:00 2021*
%MOMM*%
%LPD*%
G01*
G04 APERTURE LIST*
%ADD10C,0.100000*%
%ADD11R,2.800000X2.800000*%
%ADD12C,2.800000*%
%ADD13C,2.400000*%
%ADD14O,2.800000X2.800000*%
%ADD15C,2.750000*%
%ADD16R,4.360000X2.380000*%
%ADD17O,4.360000X2.380000*%
%ADD18R,2.200000X2.200000*%
%ADD19O,2.200000X2.200000*%
%ADD20R,2.800000X2.000000*%
%ADD21O,2.800000X2.000000*%
%ADD22R,1.370000X1.670000*%
%ADD23C,3.900120*%
G04 APERTURE END LIST*
D10*
D11*
X83820000Y-103505000D03*
D12*
X88820000Y-103505000D03*
D11*
X120650000Y-130175000D03*
D12*
X115650000Y-130175000D03*
D13*
X77787500Y-117157500D03*
X77787500Y-112157500D03*
X113030000Y-139700000D03*
X113030000Y-144700000D03*
X94297500Y-117157500D03*
X94297500Y-112157500D03*
X125095000Y-142240000D03*
X125095000Y-147240000D03*
X77470000Y-158750000D03*
X77470000Y-153750000D03*
X90805000Y-137795000D03*
X85805000Y-137795000D03*
D11*
X102235000Y-100330000D03*
D14*
X102235000Y-113030000D03*
D11*
X107950000Y-100330000D03*
D14*
X107950000Y-113030000D03*
D11*
X107950000Y-117475000D03*
D14*
X107950000Y-130175000D03*
D11*
X102235000Y-117475000D03*
D14*
X102235000Y-130175000D03*
D11*
X78740000Y-122555000D03*
D14*
X91440000Y-122555000D03*
D11*
X107950000Y-147320000D03*
D14*
X107950000Y-134620000D03*
D11*
X107950000Y-152400000D03*
D14*
X107950000Y-165100000D03*
D11*
X123825000Y-159385000D03*
D14*
X123825000Y-172085000D03*
D15*
X125730000Y-103425000D03*
X125730000Y-98345000D03*
X125730000Y-113665000D03*
X125730000Y-118745000D03*
X123190000Y-100885000D03*
X128270000Y-100885000D03*
X123190000Y-116205000D03*
X128270000Y-116205000D03*
X115570000Y-103425000D03*
X115570000Y-98345000D03*
X115570000Y-113665000D03*
X115570000Y-118745000D03*
X113030000Y-100885000D03*
X118110000Y-100885000D03*
X113030000Y-116205000D03*
X118110000Y-116205000D03*
D16*
X137795000Y-168275000D03*
D17*
X137795000Y-163275000D03*
D16*
X137795000Y-152400000D03*
D17*
X137795000Y-147400000D03*
X137795000Y-137400000D03*
X137795000Y-142400000D03*
D16*
X137795000Y-113665000D03*
D17*
X137795000Y-108665000D03*
X137795000Y-98665000D03*
X137795000Y-103665000D03*
D18*
X118745000Y-164465000D03*
D19*
X116205000Y-164465000D03*
X113665000Y-164465000D03*
D12*
X81280000Y-165100000D03*
D14*
X96520000Y-165100000D03*
D12*
X96520000Y-137795000D03*
D14*
X96520000Y-153035000D03*
D12*
X96520000Y-158750000D03*
D14*
X81280000Y-158750000D03*
D12*
X95250000Y-127635000D03*
D14*
X80010000Y-127635000D03*
D12*
X75565000Y-142240000D03*
D14*
X75565000Y-127000000D03*
D12*
X119380000Y-172085000D03*
D14*
X104140000Y-172085000D03*
D12*
X95250000Y-133350000D03*
D14*
X80010000Y-133350000D03*
D18*
X83502500Y-117157500D03*
D19*
X86042500Y-117157500D03*
X88582500Y-117157500D03*
D18*
X118745000Y-142240000D03*
D19*
X118745000Y-144780000D03*
X118745000Y-147320000D03*
D20*
X83185000Y-142875000D03*
D21*
X90805000Y-150495000D03*
X83185000Y-145415000D03*
X90805000Y-147955000D03*
X83185000Y-147955000D03*
X90805000Y-145415000D03*
X83185000Y-150495000D03*
X90805000Y-142875000D03*
D22*
X126360000Y-172085000D03*
X127640000Y-172085000D03*
D23*
X140413740Y-178513740D03*
X70413880Y-178513740D03*
X70413880Y-88513920D03*
X140413740Y-88513920D03*
M02*
