G04 #@! TF.FileFunction,Other,Fab,Top*
%FSLAX46Y46*%
G04 Gerber Fmt 4.6, Leading zero omitted, Abs format (unit mm)*
G04 Created by KiCad (PCBNEW 4.0.6) date Thu Apr 29 15:37:00 2021*
%MOMM*%
%LPD*%
G01*
G04 APERTURE LIST*
%ADD10C,0.100000*%
%ADD11C,0.150000*%
G04 APERTURE END LIST*
D10*
X92570000Y-103505000D02*
G75*
G03X92570000Y-103505000I-6250000J0D01*
G01*
X80620000Y-103505000D02*
X82420000Y-103505000D01*
X81520000Y-102605000D02*
X81520000Y-104405000D01*
X124400000Y-130175000D02*
G75*
G03X124400000Y-130175000I-6250000J0D01*
G01*
X123850000Y-130175000D02*
X122050000Y-130175000D01*
X122950000Y-131075000D02*
X122950000Y-129275000D01*
X76537500Y-118407500D02*
X79037500Y-118407500D01*
X79037500Y-118407500D02*
X79037500Y-110907500D01*
X79037500Y-110907500D02*
X76537500Y-110907500D01*
X76537500Y-110907500D02*
X76537500Y-118407500D01*
X114280000Y-138450000D02*
X111780000Y-138450000D01*
X111780000Y-138450000D02*
X111780000Y-145950000D01*
X111780000Y-145950000D02*
X114280000Y-145950000D01*
X114280000Y-145950000D02*
X114280000Y-138450000D01*
X93047500Y-118407500D02*
X95547500Y-118407500D01*
X95547500Y-118407500D02*
X95547500Y-110907500D01*
X95547500Y-110907500D02*
X93047500Y-110907500D01*
X93047500Y-110907500D02*
X93047500Y-118407500D01*
X126345000Y-140990000D02*
X123845000Y-140990000D01*
X123845000Y-140990000D02*
X123845000Y-148490000D01*
X123845000Y-148490000D02*
X126345000Y-148490000D01*
X126345000Y-148490000D02*
X126345000Y-140990000D01*
X76220000Y-160000000D02*
X78720000Y-160000000D01*
X78720000Y-160000000D02*
X78720000Y-152500000D01*
X78720000Y-152500000D02*
X76220000Y-152500000D01*
X76220000Y-152500000D02*
X76220000Y-160000000D01*
X92055000Y-139045000D02*
X92055000Y-136545000D01*
X92055000Y-136545000D02*
X84555000Y-136545000D01*
X84555000Y-136545000D02*
X84555000Y-139045000D01*
X84555000Y-139045000D02*
X92055000Y-139045000D01*
X104035000Y-102880000D02*
X100435000Y-102880000D01*
X100435000Y-102880000D02*
X100435000Y-110480000D01*
X100435000Y-110480000D02*
X104035000Y-110480000D01*
X104035000Y-110480000D02*
X104035000Y-102880000D01*
X102235000Y-100330000D02*
X102235000Y-102880000D01*
X102235000Y-113030000D02*
X102235000Y-110480000D01*
X104035000Y-104020000D02*
X100435000Y-104020000D01*
X109750000Y-102880000D02*
X106150000Y-102880000D01*
X106150000Y-102880000D02*
X106150000Y-110480000D01*
X106150000Y-110480000D02*
X109750000Y-110480000D01*
X109750000Y-110480000D02*
X109750000Y-102880000D01*
X107950000Y-100330000D02*
X107950000Y-102880000D01*
X107950000Y-113030000D02*
X107950000Y-110480000D01*
X109750000Y-104020000D02*
X106150000Y-104020000D01*
X109750000Y-120025000D02*
X106150000Y-120025000D01*
X106150000Y-120025000D02*
X106150000Y-127625000D01*
X106150000Y-127625000D02*
X109750000Y-127625000D01*
X109750000Y-127625000D02*
X109750000Y-120025000D01*
X107950000Y-117475000D02*
X107950000Y-120025000D01*
X107950000Y-130175000D02*
X107950000Y-127625000D01*
X109750000Y-121165000D02*
X106150000Y-121165000D01*
X104035000Y-120025000D02*
X100435000Y-120025000D01*
X100435000Y-120025000D02*
X100435000Y-127625000D01*
X100435000Y-127625000D02*
X104035000Y-127625000D01*
X104035000Y-127625000D02*
X104035000Y-120025000D01*
X102235000Y-117475000D02*
X102235000Y-120025000D01*
X102235000Y-130175000D02*
X102235000Y-127625000D01*
X104035000Y-121165000D02*
X100435000Y-121165000D01*
X81290000Y-120755000D02*
X81290000Y-124355000D01*
X81290000Y-124355000D02*
X88890000Y-124355000D01*
X88890000Y-124355000D02*
X88890000Y-120755000D01*
X88890000Y-120755000D02*
X81290000Y-120755000D01*
X78740000Y-122555000D02*
X81290000Y-122555000D01*
X91440000Y-122555000D02*
X88890000Y-122555000D01*
X82430000Y-120755000D02*
X82430000Y-124355000D01*
X106150000Y-144770000D02*
X109750000Y-144770000D01*
X109750000Y-144770000D02*
X109750000Y-137170000D01*
X109750000Y-137170000D02*
X106150000Y-137170000D01*
X106150000Y-137170000D02*
X106150000Y-144770000D01*
X107950000Y-147320000D02*
X107950000Y-144770000D01*
X107950000Y-134620000D02*
X107950000Y-137170000D01*
X106150000Y-143630000D02*
X109750000Y-143630000D01*
X109750000Y-154950000D02*
X106150000Y-154950000D01*
X106150000Y-154950000D02*
X106150000Y-162550000D01*
X106150000Y-162550000D02*
X109750000Y-162550000D01*
X109750000Y-162550000D02*
X109750000Y-154950000D01*
X107950000Y-152400000D02*
X107950000Y-154950000D01*
X107950000Y-165100000D02*
X107950000Y-162550000D01*
X109750000Y-156090000D02*
X106150000Y-156090000D01*
X125625000Y-161935000D02*
X122025000Y-161935000D01*
X122025000Y-161935000D02*
X122025000Y-169535000D01*
X122025000Y-169535000D02*
X125625000Y-169535000D01*
X125625000Y-169535000D02*
X125625000Y-161935000D01*
X123825000Y-159385000D02*
X123825000Y-161935000D01*
X123825000Y-172085000D02*
X123825000Y-169535000D01*
X125625000Y-163075000D02*
X122025000Y-163075000D01*
X125730000Y-116195000D02*
X125730000Y-100845000D01*
X123180000Y-120645000D02*
X123180000Y-96545000D01*
X123180000Y-96545000D02*
X128280000Y-96545000D01*
X128280000Y-96545000D02*
X128280000Y-120645000D01*
X128280000Y-120645000D02*
X123230000Y-120645000D01*
X122380000Y-105245000D02*
X129080000Y-105245000D01*
X129080000Y-105245000D02*
X129080000Y-95695000D01*
X129080000Y-95695000D02*
X122430000Y-95695000D01*
X122430000Y-95695000D02*
X122380000Y-105245000D01*
X122380000Y-121345000D02*
X122380000Y-111995000D01*
X122380000Y-111995000D02*
X129080000Y-111995000D01*
X129080000Y-111995000D02*
X129080000Y-121345000D01*
X129080000Y-121345000D02*
X122380000Y-121345000D01*
X115570000Y-116195000D02*
X115570000Y-100845000D01*
X113020000Y-120645000D02*
X113020000Y-96545000D01*
X113020000Y-96545000D02*
X118120000Y-96545000D01*
X118120000Y-96545000D02*
X118120000Y-120645000D01*
X118120000Y-120645000D02*
X113070000Y-120645000D01*
X112220000Y-105245000D02*
X118920000Y-105245000D01*
X118920000Y-105245000D02*
X118920000Y-95695000D01*
X118920000Y-95695000D02*
X112270000Y-95695000D01*
X112270000Y-95695000D02*
X112220000Y-105245000D01*
X112220000Y-121345000D02*
X112220000Y-111995000D01*
X112220000Y-111995000D02*
X118920000Y-111995000D01*
X118920000Y-111995000D02*
X118920000Y-121345000D01*
X118920000Y-121345000D02*
X112220000Y-121345000D01*
X140335000Y-169535000D02*
X140335000Y-166995000D01*
X140335000Y-166995000D02*
X137545000Y-166995000D01*
X137545000Y-169535000D02*
X137545000Y-166995000D01*
X140335000Y-169535000D02*
X137545000Y-169535000D01*
X140335000Y-164535000D02*
X140335000Y-161995000D01*
X140335000Y-161995000D02*
X137545000Y-161995000D01*
X137545000Y-164535000D02*
X137545000Y-161995000D01*
X140335000Y-164535000D02*
X137545000Y-164535000D01*
X131575000Y-160665000D02*
X134625000Y-160665000D01*
X131575000Y-160665000D02*
X131575000Y-170855000D01*
X131575000Y-160665000D02*
X131575000Y-160165000D01*
X131575000Y-160165000D02*
X136395000Y-160165000D01*
X136395000Y-160165000D02*
X136145000Y-160665000D01*
X143255000Y-160165000D02*
X143005000Y-160665000D01*
X143005000Y-160665000D02*
X144015000Y-160665000D01*
X141605000Y-160165000D02*
X141855000Y-160665000D01*
X141855000Y-160665000D02*
X143005000Y-160665000D01*
X141605000Y-160165000D02*
X143255000Y-160165000D01*
X144015000Y-165295000D02*
X142115000Y-165295000D01*
X137545000Y-161225000D02*
X142115000Y-161225000D01*
X144015000Y-165295000D02*
X144015000Y-161225000D01*
X144015000Y-161225000D02*
X144015000Y-160665000D01*
X144015000Y-166235000D02*
X142115000Y-166235000D01*
X144015000Y-166235000D02*
X144015000Y-165295000D01*
X137545000Y-170295000D02*
X142115000Y-170295000D01*
X144015000Y-170855000D02*
X144015000Y-170295000D01*
X144015000Y-170295000D02*
X144015000Y-166235000D01*
X142115000Y-165295000D02*
X142115000Y-161225000D01*
X142115000Y-165295000D02*
X137545000Y-165295000D01*
X142115000Y-161225000D02*
X144015000Y-161225000D01*
X142115000Y-166235000D02*
X142115000Y-170295000D01*
X142115000Y-166235000D02*
X137545000Y-166235000D01*
X142115000Y-170295000D02*
X144015000Y-170295000D01*
X141475000Y-161605000D02*
X138305000Y-161605000D01*
X141475000Y-161605000D02*
X141475000Y-164915000D01*
X141475000Y-164915000D02*
X138305000Y-164915000D01*
X141475000Y-166615000D02*
X138305000Y-166615000D01*
X141475000Y-166615000D02*
X141475000Y-169915000D01*
X141475000Y-169915000D02*
X138305000Y-169915000D01*
X138305000Y-169915000D02*
X138305000Y-169535000D01*
X138305000Y-166615000D02*
X138305000Y-166995000D01*
X138305000Y-164915000D02*
X138305000Y-164535000D01*
X138305000Y-161605000D02*
X138305000Y-161995000D01*
X144015000Y-170855000D02*
X137155000Y-170855000D01*
X137155000Y-170855000D02*
X134625000Y-170855000D01*
X136145000Y-160665000D02*
X137155000Y-160665000D01*
X137155000Y-160665000D02*
X141855000Y-160665000D01*
X134625000Y-170855000D02*
X134625000Y-160665000D01*
X134625000Y-170855000D02*
X131575000Y-170855000D01*
X134625000Y-160665000D02*
X136145000Y-160665000D01*
X134365000Y-165295000D02*
X131825000Y-165295000D01*
X131825000Y-165295000D02*
X131825000Y-161225000D01*
X131825000Y-161225000D02*
X134365000Y-161225000D01*
X134365000Y-161225000D02*
X134365000Y-165295000D01*
X134365000Y-166235000D02*
X131825000Y-166235000D01*
X134365000Y-166235000D02*
X134365000Y-170295000D01*
X134365000Y-170295000D02*
X131825000Y-170295000D01*
X131825000Y-166235000D02*
X131825000Y-170295000D01*
X133345000Y-164885000D02*
X132715000Y-161835000D01*
X133475000Y-164755000D02*
X132845000Y-161715000D01*
X133345000Y-169895000D02*
X132715000Y-166835000D01*
X133475000Y-169765000D02*
X132845000Y-166715000D01*
X137545000Y-170295000D02*
X137545000Y-169915000D01*
X137545000Y-166235000D02*
X137545000Y-166615000D01*
X137545000Y-166615000D02*
X137545000Y-169915000D01*
X137155000Y-170855000D02*
X137155000Y-169915000D01*
X137155000Y-169915000D02*
X137155000Y-166615000D01*
X137155000Y-166615000D02*
X137155000Y-164915000D01*
X137155000Y-160665000D02*
X137155000Y-161605000D01*
X137155000Y-161605000D02*
X137155000Y-164915000D01*
X137545000Y-161225000D02*
X137545000Y-161605000D01*
X137545000Y-165295000D02*
X137545000Y-164915000D01*
X137545000Y-164915000D02*
X137545000Y-161605000D01*
X133718995Y-161789468D02*
G75*
G03X132745000Y-161735000I-513995J-455532D01*
G01*
X133626737Y-164727333D02*
G75*
G03X133675000Y-161745000I-1901737J1522333D01*
G01*
X132733313Y-161736761D02*
G75*
G03X132795000Y-164885000I1351687J-1548239D01*
G01*
X132736301Y-164837972D02*
G75*
G03X133665000Y-164695000I408699J432972D01*
G01*
X133708996Y-166789380D02*
G75*
G03X132745000Y-166745000I-503996J-455620D01*
G01*
X133636418Y-169734829D02*
G75*
G03X133675000Y-166745000I-1911418J1519829D01*
G01*
X132723466Y-166735024D02*
G75*
G03X132795000Y-169895000I1361534J-1549976D01*
G01*
X132736301Y-169837972D02*
G75*
G03X133665000Y-169695000I408699J432972D01*
G01*
X137545000Y-143650000D02*
X140335000Y-143650000D01*
X140335000Y-143650000D02*
X140335000Y-141110000D01*
X140335000Y-141110000D02*
X137545000Y-141110000D01*
X134365000Y-144460000D02*
X131825000Y-144460000D01*
X131825000Y-144460000D02*
X131825000Y-140400000D01*
X131825000Y-140400000D02*
X134365000Y-140400000D01*
X134365000Y-140400000D02*
X134365000Y-144460000D01*
X133345000Y-144060000D02*
X132715000Y-141010000D01*
X133475000Y-143930000D02*
X132845000Y-140880000D01*
X142115000Y-144410000D02*
X142115000Y-140350000D01*
X144015000Y-140350000D02*
X137545000Y-140350000D01*
X138305000Y-144030000D02*
X138305000Y-143650000D01*
X138305000Y-144030000D02*
X141475000Y-144030000D01*
X141475000Y-144030000D02*
X141475000Y-140730000D01*
X141475000Y-140730000D02*
X138305000Y-140730000D01*
X138305000Y-140730000D02*
X138305000Y-141110000D01*
X137155000Y-139890000D02*
X137155000Y-134810000D01*
X144015000Y-144410000D02*
X137545000Y-144410000D01*
X137545000Y-144410000D02*
X137545000Y-140350000D01*
X144015000Y-135450000D02*
X144015000Y-139380000D01*
X144015000Y-139230000D02*
X144015000Y-145330000D01*
X134745000Y-134810000D02*
X134745000Y-154980000D01*
X131575000Y-134660000D02*
X131575000Y-154980000D01*
X137155000Y-139740000D02*
X137155000Y-154920000D01*
X141795000Y-139450000D02*
X137545000Y-139450000D01*
X137545000Y-139050000D02*
X137545000Y-135750000D01*
X137545000Y-139430000D02*
X137545000Y-139050000D01*
X137545000Y-135370000D02*
X137545000Y-135750000D01*
X133475000Y-138900000D02*
X132845000Y-135850000D01*
X133345000Y-139030000D02*
X132715000Y-135980000D01*
X134365000Y-135370000D02*
X134365000Y-139430000D01*
X131825000Y-135370000D02*
X134365000Y-135370000D01*
X131825000Y-139430000D02*
X131825000Y-135370000D01*
X134365000Y-139430000D02*
X131825000Y-139430000D01*
X134625000Y-134810000D02*
X136145000Y-134810000D01*
X137155000Y-134810000D02*
X141855000Y-134810000D01*
X136145000Y-134810000D02*
X137155000Y-134810000D01*
X138305000Y-135750000D02*
X138305000Y-136130000D01*
X138305000Y-139050000D02*
X138305000Y-138670000D01*
X141475000Y-139050000D02*
X138305000Y-139050000D01*
X141475000Y-135750000D02*
X141475000Y-139050000D01*
X141475000Y-135750000D02*
X138305000Y-135750000D01*
X142115000Y-135370000D02*
X144015000Y-135370000D01*
X142115000Y-139430000D02*
X142115000Y-135370000D01*
X144015000Y-135370000D02*
X144015000Y-134810000D01*
X137545000Y-135370000D02*
X142115000Y-135370000D01*
X144015000Y-139430000D02*
X142115000Y-139430000D01*
X141605000Y-134300000D02*
X143255000Y-134300000D01*
X141855000Y-134810000D02*
X143005000Y-134810000D01*
X141605000Y-134300000D02*
X141855000Y-134810000D01*
X143005000Y-134810000D02*
X144015000Y-134810000D01*
X143255000Y-134300000D02*
X143005000Y-134810000D01*
X136395000Y-134300000D02*
X136145000Y-134810000D01*
X131575000Y-134300000D02*
X136395000Y-134300000D01*
X131575000Y-134810000D02*
X131575000Y-134300000D01*
X131575000Y-134810000D02*
X134625000Y-134810000D01*
X140335000Y-138670000D02*
X137545000Y-138670000D01*
X137545000Y-138670000D02*
X137545000Y-136130000D01*
X140335000Y-136130000D02*
X137545000Y-136130000D01*
X140335000Y-138670000D02*
X140335000Y-136130000D01*
X140335000Y-153680000D02*
X140335000Y-151140000D01*
X140335000Y-151140000D02*
X137545000Y-151140000D01*
X137545000Y-153680000D02*
X137545000Y-151140000D01*
X140335000Y-153680000D02*
X137545000Y-153680000D01*
X140335000Y-148680000D02*
X140335000Y-146140000D01*
X140335000Y-146140000D02*
X137545000Y-146140000D01*
X137545000Y-148680000D02*
X137545000Y-146140000D01*
X140335000Y-148680000D02*
X137545000Y-148680000D01*
X143005000Y-139450000D02*
X144015000Y-139450000D01*
X141855000Y-139450000D02*
X143005000Y-139450000D01*
X144015000Y-149440000D02*
X142115000Y-149440000D01*
X137545000Y-145380000D02*
X142115000Y-145380000D01*
X144015000Y-149440000D02*
X144015000Y-145380000D01*
X144015000Y-150380000D02*
X142115000Y-150380000D01*
X144015000Y-150380000D02*
X144015000Y-149440000D01*
X137545000Y-154450000D02*
X142115000Y-154450000D01*
X144015000Y-154980000D02*
X144015000Y-154450000D01*
X144015000Y-154450000D02*
X144015000Y-150380000D01*
X142115000Y-149440000D02*
X142115000Y-145380000D01*
X142115000Y-149440000D02*
X137545000Y-149440000D01*
X142115000Y-145380000D02*
X144015000Y-145380000D01*
X142115000Y-150380000D02*
X142115000Y-154450000D01*
X142115000Y-150380000D02*
X137545000Y-150380000D01*
X142115000Y-154450000D02*
X144015000Y-154450000D01*
X141475000Y-145760000D02*
X138305000Y-145760000D01*
X141475000Y-145760000D02*
X141475000Y-149060000D01*
X141475000Y-149060000D02*
X138305000Y-149060000D01*
X141475000Y-150760000D02*
X138305000Y-150760000D01*
X141475000Y-150760000D02*
X141475000Y-154070000D01*
X141475000Y-154070000D02*
X138305000Y-154070000D01*
X138305000Y-154070000D02*
X138305000Y-153680000D01*
X138305000Y-150760000D02*
X138305000Y-151140000D01*
X138305000Y-149060000D02*
X138305000Y-148680000D01*
X138305000Y-145760000D02*
X138305000Y-146140000D01*
X144015000Y-154980000D02*
X137155000Y-154980000D01*
X137155000Y-154980000D02*
X134625000Y-154980000D01*
X134625000Y-154980000D02*
X131575000Y-154980000D01*
X134365000Y-149440000D02*
X131825000Y-149440000D01*
X131825000Y-149440000D02*
X131825000Y-145380000D01*
X131825000Y-145380000D02*
X134365000Y-145380000D01*
X134365000Y-145380000D02*
X134365000Y-149440000D01*
X134365000Y-150380000D02*
X131825000Y-150380000D01*
X134365000Y-150380000D02*
X134365000Y-154450000D01*
X134365000Y-154450000D02*
X131825000Y-154450000D01*
X131825000Y-150380000D02*
X131825000Y-154450000D01*
X133345000Y-149040000D02*
X132715000Y-145990000D01*
X133475000Y-148910000D02*
X132845000Y-145860000D01*
X133345000Y-154040000D02*
X132715000Y-150990000D01*
X133475000Y-153910000D02*
X132845000Y-150870000D01*
X137545000Y-154450000D02*
X137545000Y-154070000D01*
X137545000Y-150380000D02*
X137545000Y-150760000D01*
X137545000Y-150760000D02*
X137545000Y-154070000D01*
X137545000Y-145380000D02*
X137545000Y-145760000D01*
X137545000Y-149440000D02*
X137545000Y-149060000D01*
X137545000Y-149060000D02*
X137545000Y-145760000D01*
X133708996Y-140954380D02*
G75*
G03X132745000Y-140910000I-503996J-455620D01*
G01*
X133626737Y-143902333D02*
G75*
G03X133675000Y-140920000I-1901737J1522333D01*
G01*
X132733313Y-140911761D02*
G75*
G03X132795000Y-144060000I1351687J-1548239D01*
G01*
X132736301Y-144002972D02*
G75*
G03X133665000Y-143860000I408699J432972D01*
G01*
X132736301Y-138972972D02*
G75*
G03X133665000Y-138830000I408699J432972D01*
G01*
X132733313Y-135881761D02*
G75*
G03X132795000Y-139030000I1351687J-1548239D01*
G01*
X133626737Y-138872333D02*
G75*
G03X133675000Y-135890000I-1901737J1522333D01*
G01*
X133708996Y-135924380D02*
G75*
G03X132745000Y-135880000I-503996J-455620D01*
G01*
X133708996Y-145934380D02*
G75*
G03X132745000Y-145890000I-503996J-455620D01*
G01*
X133626737Y-148882333D02*
G75*
G03X133675000Y-145900000I-1901737J1522333D01*
G01*
X132733313Y-145891761D02*
G75*
G03X132795000Y-149040000I1351687J-1548239D01*
G01*
X132736301Y-148982972D02*
G75*
G03X133665000Y-148840000I408699J432972D01*
G01*
X133718995Y-150944468D02*
G75*
G03X132745000Y-150890000I-513995J-455532D01*
G01*
X133626737Y-153882333D02*
G75*
G03X133675000Y-150900000I-1901737J1522333D01*
G01*
X132733313Y-150891761D02*
G75*
G03X132795000Y-154040000I1351687J-1548239D01*
G01*
X132745995Y-153995426D02*
G75*
G03X133665000Y-153840000I399005J435426D01*
G01*
X137545000Y-104915000D02*
X140335000Y-104915000D01*
X140335000Y-104915000D02*
X140335000Y-102375000D01*
X140335000Y-102375000D02*
X137545000Y-102375000D01*
X134365000Y-105725000D02*
X131825000Y-105725000D01*
X131825000Y-105725000D02*
X131825000Y-101665000D01*
X131825000Y-101665000D02*
X134365000Y-101665000D01*
X134365000Y-101665000D02*
X134365000Y-105725000D01*
X133345000Y-105325000D02*
X132715000Y-102275000D01*
X133475000Y-105195000D02*
X132845000Y-102145000D01*
X142115000Y-105675000D02*
X142115000Y-101615000D01*
X144015000Y-101615000D02*
X137545000Y-101615000D01*
X138305000Y-105295000D02*
X138305000Y-104915000D01*
X138305000Y-105295000D02*
X141475000Y-105295000D01*
X141475000Y-105295000D02*
X141475000Y-101995000D01*
X141475000Y-101995000D02*
X138305000Y-101995000D01*
X138305000Y-101995000D02*
X138305000Y-102375000D01*
X137155000Y-101155000D02*
X137155000Y-96075000D01*
X144015000Y-105675000D02*
X137545000Y-105675000D01*
X137545000Y-105675000D02*
X137545000Y-101615000D01*
X144015000Y-96715000D02*
X144015000Y-100645000D01*
X144015000Y-100495000D02*
X144015000Y-106595000D01*
X134745000Y-96075000D02*
X134745000Y-116245000D01*
X131575000Y-95925000D02*
X131575000Y-116245000D01*
X137155000Y-101005000D02*
X137155000Y-116185000D01*
X141795000Y-100715000D02*
X137545000Y-100715000D01*
X137545000Y-100315000D02*
X137545000Y-97015000D01*
X137545000Y-100695000D02*
X137545000Y-100315000D01*
X137545000Y-96635000D02*
X137545000Y-97015000D01*
X133475000Y-100165000D02*
X132845000Y-97115000D01*
X133345000Y-100295000D02*
X132715000Y-97245000D01*
X134365000Y-96635000D02*
X134365000Y-100695000D01*
X131825000Y-96635000D02*
X134365000Y-96635000D01*
X131825000Y-100695000D02*
X131825000Y-96635000D01*
X134365000Y-100695000D02*
X131825000Y-100695000D01*
X134625000Y-96075000D02*
X136145000Y-96075000D01*
X137155000Y-96075000D02*
X141855000Y-96075000D01*
X136145000Y-96075000D02*
X137155000Y-96075000D01*
X138305000Y-97015000D02*
X138305000Y-97395000D01*
X138305000Y-100315000D02*
X138305000Y-99935000D01*
X141475000Y-100315000D02*
X138305000Y-100315000D01*
X141475000Y-97015000D02*
X141475000Y-100315000D01*
X141475000Y-97015000D02*
X138305000Y-97015000D01*
X142115000Y-96635000D02*
X144015000Y-96635000D01*
X142115000Y-100695000D02*
X142115000Y-96635000D01*
X144015000Y-96635000D02*
X144015000Y-96075000D01*
X137545000Y-96635000D02*
X142115000Y-96635000D01*
X144015000Y-100695000D02*
X142115000Y-100695000D01*
X141605000Y-95565000D02*
X143255000Y-95565000D01*
X141855000Y-96075000D02*
X143005000Y-96075000D01*
X141605000Y-95565000D02*
X141855000Y-96075000D01*
X143005000Y-96075000D02*
X144015000Y-96075000D01*
X143255000Y-95565000D02*
X143005000Y-96075000D01*
X136395000Y-95565000D02*
X136145000Y-96075000D01*
X131575000Y-95565000D02*
X136395000Y-95565000D01*
X131575000Y-96075000D02*
X131575000Y-95565000D01*
X131575000Y-96075000D02*
X134625000Y-96075000D01*
X140335000Y-99935000D02*
X137545000Y-99935000D01*
X137545000Y-99935000D02*
X137545000Y-97395000D01*
X140335000Y-97395000D02*
X137545000Y-97395000D01*
X140335000Y-99935000D02*
X140335000Y-97395000D01*
X140335000Y-114945000D02*
X140335000Y-112405000D01*
X140335000Y-112405000D02*
X137545000Y-112405000D01*
X137545000Y-114945000D02*
X137545000Y-112405000D01*
X140335000Y-114945000D02*
X137545000Y-114945000D01*
X140335000Y-109945000D02*
X140335000Y-107405000D01*
X140335000Y-107405000D02*
X137545000Y-107405000D01*
X137545000Y-109945000D02*
X137545000Y-107405000D01*
X140335000Y-109945000D02*
X137545000Y-109945000D01*
X143005000Y-100715000D02*
X144015000Y-100715000D01*
X141855000Y-100715000D02*
X143005000Y-100715000D01*
X144015000Y-110705000D02*
X142115000Y-110705000D01*
X137545000Y-106645000D02*
X142115000Y-106645000D01*
X144015000Y-110705000D02*
X144015000Y-106645000D01*
X144015000Y-111645000D02*
X142115000Y-111645000D01*
X144015000Y-111645000D02*
X144015000Y-110705000D01*
X137545000Y-115715000D02*
X142115000Y-115715000D01*
X144015000Y-116245000D02*
X144015000Y-115715000D01*
X144015000Y-115715000D02*
X144015000Y-111645000D01*
X142115000Y-110705000D02*
X142115000Y-106645000D01*
X142115000Y-110705000D02*
X137545000Y-110705000D01*
X142115000Y-106645000D02*
X144015000Y-106645000D01*
X142115000Y-111645000D02*
X142115000Y-115715000D01*
X142115000Y-111645000D02*
X137545000Y-111645000D01*
X142115000Y-115715000D02*
X144015000Y-115715000D01*
X141475000Y-107025000D02*
X138305000Y-107025000D01*
X141475000Y-107025000D02*
X141475000Y-110325000D01*
X141475000Y-110325000D02*
X138305000Y-110325000D01*
X141475000Y-112025000D02*
X138305000Y-112025000D01*
X141475000Y-112025000D02*
X141475000Y-115335000D01*
X141475000Y-115335000D02*
X138305000Y-115335000D01*
X138305000Y-115335000D02*
X138305000Y-114945000D01*
X138305000Y-112025000D02*
X138305000Y-112405000D01*
X138305000Y-110325000D02*
X138305000Y-109945000D01*
X138305000Y-107025000D02*
X138305000Y-107405000D01*
X144015000Y-116245000D02*
X137155000Y-116245000D01*
X137155000Y-116245000D02*
X134625000Y-116245000D01*
X134625000Y-116245000D02*
X131575000Y-116245000D01*
X134365000Y-110705000D02*
X131825000Y-110705000D01*
X131825000Y-110705000D02*
X131825000Y-106645000D01*
X131825000Y-106645000D02*
X134365000Y-106645000D01*
X134365000Y-106645000D02*
X134365000Y-110705000D01*
X134365000Y-111645000D02*
X131825000Y-111645000D01*
X134365000Y-111645000D02*
X134365000Y-115715000D01*
X134365000Y-115715000D02*
X131825000Y-115715000D01*
X131825000Y-111645000D02*
X131825000Y-115715000D01*
X133345000Y-110305000D02*
X132715000Y-107255000D01*
X133475000Y-110175000D02*
X132845000Y-107125000D01*
X133345000Y-115305000D02*
X132715000Y-112255000D01*
X133475000Y-115175000D02*
X132845000Y-112135000D01*
X137545000Y-115715000D02*
X137545000Y-115335000D01*
X137545000Y-111645000D02*
X137545000Y-112025000D01*
X137545000Y-112025000D02*
X137545000Y-115335000D01*
X137545000Y-106645000D02*
X137545000Y-107025000D01*
X137545000Y-110705000D02*
X137545000Y-110325000D01*
X137545000Y-110325000D02*
X137545000Y-107025000D01*
X133708996Y-102219380D02*
G75*
G03X132745000Y-102175000I-503996J-455620D01*
G01*
X133626737Y-105167333D02*
G75*
G03X133675000Y-102185000I-1901737J1522333D01*
G01*
X132733313Y-102176761D02*
G75*
G03X132795000Y-105325000I1351687J-1548239D01*
G01*
X132736301Y-105267972D02*
G75*
G03X133665000Y-105125000I408699J432972D01*
G01*
X132736301Y-100237972D02*
G75*
G03X133665000Y-100095000I408699J432972D01*
G01*
X132733313Y-97146761D02*
G75*
G03X132795000Y-100295000I1351687J-1548239D01*
G01*
X133626737Y-100137333D02*
G75*
G03X133675000Y-97155000I-1901737J1522333D01*
G01*
X133708996Y-97189380D02*
G75*
G03X132745000Y-97145000I-503996J-455620D01*
G01*
X133708996Y-107199380D02*
G75*
G03X132745000Y-107155000I-503996J-455620D01*
G01*
X133626737Y-110147333D02*
G75*
G03X133675000Y-107165000I-1901737J1522333D01*
G01*
X132733313Y-107156761D02*
G75*
G03X132795000Y-110305000I1351687J-1548239D01*
G01*
X132736301Y-110247972D02*
G75*
G03X133665000Y-110105000I408699J432972D01*
G01*
X133718995Y-112209468D02*
G75*
G03X132745000Y-112155000I-513995J-455532D01*
G01*
X133626737Y-115147333D02*
G75*
G03X133675000Y-112165000I-1901737J1522333D01*
G01*
X132733313Y-112156761D02*
G75*
G03X132795000Y-115305000I1351687J-1548239D01*
G01*
X132745995Y-115260426D02*
G75*
G03X133665000Y-115105000I399005J435426D01*
G01*
X120205000Y-166465000D02*
X120205000Y-163215000D01*
X120205000Y-163215000D02*
X112205000Y-163215000D01*
X112205000Y-163215000D02*
X112205000Y-166465000D01*
X112205000Y-166465000D02*
X120205000Y-166465000D01*
X117805000Y-166465000D02*
X117805000Y-163215000D01*
X114605000Y-166465000D02*
X114605000Y-163215000D01*
X83950000Y-163300000D02*
X83950000Y-166900000D01*
X83950000Y-166900000D02*
X93850000Y-166900000D01*
X93850000Y-166900000D02*
X93850000Y-163300000D01*
X93850000Y-163300000D02*
X83950000Y-163300000D01*
X81280000Y-165100000D02*
X83950000Y-165100000D01*
X96520000Y-165100000D02*
X93850000Y-165100000D01*
X98320000Y-140465000D02*
X94720000Y-140465000D01*
X94720000Y-140465000D02*
X94720000Y-150365000D01*
X94720000Y-150365000D02*
X98320000Y-150365000D01*
X98320000Y-150365000D02*
X98320000Y-140465000D01*
X96520000Y-137795000D02*
X96520000Y-140465000D01*
X96520000Y-153035000D02*
X96520000Y-150365000D01*
X93850000Y-160550000D02*
X93850000Y-156950000D01*
X93850000Y-156950000D02*
X83950000Y-156950000D01*
X83950000Y-156950000D02*
X83950000Y-160550000D01*
X83950000Y-160550000D02*
X93850000Y-160550000D01*
X96520000Y-158750000D02*
X93850000Y-158750000D01*
X81280000Y-158750000D02*
X83950000Y-158750000D01*
X92580000Y-129435000D02*
X92580000Y-125835000D01*
X92580000Y-125835000D02*
X82680000Y-125835000D01*
X82680000Y-125835000D02*
X82680000Y-129435000D01*
X82680000Y-129435000D02*
X92580000Y-129435000D01*
X95250000Y-127635000D02*
X92580000Y-127635000D01*
X80010000Y-127635000D02*
X82680000Y-127635000D01*
X73765000Y-139570000D02*
X77365000Y-139570000D01*
X77365000Y-139570000D02*
X77365000Y-129670000D01*
X77365000Y-129670000D02*
X73765000Y-129670000D01*
X73765000Y-129670000D02*
X73765000Y-139570000D01*
X75565000Y-142240000D02*
X75565000Y-139570000D01*
X75565000Y-127000000D02*
X75565000Y-129670000D01*
X116710000Y-173885000D02*
X116710000Y-170285000D01*
X116710000Y-170285000D02*
X106810000Y-170285000D01*
X106810000Y-170285000D02*
X106810000Y-173885000D01*
X106810000Y-173885000D02*
X116710000Y-173885000D01*
X119380000Y-172085000D02*
X116710000Y-172085000D01*
X104140000Y-172085000D02*
X106810000Y-172085000D01*
X92580000Y-135150000D02*
X92580000Y-131550000D01*
X92580000Y-131550000D02*
X82680000Y-131550000D01*
X82680000Y-131550000D02*
X82680000Y-135150000D01*
X82680000Y-135150000D02*
X92580000Y-135150000D01*
X95250000Y-133350000D02*
X92580000Y-133350000D01*
X80010000Y-133350000D02*
X82680000Y-133350000D01*
X81042500Y-114657500D02*
X81042500Y-119057500D01*
X81042500Y-119057500D02*
X91042500Y-119057500D01*
X91042500Y-119057500D02*
X91042500Y-114657500D01*
X91042500Y-114657500D02*
X81042500Y-114657500D01*
X81042500Y-115927500D02*
X91042500Y-115927500D01*
X84192500Y-114657500D02*
X84192500Y-115927500D01*
X87892500Y-114657500D02*
X87892500Y-115927500D01*
X121245000Y-139780000D02*
X116845000Y-139780000D01*
X116845000Y-139780000D02*
X116845000Y-149780000D01*
X116845000Y-149780000D02*
X121245000Y-149780000D01*
X121245000Y-149780000D02*
X121245000Y-139780000D01*
X119975000Y-139780000D02*
X119975000Y-149780000D01*
X121245000Y-142930000D02*
X119975000Y-142930000D01*
X121245000Y-146630000D02*
X119975000Y-146630000D01*
X84820000Y-141605000D02*
X90170000Y-141605000D01*
X90170000Y-141605000D02*
X90170000Y-151765000D01*
X90170000Y-151765000D02*
X83820000Y-151765000D01*
X83820000Y-151765000D02*
X83820000Y-142605000D01*
X83820000Y-142605000D02*
X84820000Y-141605000D01*
D11*
X62793571Y-183014761D02*
X62841190Y-182871904D01*
X62888810Y-182824285D01*
X62984048Y-182776666D01*
X63126905Y-182776666D01*
X63222143Y-182824285D01*
X63269762Y-182871904D01*
X63317381Y-182967142D01*
X63317381Y-183348095D01*
X62317381Y-183348095D01*
X62317381Y-183014761D01*
X62365000Y-182919523D01*
X62412619Y-182871904D01*
X62507857Y-182824285D01*
X62603095Y-182824285D01*
X62698333Y-182871904D01*
X62745952Y-182919523D01*
X62793571Y-183014761D01*
X62793571Y-183348095D01*
X63317381Y-181776666D02*
X62841190Y-182110000D01*
X63317381Y-182348095D02*
X62317381Y-182348095D01*
X62317381Y-181967142D01*
X62365000Y-181871904D01*
X62412619Y-181824285D01*
X62507857Y-181776666D01*
X62650714Y-181776666D01*
X62745952Y-181824285D01*
X62793571Y-181871904D01*
X62841190Y-181967142D01*
X62841190Y-182348095D01*
X63317381Y-181348095D02*
X62317381Y-181348095D01*
X62317381Y-181110000D01*
X62365000Y-180967142D01*
X62460238Y-180871904D01*
X62555476Y-180824285D01*
X62745952Y-180776666D01*
X62888810Y-180776666D01*
X63079286Y-180824285D01*
X63174524Y-180871904D01*
X63269762Y-180967142D01*
X63317381Y-181110000D01*
X63317381Y-181348095D01*
X63317381Y-179824285D02*
X63317381Y-180395714D01*
X63317381Y-180110000D02*
X62317381Y-180110000D01*
X62460238Y-180205238D01*
X62555476Y-180300476D01*
X62603095Y-180395714D01*
X147248571Y-98416191D02*
X147248571Y-98082857D01*
X147772381Y-97940000D02*
X147772381Y-98416191D01*
X146772381Y-98416191D01*
X146772381Y-97940000D01*
X147105714Y-97082857D02*
X147772381Y-97082857D01*
X147105714Y-97511429D02*
X147629524Y-97511429D01*
X147724762Y-97463810D01*
X147772381Y-97368572D01*
X147772381Y-97225714D01*
X147724762Y-97130476D01*
X147677143Y-97082857D01*
X147772381Y-96606667D02*
X147105714Y-96606667D01*
X147296190Y-96606667D02*
X147200952Y-96559048D01*
X147153333Y-96511429D01*
X147105714Y-96416191D01*
X147105714Y-96320952D01*
X147772381Y-95844762D02*
X147724762Y-95940000D01*
X147677143Y-95987619D01*
X147581905Y-96035238D01*
X147296190Y-96035238D01*
X147200952Y-95987619D01*
X147153333Y-95940000D01*
X147105714Y-95844762D01*
X147105714Y-95701904D01*
X147153333Y-95606666D01*
X147200952Y-95559047D01*
X147296190Y-95511428D01*
X147581905Y-95511428D01*
X147677143Y-95559047D01*
X147724762Y-95606666D01*
X147772381Y-95701904D01*
X147772381Y-95844762D01*
X147248571Y-94749523D02*
X147296190Y-94606666D01*
X147343810Y-94559047D01*
X147439048Y-94511428D01*
X147581905Y-94511428D01*
X147677143Y-94559047D01*
X147724762Y-94606666D01*
X147772381Y-94701904D01*
X147772381Y-95082857D01*
X146772381Y-95082857D01*
X146772381Y-94749523D01*
X146820000Y-94654285D01*
X146867619Y-94606666D01*
X146962857Y-94559047D01*
X147058095Y-94559047D01*
X147153333Y-94606666D01*
X147200952Y-94654285D01*
X147248571Y-94749523D01*
X147248571Y-95082857D01*
X147772381Y-93940000D02*
X147724762Y-94035238D01*
X147677143Y-94082857D01*
X147581905Y-94130476D01*
X147296190Y-94130476D01*
X147200952Y-94082857D01*
X147153333Y-94035238D01*
X147105714Y-93940000D01*
X147105714Y-93797142D01*
X147153333Y-93701904D01*
X147200952Y-93654285D01*
X147296190Y-93606666D01*
X147581905Y-93606666D01*
X147677143Y-93654285D01*
X147724762Y-93701904D01*
X147772381Y-93797142D01*
X147772381Y-93940000D01*
X147772381Y-92749523D02*
X147248571Y-92749523D01*
X147153333Y-92797142D01*
X147105714Y-92892380D01*
X147105714Y-93082857D01*
X147153333Y-93178095D01*
X147724762Y-92749523D02*
X147772381Y-92844761D01*
X147772381Y-93082857D01*
X147724762Y-93178095D01*
X147629524Y-93225714D01*
X147534286Y-93225714D01*
X147439048Y-93178095D01*
X147391429Y-93082857D01*
X147391429Y-92844761D01*
X147343810Y-92749523D01*
X147772381Y-92273333D02*
X147105714Y-92273333D01*
X147296190Y-92273333D02*
X147200952Y-92225714D01*
X147153333Y-92178095D01*
X147105714Y-92082857D01*
X147105714Y-91987618D01*
X147772381Y-91225713D02*
X146772381Y-91225713D01*
X147724762Y-91225713D02*
X147772381Y-91320951D01*
X147772381Y-91511428D01*
X147724762Y-91606666D01*
X147677143Y-91654285D01*
X147581905Y-91701904D01*
X147296190Y-91701904D01*
X147200952Y-91654285D01*
X147153333Y-91606666D01*
X147105714Y-91511428D01*
X147105714Y-91320951D01*
X147153333Y-91225713D01*
X147772381Y-89463808D02*
X147772381Y-90035237D01*
X147772381Y-89749523D02*
X146772381Y-89749523D01*
X146915238Y-89844761D01*
X147010476Y-89939999D01*
X147058095Y-90035237D01*
X146772381Y-88844761D02*
X146772381Y-88749522D01*
X146820000Y-88654284D01*
X146867619Y-88606665D01*
X146962857Y-88559046D01*
X147153333Y-88511427D01*
X147391429Y-88511427D01*
X147581905Y-88559046D01*
X147677143Y-88606665D01*
X147724762Y-88654284D01*
X147772381Y-88749522D01*
X147772381Y-88844761D01*
X147724762Y-88939999D01*
X147677143Y-88987618D01*
X147581905Y-89035237D01*
X147391429Y-89082856D01*
X147153333Y-89082856D01*
X146962857Y-89035237D01*
X146867619Y-88987618D01*
X146820000Y-88939999D01*
X146772381Y-88844761D01*
X146772381Y-87892380D02*
X146772381Y-87797141D01*
X146820000Y-87701903D01*
X146867619Y-87654284D01*
X146962857Y-87606665D01*
X147153333Y-87559046D01*
X147391429Y-87559046D01*
X147581905Y-87606665D01*
X147677143Y-87654284D01*
X147724762Y-87701903D01*
X147772381Y-87797141D01*
X147772381Y-87892380D01*
X147724762Y-87987618D01*
X147677143Y-88035237D01*
X147581905Y-88082856D01*
X147391429Y-88130475D01*
X147153333Y-88130475D01*
X146962857Y-88082856D01*
X146867619Y-88035237D01*
X146820000Y-87987618D01*
X146772381Y-87892380D01*
X147105714Y-87035237D02*
X147677143Y-86463808D01*
X147105714Y-86463808D02*
X147677143Y-87035237D01*
X147200952Y-85749523D02*
X147153333Y-85844761D01*
X147105714Y-85892380D01*
X147010476Y-85939999D01*
X146962857Y-85939999D01*
X146867619Y-85892380D01*
X146820000Y-85844761D01*
X146772381Y-85749523D01*
X146772381Y-85559046D01*
X146820000Y-85463808D01*
X146867619Y-85416189D01*
X146962857Y-85368570D01*
X147010476Y-85368570D01*
X147105714Y-85416189D01*
X147153333Y-85463808D01*
X147200952Y-85559046D01*
X147200952Y-85749523D01*
X147248571Y-85844761D01*
X147296190Y-85892380D01*
X147391429Y-85939999D01*
X147581905Y-85939999D01*
X147677143Y-85892380D01*
X147724762Y-85844761D01*
X147772381Y-85749523D01*
X147772381Y-85559046D01*
X147724762Y-85463808D01*
X147677143Y-85416189D01*
X147581905Y-85368570D01*
X147391429Y-85368570D01*
X147296190Y-85416189D01*
X147248571Y-85463808D01*
X147200952Y-85559046D01*
X146772381Y-84749523D02*
X146772381Y-84654284D01*
X146820000Y-84559046D01*
X146867619Y-84511427D01*
X146962857Y-84463808D01*
X147153333Y-84416189D01*
X147391429Y-84416189D01*
X147581905Y-84463808D01*
X147677143Y-84511427D01*
X147724762Y-84559046D01*
X147772381Y-84654284D01*
X147772381Y-84749523D01*
X147724762Y-84844761D01*
X147677143Y-84892380D01*
X147581905Y-84939999D01*
X147391429Y-84987618D01*
X147153333Y-84987618D01*
X146962857Y-84939999D01*
X146867619Y-84892380D01*
X146820000Y-84844761D01*
X146772381Y-84749523D01*
M02*
